<svg width="200" height="200" viewBox="0 0 200 200" fill="none" xmlns="http://www.w3.org/2000/svg">
<rect width="200" height="200" fill="#F5F5F5"/>
<g clip-path="url(#clip0_338_4500)">
<path d="M63.8354 77.4862L63.8392 77.9171C63.8525 79.4366 62.687 80.7071 61.1718 80.8244L56.5113 81.1854C54.842 81.3146 53.4123 80.003 53.3977 78.3288L53.3883 77.2582C53.3737 75.584 54.7799 74.2475 56.4513 74.3474L61.1174 74.6263C62.6345 74.7168 63.8221 75.9665 63.8354 77.4862Z" fill="#BFBFBF"/>
<path d="M65.785 87.2249L66.0037 87.5962C66.775 88.9055 66.4008 90.5885 65.1474 91.4476L61.2918 94.0903C59.9107 95.0368 58.0169 94.6158 57.167 93.1732L56.6236 92.2507C55.7737 90.8081 56.3234 88.9475 57.8208 88.1984L62.0011 86.1069C63.3603 85.427 65.0137 85.9154 65.785 87.2249Z" fill="#BFBFBF"/>
<path d="M73.1086 93.8834L73.4836 94.0955C74.8062 94.8438 75.3237 96.4884 74.6679 97.8592L72.6502 102.076C71.9275 103.586 70.0767 104.168 68.6195 103.344L67.6876 102.817C66.2304 101.992 65.776 100.106 66.6982 98.7088L69.2727 94.8073C70.1097 93.539 71.786 93.1353 73.1086 93.8834Z" fill="#BFBFBF"/>
<path d="M87.7455 70.7248L89.7939 68.6764L122.42 101.303L120.372 103.351L87.7455 70.7248Z" fill="#BFBFBF"/>
<path d="M94.2166 59.5387L96.2651 57.4902L133.608 94.8332L131.56 96.8817L94.2166 59.5387Z" fill="#BFBFBF"/>
<path d="M105.398 53.0656L107.446 51.0172L140.085 83.6561L138.037 85.7045L105.398 53.0656Z" fill="#BFBFBF"/>
<path d="M105.414 101.304L138.04 68.6781L140.089 70.7264L107.462 103.353L105.414 101.304Z" fill="#BFBFBF"/>
<path d="M94.2282 94.8314L131.569 57.4904L133.618 59.5389L96.2767 96.8799L94.2282 94.8314Z" fill="#BFBFBF"/>
<path d="M87.7533 83.6518L120.391 51.0138L122.44 53.0623L89.8017 85.7002L87.7533 83.6518Z" fill="#BFBFBF"/>
<path d="M137.05 100.297C150.024 87.3238 149.794 66.0701 136.362 53.3894C123.763 41.4961 103.879 41.5599 91.3525 53.5297C81.7195 62.7348 78.9772 76.3803 83.1232 88.115C85.4332 94.6528 83.7069 101.94 78.8039 106.843L69.6275 116.02C68.1468 117.501 68.0371 119.913 69.4644 121.446C70.9627 123.055 73.4825 123.088 75.0237 121.547L84.247 112.324C89.1517 107.419 96.4437 105.669 102.983 107.982C114.497 112.055 127.854 109.494 137.05 100.297ZM96.2731 94.8359C86.5366 85.0994 86.5366 69.257 96.2731 59.5203C106.01 49.7836 121.852 49.7836 131.589 59.5203C141.325 69.257 141.325 85.0994 131.589 94.8359C121.852 104.572 106.01 104.572 96.2731 94.8359Z" fill="#BFBFBF"/>
<path d="M72.0792 118.472L81.2559 109.295C86.1588 104.392 87.8849 97.1049 85.5751 90.5669C81.4289 78.8323 84.1713 65.1868 93.8045 55.9816C106.141 44.1928 125.614 43.9528 138.236 55.3098C137.643 54.6508 137.019 54.0095 136.362 53.3894C123.763 41.4961 103.879 41.5599 91.3525 53.5297C81.7195 62.7348 78.9772 76.3803 83.1232 88.115C85.4332 94.6528 83.7069 101.94 78.8039 106.843L69.6275 116.02C68.1468 117.501 68.0371 119.913 69.4644 121.446C69.929 121.945 70.492 122.291 71.0934 122.487C70.6539 121.121 71.0013 119.55 72.0792 118.472Z" fill="#BFBFBF"/>
<path d="M97.5423 96.0185C97.9195 96.4516 98.3127 96.8756 98.725 97.2877C108.462 107.024 124.304 107.024 134.041 97.2877C143.777 87.5512 143.777 71.7086 134.041 61.9721C133.629 61.5599 133.205 61.1668 132.771 60.7893C141.306 70.5879 140.913 85.5114 131.589 94.8358C122.264 104.16 107.341 104.554 97.5423 96.0185Z" fill="#BFBFBF"/>
<path d="M61.4716 133.422L57.6871 129.637C56.2495 128.2 56.2495 125.869 57.6871 124.432L69.8262 112.293C71.2638 110.855 73.5944 110.855 75.0318 112.293L78.8163 116.077C80.2539 117.515 80.2539 119.845 78.8163 121.283L66.6774 133.422C65.2398 134.86 62.9092 134.86 61.4716 133.422Z" fill="#BFBFBF"/>
<path d="M60.6835 132.634L57.6865 129.637C56.2501 128.201 56.2501 125.869 57.6879 124.431L69.8262 112.293C71.264 110.855 73.5948 110.856 75.031 112.293L78.028 115.29C76.5903 113.852 74.261 113.852 72.8232 115.29L60.6849 127.428C59.2471 128.866 59.2458 131.197 60.6835 132.634Z" fill="#BFBFBF"/>
<path d="M88.5742 61.0649L82.0897 42.2818C80.7987 38.5426 76.0885 37.2481 73.1525 39.899C73.1028 39.944 73.0535 39.9899 73.0051 40.0368C70.6244 42.3393 70.6004 46.1362 72.9331 48.4689C70.6242 46.16 66.8808 46.16 64.5719 48.4689C62.263 50.7778 62.263 54.5212 64.5719 56.8301C62.239 54.4976 58.4422 54.5216 56.1397 56.9023C56.0928 56.9508 56.0469 56.9999 56.0019 57.0496C53.351 59.9857 54.6453 64.6961 58.3846 65.9868L77.1678 72.4713L86.845 70.7422L88.5742 61.0649Z" fill="#BFBFBF"/>
<path d="M62.9782 61.3933C60.4749 60.0393 58.7405 57.3423 58.7757 55.3228C57.8064 55.5971 56.8925 56.1239 56.1393 56.9023C56.0922 56.951 56.0467 56.9999 56.0013 57.0504C53.3514 59.9864 54.6457 64.697 58.3844 65.987L77.1674 72.4724L86.8447 70.7424L79.378 70.2618L62.9782 61.3933Z" fill="#BFBFBF"/>
<path d="M90.8191 74.7164C87.6693 77.8663 82.5624 77.8663 79.4125 74.7164L77.1676 72.4715L88.5742 61.0649L90.8191 63.3099C93.9689 66.4597 93.9689 71.5666 90.8191 74.7164Z" fill="#BFBFBF"/>
<path d="M92.0832 73.0799C88.9942 74.8867 84.9616 74.4659 82.3126 71.8169L80.0675 69.5718L77.1676 72.4717L79.4127 74.7168C82.5625 77.8664 87.6695 77.8657 90.8193 74.7159C91.3199 74.2151 91.7416 73.664 92.0832 73.0799Z" fill="#BFBFBF"/>
</g>
<path d="M51.218 156.5V146.63H55.166C56.174 146.63 56.958 146.854 57.518 147.302C58.078 147.75 58.358 148.385 58.358 149.206C58.358 149.822 58.176 150.335 57.812 150.746C57.4573 151.157 56.972 151.427 56.356 151.558V151.362C56.8227 151.418 57.224 151.553 57.56 151.768C57.896 151.973 58.1527 152.249 58.33 152.594C58.5073 152.93 58.596 153.327 58.596 153.784C58.596 154.372 58.4653 154.871 58.204 155.282C57.952 155.683 57.5833 155.987 57.098 156.192C56.6127 156.397 56.0247 156.5 55.334 156.5H51.218ZM52.338 155.576H55.222C55.5207 155.576 55.7867 155.553 56.02 155.506C56.2627 155.459 56.4727 155.389 56.65 155.296C56.8273 155.193 56.9767 155.072 57.098 154.932C57.2193 154.792 57.308 154.624 57.364 154.428C57.4293 154.232 57.462 154.013 57.462 153.77C57.462 153.518 57.4293 153.299 57.364 153.112C57.308 152.916 57.2193 152.748 57.098 152.608C56.9767 152.459 56.8273 152.337 56.65 152.244C56.4727 152.151 56.2627 152.081 56.02 152.034C55.7867 151.987 55.5207 151.964 55.222 151.964H52.338V155.576ZM52.338 151.04H54.998C55.726 151.04 56.2767 150.891 56.65 150.592C57.0327 150.293 57.224 149.864 57.224 149.304C57.224 148.725 57.0327 148.291 56.65 148.002C56.2767 147.703 55.726 147.554 54.998 147.554H52.338V151.04ZM62.6669 156.626C62.2003 156.626 61.7803 156.537 61.4069 156.36C61.0429 156.173 60.7536 155.921 60.5389 155.604C60.3243 155.287 60.2169 154.932 60.2169 154.54C60.2169 154.036 60.3429 153.639 60.5949 153.35C60.8563 153.061 61.2809 152.855 61.8689 152.734C62.4663 152.613 63.2783 152.552 64.3049 152.552H64.9349V153.294H64.3189C63.7496 153.294 63.2736 153.313 62.8909 153.35C62.5083 153.387 62.2049 153.453 61.9809 153.546C61.7569 153.639 61.5983 153.761 61.5049 153.91C61.4116 154.059 61.3649 154.246 61.3649 154.47C61.3649 154.853 61.4956 155.165 61.7569 155.408C62.0276 155.651 62.3916 155.772 62.8489 155.772C63.2223 155.772 63.5489 155.683 63.8289 155.506C64.1183 155.329 64.3423 155.086 64.5009 154.778C64.6689 154.47 64.7529 154.115 64.7529 153.714V152.118C64.7529 151.539 64.6363 151.124 64.4029 150.872C64.1696 150.611 63.7869 150.48 63.2549 150.48C62.8443 150.48 62.4476 150.541 62.0649 150.662C61.6823 150.774 61.2903 150.961 60.8889 151.222L60.4969 150.396C60.7396 150.228 61.0149 150.083 61.3229 149.962C61.6309 149.831 61.9529 149.733 62.2889 149.668C62.6249 149.603 62.9469 149.57 63.2549 149.57C63.8429 149.57 64.3283 149.668 64.7109 149.864C65.0936 150.051 65.3783 150.34 65.5649 150.732C65.7516 151.115 65.8449 151.609 65.8449 152.216V156.5H64.7809V154.918H64.9069C64.8323 155.273 64.6876 155.576 64.4729 155.828C64.2676 156.08 64.0109 156.276 63.7029 156.416C63.3949 156.556 63.0496 156.626 62.6669 156.626ZM70.5388 156.626C69.9321 156.626 69.4001 156.481 68.9428 156.192C68.4948 155.903 68.1448 155.497 67.8928 154.974C67.6501 154.442 67.5288 153.817 67.5288 153.098C67.5288 152.37 67.6501 151.745 67.8928 151.222C68.1448 150.69 68.4948 150.284 68.9428 150.004C69.4001 149.715 69.9321 149.57 70.5388 149.57C71.1548 149.57 71.6821 149.724 72.1208 150.032C72.5594 150.34 72.8534 150.755 73.0028 151.278H72.8488V146.63H73.9828V156.5H72.8768V154.876H73.0168C72.8674 155.408 72.5688 155.833 72.1208 156.15C71.6821 156.467 71.1548 156.626 70.5388 156.626ZM70.7768 155.716C71.4208 155.716 71.9294 155.492 72.3028 155.044C72.6854 154.587 72.8768 153.938 72.8768 153.098C72.8768 152.249 72.6854 151.6 72.3028 151.152C71.9294 150.704 71.4208 150.48 70.7768 150.48C70.1421 150.48 69.6334 150.704 69.2508 151.152C68.8681 151.6 68.6768 152.249 68.6768 153.098C68.6768 153.938 68.8681 154.587 69.2508 155.044C69.6334 155.492 70.1421 155.716 70.7768 155.716ZM76.1389 156.5V149.696H77.2449V151.208H77.0909C77.2029 150.863 77.3662 150.569 77.5809 150.326C77.8049 150.074 78.0662 149.887 78.3649 149.766C78.6729 149.635 79.0089 149.57 79.3729 149.57C79.9515 149.57 80.4182 149.71 80.7729 149.99C81.1369 150.261 81.3795 150.685 81.5009 151.264H81.2909C81.4589 150.741 81.7575 150.331 82.1869 150.032C82.6255 149.724 83.1342 149.57 83.7129 149.57C84.2262 149.57 84.6462 149.668 84.9729 149.864C85.3089 150.06 85.5609 150.359 85.7289 150.76C85.8969 151.152 85.9809 151.651 85.9809 152.258V156.5H84.8469V152.314C84.8469 151.689 84.7395 151.231 84.5249 150.942C84.3102 150.643 83.9462 150.494 83.4329 150.494C83.0689 150.494 82.7469 150.583 82.4669 150.76C82.1962 150.937 81.9862 151.189 81.8369 151.516C81.6969 151.833 81.6269 152.211 81.6269 152.65V156.5H80.4929V152.314C80.4929 151.689 80.3809 151.231 80.1569 150.942C79.9422 150.643 79.5829 150.494 79.0789 150.494C78.7055 150.494 78.3835 150.583 78.1129 150.76C77.8422 150.937 77.6322 151.189 77.4829 151.516C77.3429 151.833 77.2729 152.211 77.2729 152.65V156.5H76.1389ZM87.9611 148.002V146.728H89.3611V148.002H87.9611ZM88.1011 156.5V149.696H89.2351V156.5H88.1011ZM91.355 156.5V149.696H92.461V151.208H92.307C92.503 150.667 92.8203 150.261 93.259 149.99C93.707 149.71 94.2203 149.57 94.799 149.57C95.3403 149.57 95.7883 149.668 96.143 149.864C96.507 150.051 96.7777 150.345 96.955 150.746C97.1323 151.147 97.221 151.651 97.221 152.258V156.5H96.087V152.328C96.087 151.908 96.031 151.563 95.919 151.292C95.8163 151.021 95.6483 150.821 95.415 150.69C95.191 150.559 94.897 150.494 94.533 150.494C94.1223 150.494 93.763 150.583 93.455 150.76C93.147 150.937 92.909 151.185 92.741 151.502C92.573 151.819 92.489 152.193 92.489 152.622V156.5H91.355ZM102.042 156.626C101.239 156.626 100.637 156.411 100.236 155.982C99.8347 155.553 99.634 154.941 99.634 154.148V150.578H98.304V149.696H99.634V147.61H100.768V149.696H102.924V150.578H100.768V154.036C100.768 154.568 100.88 154.974 101.104 155.254C101.328 155.525 101.692 155.66 102.196 155.66C102.345 155.66 102.495 155.641 102.644 155.604C102.793 155.567 102.929 155.529 103.05 155.492L103.246 156.36C103.125 156.425 102.947 156.486 102.714 156.542C102.481 156.598 102.257 156.626 102.042 156.626ZM106.966 156.626C106.304 156.626 105.73 156.481 105.244 156.192C104.759 155.903 104.381 155.497 104.11 154.974C103.849 154.442 103.718 153.817 103.718 153.098C103.718 152.379 103.849 151.759 104.11 151.236C104.381 150.704 104.759 150.293 105.244 150.004C105.73 149.715 106.304 149.57 106.966 149.57C107.629 149.57 108.203 149.715 108.688 150.004C109.174 150.293 109.547 150.704 109.808 151.236C110.079 151.759 110.214 152.379 110.214 153.098C110.214 153.817 110.079 154.442 109.808 154.974C109.547 155.497 109.174 155.903 108.688 156.192C108.203 156.481 107.629 156.626 106.966 156.626ZM106.966 155.716C107.61 155.716 108.119 155.492 108.492 155.044C108.875 154.587 109.066 153.933 109.066 153.084C109.066 152.244 108.875 151.6 108.492 151.152C108.119 150.704 107.61 150.48 106.966 150.48C106.332 150.48 105.823 150.704 105.44 151.152C105.058 151.6 104.866 152.244 104.866 153.084C104.866 153.933 105.058 154.587 105.44 155.044C105.823 155.492 106.332 155.716 106.966 155.716ZM111.918 156.5V149.696H113.024V151.208H112.87C113.066 150.667 113.383 150.261 113.822 149.99C114.27 149.71 114.783 149.57 115.362 149.57C115.903 149.57 116.351 149.668 116.706 149.864C117.07 150.051 117.34 150.345 117.518 150.746C117.695 151.147 117.784 151.651 117.784 152.258V156.5H116.65V152.328C116.65 151.908 116.594 151.563 116.482 151.292C116.379 151.021 116.211 150.821 115.978 150.69C115.754 150.559 115.46 150.494 115.096 150.494C114.685 150.494 114.326 150.583 114.018 150.76C113.71 150.937 113.472 151.185 113.304 151.502C113.136 151.819 113.052 152.193 113.052 152.622V156.5H111.918ZM123.624 156.5V146.63H124.772V150.998H130.694V146.63H131.842V156.5H130.694V151.992H124.772V156.5H123.624ZM136.529 156.626C135.978 156.626 135.521 156.528 135.157 156.332C134.802 156.127 134.531 155.823 134.345 155.422C134.167 155.021 134.079 154.521 134.079 153.924V149.696H135.213V153.91C135.213 154.311 135.264 154.647 135.367 154.918C135.479 155.179 135.651 155.375 135.885 155.506C136.118 155.627 136.407 155.688 136.753 155.688C137.145 155.688 137.485 155.599 137.775 155.422C138.064 155.245 138.293 154.997 138.461 154.68C138.629 154.363 138.713 153.989 138.713 153.56V149.696H139.847V156.5H138.741V154.932H138.923C138.736 155.483 138.428 155.903 137.999 156.192C137.579 156.481 137.089 156.626 136.529 156.626ZM145.412 156.626C144.796 156.626 144.264 156.467 143.816 156.15C143.378 155.833 143.084 155.408 142.934 154.876H143.074V156.5H141.968V146.63H143.102V151.278H142.934C143.093 150.755 143.392 150.34 143.83 150.032C144.269 149.724 144.796 149.57 145.412 149.57C146.028 149.57 146.56 149.715 147.008 150.004C147.456 150.284 147.802 150.69 148.044 151.222C148.296 151.745 148.422 152.37 148.422 153.098C148.422 153.817 148.296 154.442 148.044 154.974C147.802 155.497 147.452 155.903 146.994 156.192C146.546 156.481 146.019 156.626 145.412 156.626ZM145.174 155.716C145.818 155.716 146.327 155.492 146.7 155.044C147.083 154.587 147.274 153.938 147.274 153.098C147.274 152.249 147.083 151.6 146.7 151.152C146.327 150.704 145.818 150.48 145.174 150.48C144.54 150.48 144.031 150.704 143.648 151.152C143.266 151.6 143.074 152.249 143.074 153.098C143.074 153.938 143.266 154.587 143.648 155.044C144.031 155.492 144.54 155.716 145.174 155.716Z" fill="#BFBFBF"/>
<defs>
<clipPath id="clip0_338_4500">
<rect width="96" height="96" fill="white" transform="translate(52 38.5)"/>
</clipPath>
</defs>
</svg>
