<svg width="16" height="16" viewBox="0 0 16 16" fill="none" xmlns="http://www.w3.org/2000/svg">
<path d="M5.95331 1.33331H3.34665C1.99998 1.33331 1.33331 1.99998 1.33331 3.34665V5.95998C1.33331 7.33331 1.99998 7.99998 3.34665 7.96665H5.95998C7.33331 7.99998 7.99998 7.33331 7.96665 5.95331V3.34665C7.99998 1.99998 7.33331 1.33331 5.95331 1.33331ZM6.00665 6.50665C5.55331 6.50665 5.11331 6.33331 4.74665 6.02665C4.33331 6.32665 3.83331 6.50665 3.29331 6.50665C3.01998 6.50665 2.79331 6.27998 2.79331 6.00665C2.79331 5.73331 3.01998 5.50665 3.29331 5.50665C3.97331 5.50665 4.53998 5.03998 4.74665 4.39998H3.29331C3.01998 4.39998 2.79331 4.17331 2.79331 3.89998C2.79331 3.62665 3.01998 3.39998 3.29331 3.39998H4.15331C4.17998 3.14665 4.38665 2.94665 4.64665 2.94665C4.90665 2.94665 5.11331 3.14665 5.13998 3.39998H5.31331C5.31998 3.39998 5.32665 3.39998 5.32665 3.39998H5.33998H5.99998C6.27331 3.39998 6.49998 3.62665 6.49998 3.89998C6.49998 4.17331 6.27998 4.39998 5.99998 4.39998H5.77998C5.71998 4.71998 5.59331 5.01998 5.42665 5.29331C5.60665 5.42665 5.79998 5.50665 6.00665 5.50665C6.27998 5.50665 6.50665 5.73331 6.50665 6.00665C6.50665 6.27998 6.27998 6.50665 6.00665 6.50665Z" fill="#E28424"/>
<path d="M5.99998 15.1667C3.15331 15.1667 0.833313 12.8467 0.833313 10C0.833313 9.72667 1.05998 9.5 1.33331 9.5C1.60665 9.5 1.83331 9.72667 1.83331 10C1.83331 11.9733 3.20665 13.6267 5.05331 14.06L4.87331 13.76C4.73331 13.52 4.80665 13.2133 5.04665 13.0733C5.27998 12.9333 5.59331 13.0067 5.73331 13.2467L6.43331 14.4133C6.52665 14.5667 6.52665 14.76 6.43998 14.9133C6.34665 15.0667 6.17998 15.1667 5.99998 15.1667Z" fill="#E28424"/>
<path d="M14.6666 6.49998C14.3933 6.49998 14.1666 6.27331 14.1666 5.99998C14.1666 4.02665 12.7933 2.37331 10.9466 1.93998L11.1266 2.23998C11.2666 2.47998 11.1933 2.78665 10.9533 2.92665C10.72 3.06665 10.4066 2.99331 10.2666 2.75331L9.56665 1.58665C9.47331 1.43331 9.47331 1.23998 9.55998 1.08665C9.65331 0.933313 9.81998 0.833313 9.99998 0.833313C12.8466 0.833313 15.1666 3.15331 15.1666 5.99998C15.1666 6.27331 14.94 6.49998 14.6666 6.49998Z" fill="#E28424"/>
<path d="M11.28 7.90002C9.41331 7.90002 7.89331 9.41336 7.89331 11.2867C7.89331 13.1534 9.40664 14.6734 11.28 14.6734C13.1466 14.6734 14.6666 13.16 14.6666 11.2867C14.6666 9.41336 13.1533 7.90002 11.28 7.90002ZM12.9333 12.8934C12.6866 13.0134 12.3866 12.92 12.26 12.6667L12.1466 12.44H10.42L10.3066 12.6667C10.22 12.84 10.04 12.94 9.85998 12.94C9.78664 12.94 9.70664 12.92 9.63998 12.8867C9.39331 12.76 9.29331 12.46 9.41331 12.2134L10.84 9.36669C10.9266 9.20002 11.1 9.09336 11.2866 9.09336C11.4733 9.09336 11.6466 9.20002 11.7333 9.37336L13.16 12.22C13.28 12.4667 13.18 12.7667 12.9333 12.8934Z" fill="#E28424"/>
<path d="M10.92 11.44H11.6467L11.28 10.7133L10.92 11.44Z" fill="#E28424"/>
</svg>
