<svg width="16" height="16" viewBox="0 0 16 16" fill="none" xmlns="http://www.w3.org/2000/svg">
<path d="M7.34001 13.3467C10.6574 13.3467 13.3467 10.6574 13.3467 7.34004C13.3467 4.02265 10.6574 1.33337 7.34001 1.33337C4.02262 1.33337 1.33334 4.02265 1.33334 7.34004C1.33334 10.6574 4.02262 13.3467 7.34001 13.3467Z" fill="white"/>
<path d="M14.66 12.6334C14.44 12.2267 13.9733 12 13.3467 12C12.8733 12 12.4667 12.1934 12.2267 12.5267C11.9867 12.86 11.9333 13.3067 12.08 13.7534C12.3667 14.62 12.8667 14.8134 13.14 14.8467C13.18 14.8534 13.22 14.8534 13.2667 14.8534C13.56 14.8534 14.0133 14.7267 14.4533 14.0667C14.8067 13.5534 14.8733 13.04 14.66 12.6334Z" fill="white"/>
</svg>
