<svg width="230" height="40" viewBox="0 0 230 40" fill="none" xmlns="http://www.w3.org/2000/svg">
<g clip-path="url(#clip0_175_1077)">
<path d="M4.83503 16.7189L4.83644 16.8758C4.84129 17.4289 4.417 17.8914 3.86545 17.9342L2.16895 18.0655C1.56128 18.1125 1.04087 17.6351 1.03553 17.0256L1.03208 16.6358C1.02674 16.0264 1.53871 15.5398 2.14708 15.5762L3.84562 15.6777C4.39781 15.7107 4.83018 16.1656 4.83503 16.7189Z" fill="#DD636E"/>
<path d="M5.54473 20.264L5.62433 20.3992C5.9051 20.8758 5.7689 21.4885 5.31262 21.8012L3.90905 22.7633C3.4063 23.1079 2.71692 22.9546 2.40753 22.4294L2.20967 22.0936C1.90028 21.5685 2.1004 20.8911 2.64548 20.6185L4.16725 19.8571C4.66206 19.6096 5.26396 19.7874 5.54473 20.264Z" fill="#DD636E"/>
<path d="M8.21075 22.688L8.3473 22.7652C8.82882 23.0376 9.0172 23.6363 8.77841 24.1353L8.04389 25.6702C7.78077 26.22 7.10708 26.4319 6.57662 26.1319L6.23741 25.94C5.70695 25.6399 5.54157 24.9533 5.87726 24.4446L6.81449 23.0244C7.1191 22.5625 7.72923 22.4156 8.21075 22.688Z" fill="#DD636E"/>
<path d="M31.4873 25.0229C36.2102 20.3001 36.1265 12.5631 31.2366 7.94703C26.6503 3.61742 19.412 3.64062 14.852 7.99808C11.3453 11.349 10.347 16.3164 11.8563 20.5881C12.6972 22.9681 12.0688 25.6209 10.284 27.4057L6.94343 30.7463C6.40439 31.2853 6.36445 32.1635 6.88401 32.7214C7.42945 33.307 8.34671 33.3193 8.90776 32.7582L12.2653 29.4006C14.0508 27.6152 16.7053 26.9781 19.0858 27.8201C23.2774 29.3028 28.1395 28.3707 31.4873 25.0229ZM16.6432 23.0347C13.0988 19.4903 13.0988 13.7232 16.6432 10.1788C20.1876 6.63438 25.9548 6.63438 29.4992 10.1788C33.0436 13.7232 33.0436 19.4903 29.4992 23.0347C25.9548 26.5791 20.1876 26.5791 16.6432 23.0347Z" fill="#E49542"/>
<path d="M7.83601 31.6389L11.1766 28.2983C12.9614 26.5135 13.5898 23.8606 12.7489 21.4807C11.2396 17.2089 12.2379 12.2416 15.7446 8.89066C20.2355 4.59916 27.3243 4.51183 31.9191 8.6461C31.7029 8.40619 31.4757 8.17274 31.2366 7.94703C26.6503 3.61742 19.412 3.64062 14.852 7.99808C11.3453 11.349 10.347 16.3164 11.8563 20.5881C12.6972 22.9681 12.0688 25.6209 10.284 27.4057L6.94343 30.7463C6.40439 31.2853 6.36445 32.1635 6.88401 32.7214C7.05312 32.903 7.25809 33.0292 7.47705 33.1006C7.31715 32.6031 7.44358 32.0313 7.83601 31.6389Z" fill="#E28424"/>
<path d="M17.1053 23.4652C17.2426 23.6228 17.3858 23.7772 17.5358 23.9272C21.0802 27.4716 26.8474 27.4716 30.3918 23.9272C33.9362 20.3828 33.9362 14.6157 30.3918 11.0713C30.2417 10.9212 30.0874 10.7781 29.9297 10.6407C33.0367 14.2077 32.8935 19.6403 29.4992 23.0346C26.1048 26.429 20.6723 26.5722 17.1053 23.4652Z" fill="#E28424"/>
<path d="M3.9745 37.0811L2.59681 35.7035C2.07352 35.1802 2.07352 34.3317 2.59681 33.8085L7.01579 29.3895C7.53908 28.8662 8.38751 28.8662 8.91079 29.3895L10.2885 30.7672C10.8118 31.2905 10.8118 32.1389 10.2885 32.6622L5.86951 37.0811C5.34622 37.6044 4.49779 37.6044 3.9745 37.0811Z" fill="#FFD064"/>
<path d="M3.6876 36.7944L2.59659 35.7034C2.07372 35.1805 2.07372 34.3315 2.59708 33.8082L7.01578 29.3895C7.53913 28.8661 8.38763 28.8666 8.9105 29.3895L10.0015 30.4805C9.47816 29.9571 8.63015 29.9571 8.10679 30.4805L3.68809 34.8992C3.16474 35.4225 3.16417 36.271 3.6876 36.7944Z" fill="#FFC250"/>
<path d="M13.8407 10.7411L11.4801 3.90344C11.0102 2.54227 9.29551 2.07109 8.22671 3.0361C8.20857 3.05248 8.19071 3.06915 8.17306 3.08623C7.30642 3.92439 7.2977 5.30659 8.14683 6.15579C7.30635 5.31531 5.94363 5.31531 5.10308 6.15579C4.26253 6.99627 4.2626 8.35898 5.10308 9.19954C4.25388 8.35027 2.87169 8.35906 2.03353 9.22569C2.01644 9.24334 1.99971 9.26127 1.9834 9.27934C1.01838 10.3481 1.48957 12.0629 2.85074 12.5328L9.68836 14.8933L13.2112 14.2639L13.8407 10.7411Z" fill="#FFD064"/>
<path d="M4.52299 10.8605C3.61163 10.3676 2.98034 9.38585 2.99321 8.65063C2.64029 8.75048 2.30763 8.94223 2.03347 9.2256C2.01631 9.24339 1.99979 9.26111 1.98326 9.27954C1.01861 10.3483 1.48979 12.0632 2.85082 12.5328L9.68844 14.8937L13.2112 14.2639L10.4932 14.0889L4.52299 10.8605Z" fill="#FFC250"/>
<path d="M14.6578 15.7105C13.5112 16.8572 11.6521 16.8572 10.5055 15.7105L9.68829 14.8933L13.8406 10.741L14.6578 11.5582C15.8045 12.7049 15.8045 14.5639 14.6578 15.7105Z" fill="#DDEAFB"/>
<path d="M15.118 15.1148C13.9935 15.7725 12.5256 15.6194 11.5613 14.655L10.744 13.8378L9.68842 14.8933L10.5057 15.7106C11.6523 16.8572 13.5114 16.8569 14.658 15.7103C14.8402 15.5281 14.9937 15.3275 15.118 15.1148Z" fill="#CBE2FF"/>
<path d="M2.2096 18.5912L3.9061 18.4599C4.73076 18.396 5.37098 17.6981 5.36367 16.8711L5.36226 16.7143C5.35495 15.8872 4.70256 15.2007 3.87692 15.1513L2.17831 15.0498C1.74319 15.0238 1.31202 15.1811 0.99588 15.4816C0.679741 15.782 0.500718 16.2044 0.504515 16.6404L0.50796 17.0302C0.511757 17.4663 0.698304 17.8855 1.01958 18.1803C1.31117 18.4478 1.69517 18.5959 2.08872 18.5959C2.12901 18.5958 2.16938 18.5943 2.2096 18.5912ZM1.73286 17.4031C1.6245 17.3037 1.56417 17.168 1.56283 17.0209L1.55939 16.6312C1.55812 16.4841 1.61613 16.3474 1.72266 16.2461C1.82138 16.1523 1.9483 16.1016 2.08317 16.1016C2.09393 16.1016 2.10476 16.102 2.11558 16.1026L3.8142 16.2041C4.0885 16.2205 4.30528 16.4487 4.30774 16.7235L4.30915 16.8803C4.31154 17.1552 4.09876 17.3871 3.82474 17.4082L2.12824 17.5396C1.98163 17.5507 1.84121 17.5024 1.73286 17.4031Z" fill="black"/>
<path d="M1.95324 22.6971C2.17452 23.0729 2.54564 23.3426 2.97133 23.4373C3.08405 23.4623 3.19838 23.4747 3.31244 23.4747C3.62914 23.4747 3.94274 23.3795 4.20727 23.1983L5.61084 22.2362C6.29304 21.7686 6.49857 20.8441 6.07879 20.1314L5.99919 19.9963C5.57934 19.2837 4.67114 19.0154 3.93142 19.3854L2.40965 20.1468C2.01968 20.3419 1.72513 20.6937 1.60152 21.1119C1.47797 21.5302 1.53409 21.9855 1.75544 22.3612L1.95324 22.6971ZM2.61301 21.4108C2.6547 21.2698 2.75005 21.1559 2.88154 21.0901L4.40331 20.3287C4.47799 20.2913 4.55779 20.2736 4.63676 20.2736C4.81747 20.2736 4.99326 20.3669 5.09043 20.5317L5.17003 20.6668C5.30954 20.9036 5.24126 21.2108 5.01456 21.3661L3.61092 22.3282C3.48963 22.4114 3.3438 22.4396 3.20021 22.4077C3.0567 22.3758 2.93653 22.2884 2.86192 22.1617L2.66413 21.8259C2.58952 21.6992 2.57131 21.5518 2.61301 21.4108Z" fill="black"/>
<path d="M5.21974 25.3939C5.32184 25.8179 5.59811 26.1842 5.97767 26.399L6.31687 26.5908C6.55587 26.7261 6.82525 26.7952 7.0959 26.7952C7.25509 26.7952 7.41464 26.7713 7.56877 26.7228C7.98476 26.5919 8.33134 26.2912 8.51958 25.8978L9.25409 24.3629C9.61108 23.6169 9.32687 22.7134 8.60691 22.3062L8.47043 22.229C7.75046 21.8217 6.82975 22.0435 6.37425 22.7338L5.43701 24.1541C5.19682 24.518 5.11764 24.9699 5.21974 25.3939ZM6.31736 24.735L7.2546 23.3148C7.35473 23.163 7.52264 23.0794 7.694 23.0794C7.78161 23.0794 7.87021 23.1012 7.95115 23.147L8.08763 23.2242C8.32684 23.3596 8.42135 23.6597 8.30272 23.9077L7.56821 25.4426C7.50471 25.5752 7.39249 25.6726 7.25221 25.7167C7.112 25.7608 6.9642 25.7452 6.83622 25.6728L6.49702 25.4809C6.36905 25.4085 6.27961 25.2899 6.24515 25.1469C6.2107 25.004 6.23636 24.8577 6.31736 24.735Z" fill="black"/>
<path d="M35.4941 16.4273C35.4455 13.037 34.0621 9.88898 31.5989 7.56322C29.2819 5.37627 26.2415 4.17507 23.0328 4.18738C19.826 4.19736 16.7913 5.41501 14.4876 7.6161C14.1869 7.90348 13.9014 8.20605 13.6321 8.52022L11.9788 3.73138C11.6963 2.91396 11.0264 2.29694 10.1868 2.08079C9.36398 1.869 8.49917 2.07974 7.8735 2.64444C7.87202 2.64578 7.86794 2.64951 7.86647 2.65091C7.84509 2.67067 7.82456 2.6898 7.80396 2.71026C7.28489 3.21358 6.99561 3.88832 6.98935 4.61075C6.98816 4.75131 6.99765 4.89025 7.01748 5.02659C6.88866 5.00782 6.75759 4.99826 6.62505 4.99826C5.90931 4.99826 5.23653 5.27692 4.73068 5.78277C4.22426 6.28876 3.94539 6.96168 3.94539 7.67756C3.94539 7.8101 3.95495 7.94117 3.97373 8.06999C3.83746 8.05016 3.69901 8.04053 3.55823 8.04179C2.8342 8.04791 2.15804 8.33824 1.65325 8.8604C1.6337 8.88073 1.61415 8.90189 1.59221 8.92573C1.02709 9.55132 0.816211 10.4163 1.02807 11.2395C1.24422 12.0793 1.86117 12.7491 2.67845 13.0312L4.63814 13.7077C4.91336 13.8027 5.21367 13.6566 5.30874 13.3813C5.40381 13.106 5.25762 12.8057 4.98234 12.7107L3.02264 12.0342C2.54098 11.8679 2.17724 11.4726 2.04962 10.9766C1.92438 10.49 2.04301 10.0002 2.37173 9.63627C2.38537 9.62143 2.39958 9.60603 2.41272 9.59232C2.71825 9.27625 3.12826 9.10018 3.56723 9.09645C4.00572 9.09385 4.41981 9.26184 4.73061 9.57263C4.93656 9.77858 5.27049 9.77858 5.47637 9.57263C5.68233 9.36668 5.68233 9.03282 5.47637 8.82686C5.16923 8.51973 5.00012 8.11154 5.00012 7.67756C5.00012 7.24364 5.16916 6.83567 5.47637 6.52874C5.78316 6.22196 6.19113 6.05299 6.62512 6.05299C7.0591 6.05299 7.46707 6.22196 7.77386 6.52874C7.97975 6.7347 8.3136 6.7347 8.51956 6.52881C8.72551 6.32293 8.72565 5.98907 8.51977 5.78305C8.20919 5.47225 8.04022 5.05915 8.04401 4.61989C8.04781 4.18112 8.22395 3.77118 8.53995 3.46573C8.54206 3.46362 8.54424 3.46158 8.54628 3.45947C8.55802 3.44773 8.5699 3.43697 8.58017 3.42741C8.94778 3.09559 9.43753 2.97704 9.92383 3.10227C10.4198 3.22989 10.8153 3.59384 10.9818 4.07572L13.2346 10.6014L9.54884 14.2871L6.95525 13.392C6.67996 13.2972 6.37972 13.4432 6.28465 13.7185C6.18965 13.9939 6.33584 14.294 6.61112 14.3891L9.40096 15.3519L10.1326 16.0836C10.2935 16.2445 10.4667 16.3856 10.6488 16.5082C10.6365 17.9632 10.875 19.3933 11.3591 20.7638C12.1236 22.9277 11.5551 25.3886 9.91047 27.033L8.41711 28.5264C7.80171 28.3732 7.12302 28.5364 6.64277 29.0166L2.22379 33.4356C1.49574 34.1637 1.49574 35.3483 2.22379 36.0764L3.60148 37.4541C3.9655 37.8182 4.44372 38.0002 4.92186 38.0002C5.40008 38.0002 5.87823 37.8182 6.24225 37.4541L10.6612 33.0352C11.1415 32.5549 11.3048 31.8761 11.1515 31.2606L12.6377 29.7737C14.2866 28.1248 16.7484 27.5531 18.9095 28.3173C21.102 29.093 23.465 29.2401 25.7429 28.7425C26.0275 28.6803 26.2077 28.3993 26.1456 28.1147C26.0835 27.8302 25.8023 27.6499 25.5178 27.712C23.4319 28.1676 21.2685 28.0331 19.2612 27.3229C16.7193 26.424 13.8266 27.0932 11.8918 29.0279L10.5936 30.3267L9.35097 29.0841L10.6562 27.7789C12.5865 25.8487 13.2526 22.9573 12.3536 20.4125C11.9624 19.3053 11.7468 18.1554 11.7092 16.9848C11.9949 17.0587 12.2881 17.0965 12.5815 17.0965C12.879 17.0965 13.1763 17.0576 13.4659 16.9816C13.5609 19.3902 14.5595 21.697 16.2705 23.4081C18.1453 25.2829 20.6081 26.2203 23.071 26.2203C25.5339 26.2203 27.997 25.2829 29.8721 23.4081C33.6219 19.6575 33.6219 13.5556 29.8721 9.80573C26.1217 6.05615 20.0201 6.05615 16.2705 9.8058C15.8286 10.2477 15.4331 10.7302 15.087 11.2448C15.0681 11.225 15.05 11.2049 15.0306 11.1855L14.2996 10.4545L14.037 9.69399C14.3925 9.22942 14.788 8.78777 15.2161 8.37874C17.3234 6.36526 20.1005 5.25139 23.0358 5.24218C25.9702 5.23135 28.7552 6.32975 30.8746 8.33023C33.1288 10.4586 34.3948 13.3396 34.4393 16.4425C34.4838 19.5468 33.3031 22.4617 31.1147 24.65C30.0415 25.7233 28.7908 26.5566 27.3974 27.1267C27.1279 27.2369 26.9988 27.5449 27.109 27.8145C27.1925 28.0187 27.3895 28.1423 27.5973 28.1423C27.6638 28.1423 27.7314 28.1297 27.7968 28.1029C29.3204 27.4795 30.6877 26.5687 31.8604 25.3959C34.2524 23.0041 35.5427 19.819 35.4941 16.4273ZM10.1536 31.7146C10.1536 31.9316 10.0691 32.1357 9.9156 32.2892L5.49662 36.7082C5.17985 37.0249 4.6643 37.025 4.34746 36.7082L2.96976 35.3305C2.65292 35.0136 2.65292 34.4981 2.96976 34.1812L7.38874 29.7623C7.54224 29.6088 7.7463 29.5242 7.96336 29.5242C8.18036 29.5242 8.38448 29.6088 8.53791 29.7623L9.9156 31.1399C10.0691 31.2934 10.1536 31.4976 10.1536 31.7146ZM10.8784 15.3377L10.4342 14.8934L13.8407 11.4869L14.2849 11.9312C15.2241 12.8704 15.2241 14.3985 14.2849 15.3377C13.3457 16.2768 11.8176 16.2768 10.8784 15.3377ZM15.0308 16.0834C15.0878 16.0264 15.1415 15.9674 15.1937 15.9075L15.8967 16.6105L14.6117 17.8955C14.542 17.439 14.5088 16.9752 14.514 16.5084C14.6962 16.3859 14.8697 16.2445 15.0308 16.0834ZM14.888 19.1109L16.6425 17.3564L19.1105 19.8244L16.6567 22.2782C15.8437 21.3572 15.2433 20.274 14.888 19.1109ZM23.0702 10.9287L25.5383 13.3966L23.0702 15.8647L20.6022 13.3967L23.0702 10.9287ZM19.8564 12.6509L17.3983 10.1928C18.3395 9.35929 19.4215 8.76871 20.5625 8.42107L22.3244 10.1828L19.8564 12.6509ZM23.816 10.1828L25.5782 8.42058C26.7195 8.76794 27.8017 9.35831 28.7431 10.1916L26.2841 12.6507L23.816 10.1828ZM23.0707 22.2931L20.602 19.8244L23.0701 17.3563L25.5388 19.825L23.0707 22.2931ZM26.2846 20.5707L28.7392 23.0253C27.7971 23.8582 26.7141 24.448 25.5724 24.7947L23.8166 23.0388L26.2846 20.5707ZM22.325 23.0388L20.5693 24.7945C19.4274 24.4477 18.3444 23.8575 17.4022 23.0241L19.8562 20.5701L22.325 23.0388ZM23.8159 16.6104L26.2841 14.1423L28.7528 16.6109L26.2846 19.0791L23.8159 16.6104ZM22.3243 16.6104L19.8562 19.0785L17.3882 16.6105L19.8563 14.1424L22.3243 16.6104ZM21.7861 25.0693L23.0707 23.7847L24.3555 25.0694C23.5042 25.1974 22.6374 25.1974 21.7861 25.0693ZM29.4853 22.2798L27.0304 19.825L29.4987 17.3567L31.257 19.1149C30.9094 20.2562 30.3188 21.3384 29.4853 22.2798ZM31.5326 17.8989L30.2445 16.6109L31.5338 15.3216C31.6623 16.1755 31.6619 17.0451 31.5326 17.8989ZM31.259 14.1047L29.4987 15.8651L27.0299 13.3965L29.4888 10.9375C30.3222 11.8798 30.9122 12.9628 31.259 14.1047ZM24.3621 8.14515L23.0702 9.43706L21.7785 8.14544C22.6344 8.01577 23.5062 8.0157 24.3621 8.14515ZM16.653 10.9391L19.1106 13.3967L16.6425 15.8647L15.7679 14.9902C16.1463 14.0978 16.1344 13.0782 15.7313 12.1941C15.9987 11.7496 16.3076 11.3298 16.653 10.9391Z" fill="black"/>
</g>
<path d="M44 10.2143H45.9286V12.1429H44V10.2143ZM45.9286 10.2143H47.8571V12.1429H45.9286V10.2143ZM47.8571 10.2143H49.7857V12.1429H47.8571V10.2143ZM49.7857 10.2143H51.7143V12.1429H49.7857V10.2143ZM51.7143 10.2143H53.6429V12.1429H51.7143V10.2143ZM53.6429 10.2143H55.5714V12.1429H53.6429V10.2143ZM53.6429 12.1429H55.5714V14.0714H53.6429V12.1429ZM51.7143 12.1429H53.6429V14.0714H51.7143V12.1429ZM49.7857 12.1429H51.7143V14.0714H49.7857V12.1429ZM47.8571 12.1429H49.7857V14.0714H47.8571V12.1429ZM45.9286 12.1429H47.8571V14.0714H45.9286V12.1429ZM44 12.1429H45.9286V14.0714H44V12.1429ZM55.5714 12.1429H57.5V14.0714H55.5714V12.1429ZM55.5714 14.0714H57.5V16H55.5714V14.0714ZM55.5714 16H57.5V17.9286H55.5714V16ZM53.6429 16H55.5714V17.9286H53.6429V16ZM53.6429 14.0714H55.5714V16H53.6429V14.0714ZM53.6429 17.9286H55.5714V19.8571H53.6429V17.9286ZM51.7143 17.9286H53.6429V19.8571H51.7143V17.9286ZM49.7857 17.9286H51.7143V19.8571H49.7857V17.9286ZM47.8571 17.9286H49.7857V19.8571H47.8571V17.9286ZM45.9286 17.9286H47.8571V19.8571H45.9286V17.9286ZM45.9286 16H47.8571V17.9286H45.9286V16ZM45.9286 14.0714H47.8571V16H45.9286V14.0714ZM44 14.0714H45.9286V16H44V14.0714ZM44 16H45.9286V17.9286H44V16ZM44 17.9286H45.9286V19.8571H44V17.9286ZM44 19.8571H45.9286V21.7857H44V19.8571ZM45.9286 19.8571H47.8571V21.7857H45.9286V19.8571ZM47.8571 19.8571H49.7857V21.7857H47.8571V19.8571ZM49.7857 19.8571H51.7143V21.7857H49.7857V19.8571ZM51.7143 19.8571H53.6429V21.7857H51.7143V19.8571ZM53.6429 19.8571H55.5714V21.7857H53.6429V19.8571ZM55.5714 19.8571H57.5V21.7857H55.5714V19.8571ZM55.5714 21.7857H57.5V23.7143H55.5714V21.7857ZM53.6429 21.7857H55.5714V23.7143H53.6429V21.7857ZM53.6429 25.6429H55.5714V27.5714H53.6429V25.6429ZM55.5714 25.6429H57.5V27.5714H55.5714V25.6429ZM55.5714 23.7143H57.5V25.6429H55.5714V23.7143ZM53.6429 23.7143H55.5714V25.6429H53.6429V23.7143ZM53.6429 27.5714H55.5714V29.5H53.6429V27.5714ZM51.7143 27.5714H53.6429V29.5H51.7143V27.5714ZM49.7857 27.5714H51.7143V29.5H49.7857V27.5714ZM47.8571 27.5714H49.7857V29.5H47.8571V27.5714ZM45.9286 27.5714H47.8571V29.5H45.9286V27.5714ZM44 27.5714H45.9286V29.5H44V27.5714ZM44 25.6429H45.9286V27.5714H44V25.6429ZM44 23.7143H45.9286V25.6429H44V23.7143ZM44 21.7857H45.9286V23.7143H44V21.7857ZM45.9286 21.7857H47.8571V23.7143H45.9286V21.7857ZM45.9286 23.7143H47.8571V25.6429H45.9286V23.7143ZM45.9286 25.6429H47.8571V27.5714H45.9286V25.6429ZM47.8571 25.6429H49.7857V27.5714H47.8571V25.6429ZM49.7857 25.6429H51.7143V27.5714H49.7857V25.6429ZM51.7143 25.6429H53.6429V27.5714H51.7143V25.6429ZM71.005 29.5H69.0765V27.5714H71.005V29.5ZM71.005 27.5714H69.0765V25.6429H71.005V27.5714ZM69.0765 27.5714H67.1479V25.6429H69.0765V27.5714ZM67.1479 29.5H65.2193V27.5714H67.1479V29.5ZM65.2193 29.5H63.2907V27.5714H65.2193V29.5ZM63.2907 29.5H61.3622V27.5714H63.2907V29.5ZM63.2907 27.5714H61.3622V25.6429H63.2907V27.5714ZM65.2193 27.5714H63.2907V25.6429H65.2193V27.5714ZM61.3622 27.5714H59.4336V25.6429H61.3622V27.5714ZM61.3622 25.6429H59.4336V23.7143H61.3622V25.6429ZM61.3622 17.9286H59.4336V16H61.3622V17.9286ZM63.2907 17.9286H61.3622V16H63.2907V17.9286ZM63.2907 25.6429H61.3622V23.7143H63.2907V25.6429ZM65.2193 17.9286H63.2907V16H65.2193V17.9286ZM63.2907 16H61.3622V14.0714H63.2907V16ZM65.2193 16H63.2907V14.0714H65.2193V16ZM67.1479 16H65.2193V14.0714H67.1479V16ZM69.0765 16H67.1479V14.0714H69.0765V16ZM71.005 16H69.0765V14.0714H71.005V16ZM71.005 17.9286H69.0765V16H71.005V17.9286ZM69.0765 17.9286H67.1479V16H69.0765V17.9286ZM71.005 19.8571H69.0765V17.9286H71.005V19.8571ZM72.9336 17.9286H71.005V16H72.9336V17.9286ZM72.9336 19.8571H71.005V17.9286H72.9336V19.8571ZM72.9336 21.7857H71.005V19.8571H72.9336V21.7857ZM72.9336 23.7143H71.005V21.7857H72.9336V23.7143ZM72.9336 25.6429H71.005V23.7143H72.9336V25.6429ZM72.9336 27.5714H71.005V25.6429H72.9336V27.5714ZM71.005 25.6429H69.0765V23.7143H71.005V25.6429ZM71.005 23.7143H69.0765V21.7857H71.005V23.7143ZM71.005 21.7857H69.0765V19.8571H71.005V21.7857ZM67.1479 17.9286H65.2193V16H67.1479V17.9286ZM67.1479 27.5714H65.2193V25.6429H67.1479V27.5714ZM71.005 27.5714H72.9336V29.5H71.005V27.5714ZM67.1479 19.8571H69.0765V21.7857H67.1479V19.8571ZM65.2193 19.8571H67.1479V21.7857H65.2193V19.8571ZM63.2907 19.8571H65.2193V21.7857H63.2907V19.8571ZM61.3622 19.8571H63.2907V21.7857H61.3622V19.8571ZM59.4336 21.7857H61.3622V23.7143H59.4336V21.7857ZM61.3622 21.7857H63.2907V23.7143H61.3622V21.7857ZM67.1479 21.7857H69.0765V23.7143H67.1479V21.7857ZM65.2193 21.7857H67.1479V23.7143H65.2193V21.7857ZM63.2907 21.7857H65.2193V23.7143H63.2907V21.7857ZM88.3672 16V17.9286H86.4386V16H88.3672ZM88.3672 14.0714V16H86.4386V14.0714H88.3672ZM86.4386 14.0714V16H84.51V14.0714H86.4386ZM86.4386 16V17.9286H84.51V16H86.4386ZM86.4386 17.9286V19.8571H84.51V17.9286H86.4386ZM86.4386 19.8571V21.7857H84.51V19.8571H86.4386ZM86.4386 21.7857V23.7143H84.51V21.7857H86.4386ZM88.3672 21.7857V23.7143H86.4386V21.7857H88.3672ZM88.3672 19.8571V21.7857H86.4386V19.8571H88.3672ZM88.3672 17.9286V19.8571H86.4386V17.9286H88.3672ZM88.3672 23.7143V25.6429H86.4386V23.7143H88.3672ZM86.4386 23.7143V25.6429H84.51V23.7143H86.4386ZM86.4386 25.6429V27.5714H84.51V25.6429H86.4386ZM86.4386 27.5714V29.5H84.51V27.5714H86.4386ZM88.3672 27.5714V29.5H86.4386V27.5714H88.3672ZM88.3672 25.6429V27.5714H86.4386V25.6429H88.3672ZM78.7243 27.5714V29.5H76.7958V27.5714H78.7243ZM76.7958 25.6429V27.5714H74.8672V25.6429H76.7958ZM76.7958 23.7143V25.6429H74.8672V23.7143H76.7958ZM76.7958 21.7857V23.7143H74.8672V21.7857H76.7958ZM76.7958 19.8571V21.7857H74.8672V19.8571H76.7958ZM76.7958 17.9286V19.8571H74.8672V17.9286H76.7958ZM76.7958 16V17.9286H74.8672V16H76.7958ZM78.7243 19.8571V21.7857H76.7958V19.8571H78.7243ZM78.7243 21.7857V23.7143H76.7958V21.7857H78.7243ZM78.7243 23.7143V25.6429H76.7958V23.7143H78.7243ZM78.7243 25.6429V27.5714H76.7958V25.6429H78.7243ZM78.7243 17.9286V19.8571H76.7958V17.9286H78.7243ZM80.6529 16V17.9286H78.7243V16H80.6529ZM80.6529 14.0714V16H78.7243V14.0714H80.6529ZM78.7243 14.0714V16H76.7958V14.0714H78.7243ZM78.7243 16V17.9286H76.7958V16H78.7243ZM82.5815 14.0714V16H80.6529V14.0714H82.5815ZM88.3672 10.2143V12.1429H86.4386V10.2143H88.3672ZM86.4386 10.2143V12.1429H84.51V10.2143H86.4386ZM86.4386 12.1429V14.0714H84.51V12.1429H86.4386ZM88.3672 12.1429V14.0714H86.4386V12.1429H88.3672ZM82.5815 27.5714V29.5H80.6529V27.5714H82.5815ZM80.6529 27.5714V29.5H78.7243V27.5714H80.6529ZM80.6529 25.6429V27.5714H78.7243V25.6429H80.6529ZM82.5815 25.6429V27.5714H80.6529V25.6429H82.5815ZM84.51 25.6429V27.5714H82.5815V25.6429H84.51ZM84.51 14.0714V16H82.5815V14.0714H84.51ZM84.51 16V17.9286H82.5815V16H84.51ZM82.5815 16V17.9286H80.6529V16H82.5815ZM90.3008 16H92.2294V17.9286H90.3008V16ZM90.3008 14.0714H92.2294V16H90.3008V14.0714ZM92.2294 14.0714H94.1579V16H92.2294V14.0714ZM92.2294 16H94.1579V17.9286H92.2294V16ZM92.2294 17.9286H94.1579V19.8571H92.2294V17.9286ZM92.2294 19.8571H94.1579V21.7857H92.2294V19.8571ZM92.2294 21.7857H94.1579V23.7143H92.2294V21.7857ZM90.3008 21.7857H92.2294V23.7143H90.3008V21.7857ZM90.3008 19.8571H92.2294V21.7857H90.3008V19.8571ZM90.3008 17.9286H92.2294V19.8571H90.3008V17.9286ZM90.3008 23.7143H92.2294V25.6429H90.3008V23.7143ZM92.2294 23.7143H94.1579V25.6429H92.2294V23.7143ZM92.2294 25.6429H94.1579V27.5714H92.2294V25.6429ZM92.2294 27.5714H94.1579V29.5H92.2294V27.5714ZM90.3008 27.5714H92.2294V29.5H90.3008V27.5714ZM90.3008 25.6429H92.2294V27.5714H90.3008V25.6429ZM98.0151 27.5714H99.9436V29.5H98.0151V27.5714ZM99.9436 27.5714H101.872V29.5H99.9436V27.5714ZM99.9436 25.6429H101.872V27.5714H99.9436V25.6429ZM99.9436 23.7143H101.872V25.6429H99.9436V23.7143ZM99.9436 21.7857H101.872V23.7143H99.9436V21.7857ZM99.9436 19.8571H101.872V21.7857H99.9436V19.8571ZM99.9436 17.9286H101.872V19.8571H99.9436V17.9286ZM99.9436 16H101.872V17.9286H99.9436V16ZM98.0151 19.8571H99.9436V21.7857H98.0151V19.8571ZM98.0151 21.7857H99.9436V23.7143H98.0151V21.7857ZM98.0151 23.7143H99.9436V25.6429H98.0151V23.7143ZM98.0151 25.6429H99.9436V27.5714H98.0151V25.6429ZM98.0151 17.9286H99.9436V19.8571H98.0151V17.9286ZM94.1579 16H96.0865V17.9286H94.1579V16ZM96.0865 16H98.0151V17.9286H96.0865V16ZM98.0151 14.0714H99.9436V16H98.0151V14.0714ZM98.0151 16H99.9436V17.9286H98.0151V16ZM96.0865 14.0714H98.0151V16H96.0865V14.0714ZM105.729 27.5714H107.658V29.5H105.729V27.5714ZM107.658 27.5714H109.586V29.5H107.658V27.5714ZM107.658 25.6429H109.586V27.5714H107.658V25.6429ZM107.658 23.7143H109.586V25.6429H107.658V23.7143ZM107.658 21.7857H109.586V23.7143H107.658V21.7857ZM107.658 19.8571H109.586V21.7857H107.658V19.8571ZM107.658 17.9286H109.586V19.8571H107.658V17.9286ZM107.658 16H109.586V17.9286H107.658V16ZM105.729 19.8571H107.658V21.7857H105.729V19.8571ZM105.729 21.7857H107.658V23.7143H105.729V21.7857ZM105.729 23.7143H107.658V25.6429H105.729V23.7143ZM105.729 25.6429H107.658V27.5714H105.729V25.6429ZM105.729 17.9286H107.658V19.8571H105.729V17.9286ZM101.872 16H103.801V17.9286H101.872V16ZM103.801 16H105.729V17.9286H103.801V16ZM105.729 14.0714H107.658V16H105.729V14.0714ZM105.729 16H107.658V17.9286H105.729V16ZM103.801 14.0714H105.729V16H103.801V14.0714ZM111.5 10.2143H115.357V14.0714H111.5V10.2143ZM111.5 16H115.357V29.5H111.5V16ZM117.301 16H119.229V17.9286H117.301V16ZM117.301 14.0714H119.229V16H117.301V14.0714ZM119.229 14.0714H121.158V16H119.229V14.0714ZM119.229 16H121.158V17.9286H119.229V16ZM119.229 17.9286H121.158V19.8571H119.229V17.9286ZM119.229 19.8571H121.158V21.7857H119.229V19.8571ZM119.229 21.7857H121.158V23.7143H119.229V21.7857ZM117.301 21.7857H119.229V23.7143H117.301V21.7857ZM117.301 19.8571H119.229V21.7857H117.301V19.8571ZM117.301 17.9286H119.229V19.8571H117.301V17.9286ZM117.301 23.7143H119.229V25.6429H117.301V23.7143ZM119.229 23.7143H121.158V25.6429H119.229V23.7143ZM119.229 25.6429H121.158V27.5714H119.229V25.6429ZM119.229 27.5714H121.158V29.5H119.229V27.5714ZM117.301 27.5714H119.229V29.5H117.301V27.5714ZM117.301 25.6429H119.229V27.5714H117.301V25.6429ZM126.944 27.5714H128.872V29.5H126.944V27.5714ZM128.872 27.5714H130.801V29.5H128.872V27.5714ZM128.872 25.6429H130.801V27.5714H128.872V25.6429ZM128.872 23.7143H130.801V25.6429H128.872V23.7143ZM128.872 21.7857H130.801V23.7143H128.872V21.7857ZM128.872 19.8571H130.801V21.7857H128.872V19.8571ZM128.872 17.9286H130.801V19.8571H128.872V17.9286ZM128.872 16H130.801V17.9286H128.872V16ZM126.944 19.8571H128.872V21.7857H126.944V19.8571ZM126.944 21.7857H128.872V23.7143H126.944V21.7857ZM126.944 23.7143H128.872V25.6429H126.944V23.7143ZM126.944 25.6429H128.872V27.5714H126.944V25.6429ZM126.944 17.9286H128.872V19.8571H126.944V17.9286ZM121.158 16H123.086V17.9286H121.158V16ZM123.086 16H125.015V17.9286H123.086V16ZM125.015 16H126.944V17.9286H125.015V16ZM125.015 14.0714H126.944V16H125.015V14.0714ZM126.944 14.0714H128.872V16H126.944V14.0714ZM126.944 16H128.872V17.9286H126.944V16ZM123.086 14.0714H125.015V16H123.086V14.0714ZM140.449 25.6429H142.377V27.5714H140.449V25.6429ZM140.449 27.5714H142.377V29.5H140.449V27.5714ZM138.52 27.5714H140.449V29.5H138.52V27.5714ZM138.52 25.6429H140.449V27.5714H138.52V25.6429ZM136.592 27.5714H138.52V29.5H136.592V27.5714ZM136.592 25.6429H138.52V27.5714H136.592V25.6429ZM134.663 25.6429H136.592V27.5714H134.663V25.6429ZM134.663 23.7143H136.592V25.6429H134.663V23.7143ZM134.663 21.7857H136.592V23.7143H134.663V21.7857ZM134.663 19.8571H136.592V21.7857H134.663V19.8571ZM134.663 17.9286H136.592V19.8571H134.663V17.9286ZM134.663 16H136.592V17.9286H134.663V16ZM136.592 21.7857H138.52V23.7143H136.592V21.7857ZM136.592 23.7143H138.52V25.6429H136.592V23.7143ZM136.592 19.8571H138.52V21.7857H136.592V19.8571ZM136.592 17.9286H138.52V19.8571H136.592V17.9286ZM136.592 10.2143H138.52V12.1429H136.592V10.2143ZM136.592 12.1429H138.52V14.0714H136.592V12.1429ZM136.592 14.0714H138.52V16H136.592V14.0714ZM136.592 16H138.52V17.9286H136.592V16ZM134.663 14.0714H136.592V16H134.663V14.0714ZM132.734 16H134.663V17.9286H132.734V16ZM138.52 16H140.449V17.9286H138.52V16ZM140.449 16H142.377V17.9286H140.449V16ZM134.663 12.1429H136.592V14.0714H134.663V12.1429ZM132.734 17.9286H134.663V19.8571H132.734V17.9286ZM138.52 17.9286H140.449V19.8571H138.52V17.9286ZM140.449 17.9286H142.377V19.8571H140.449V17.9286ZM148.158 14.0714H150.086V16H148.158V14.0714ZM146.229 14.0714H148.158V16H146.229V14.0714ZM146.229 16H148.158V17.9286H146.229V16ZM148.158 16H150.086V17.9286H148.158V16ZM150.086 14.0714H152.015V16H150.086V14.0714ZM152.015 14.0714H153.944V16H152.015V14.0714ZM153.944 14.0714H155.872V16H153.944V14.0714ZM153.944 16H155.872V17.9286H153.944V16ZM152.015 16H153.944V17.9286H152.015V16ZM153.944 19.8571H155.872V21.7857H153.944V19.8571ZM155.872 16H157.801V17.9286H155.872V16ZM155.872 17.9286H157.801V19.8571H155.872V17.9286ZM155.872 19.8571H157.801V21.7857H155.872V19.8571ZM155.872 21.7857H157.801V23.7143H155.872V21.7857ZM155.872 23.7143H157.801V25.6429H155.872V23.7143ZM155.872 25.6429H157.801V27.5714H155.872V25.6429ZM153.944 25.6429H155.872V27.5714H153.944V25.6429ZM153.944 23.7143H155.872V25.6429H153.944V23.7143ZM153.944 21.7857H155.872V23.7143H153.944V21.7857ZM153.944 17.9286H155.872V19.8571H153.944V17.9286ZM152.015 25.6429H153.944V27.5714H152.015V25.6429ZM153.944 27.5714H155.872V29.5H153.944V27.5714ZM152.015 27.5714H153.944V29.5H152.015V27.5714ZM150.086 27.5714H152.015V29.5H150.086V27.5714ZM148.158 27.5714H150.086V29.5H148.158V27.5714ZM146.229 27.5714H148.158V29.5H146.229V27.5714ZM146.229 25.6429H148.158V27.5714H146.229V25.6429ZM148.158 25.6429H150.086V27.5714H148.158V25.6429ZM146.229 23.7143H148.158V25.6429H146.229V23.7143ZM144.301 25.6429H146.229V27.5714H144.301V25.6429ZM144.301 23.7143H146.229V25.6429H144.301V23.7143ZM144.301 21.7857H146.229V23.7143H144.301V21.7857ZM144.301 19.8571H146.229V21.7857H144.301V19.8571ZM144.301 17.9286H146.229V19.8571H144.301V17.9286ZM144.301 16H146.229V17.9286H144.301V16ZM146.229 17.9286H148.158V19.8571H146.229V17.9286ZM146.229 19.8571H148.158V21.7857H146.229V19.8571ZM146.229 21.7857H148.158V23.7143H146.229V21.7857ZM150.086 25.6429H152.015V27.5714H150.086V25.6429ZM150.086 16H152.015V17.9286H150.086V16ZM159.734 16H161.663V17.9286H159.734V16ZM159.734 14.0714H161.663V16H159.734V14.0714ZM161.663 14.0714H163.592V16H161.663V14.0714ZM161.663 16H163.592V17.9286H161.663V16ZM161.663 17.9286H163.592V19.8571H161.663V17.9286ZM161.663 19.8571H163.592V21.7857H161.663V19.8571ZM161.663 21.7857H163.592V23.7143H161.663V21.7857ZM159.734 21.7857H161.663V23.7143H159.734V21.7857ZM159.734 19.8571H161.663V21.7857H159.734V19.8571ZM159.734 17.9286H161.663V19.8571H159.734V17.9286ZM159.734 23.7143H161.663V25.6429H159.734V23.7143ZM161.663 23.7143H163.592V25.6429H161.663V23.7143ZM161.663 25.6429H163.592V27.5714H161.663V25.6429ZM161.663 27.5714H163.592V29.5H161.663V27.5714ZM159.734 27.5714H161.663V29.5H159.734V27.5714ZM159.734 25.6429H161.663V27.5714H159.734V25.6429ZM169.377 27.5714H171.306V29.5H169.377V27.5714ZM171.306 27.5714H173.234V29.5H171.306V27.5714ZM171.306 25.6429H173.234V27.5714H171.306V25.6429ZM171.306 23.7143H173.234V25.6429H171.306V23.7143ZM171.306 21.7857H173.234V23.7143H171.306V21.7857ZM171.306 19.8571H173.234V21.7857H171.306V19.8571ZM171.306 17.9286H173.234V19.8571H171.306V17.9286ZM171.306 16H173.234V17.9286H171.306V16ZM169.377 19.8571H171.306V21.7857H169.377V19.8571ZM169.377 21.7857H171.306V23.7143H169.377V21.7857ZM169.377 23.7143H171.306V25.6429H169.377V23.7143ZM169.377 25.6429H171.306V27.5714H169.377V25.6429ZM169.377 17.9286H171.306V19.8571H169.377V17.9286ZM163.592 16H165.52V17.9286H163.592V16ZM165.52 16H167.449V17.9286H165.52V16ZM167.449 16H169.377V17.9286H167.449V16ZM167.449 14.0714H169.377V16H167.449V14.0714ZM169.377 14.0714H171.306V16H169.377V14.0714ZM169.377 16H171.306V17.9286H169.377V16ZM165.52 14.0714H167.449V16H165.52V14.0714ZM182.867 10.2143H184.796V12.1429H182.867V10.2143ZM184.796 10.2143H186.724V12.1429H184.796V10.2143ZM184.796 12.1429H186.724V14.0714H184.796V12.1429ZM184.796 14.0714H186.724V16H184.796V14.0714ZM184.796 16H186.724V17.9286H184.796V16ZM182.867 14.0714H184.796V16H182.867V14.0714ZM182.867 12.1429H184.796V14.0714H182.867V12.1429ZM182.867 16H184.796V17.9286H182.867V16ZM182.867 17.9286H184.796V19.8571H182.867V17.9286ZM182.867 21.7857H184.796V23.7143H182.867V21.7857ZM182.867 19.8571H184.796V21.7857H182.867V19.8571ZM184.796 17.9286H186.724V19.8571H184.796V17.9286ZM184.796 19.8571H186.724V21.7857H184.796V19.8571ZM184.796 21.7857H186.724V23.7143H184.796V21.7857ZM184.796 23.7143H186.724V25.6429H184.796V23.7143ZM182.867 23.7143H184.796V25.6429H182.867V23.7143ZM182.867 27.5714H184.796V29.5H182.867V27.5714ZM184.796 27.5714H186.724V29.5H184.796V27.5714ZM184.796 25.6429H186.724V27.5714H184.796V25.6429ZM182.867 25.6429H184.796V27.5714H182.867V25.6429ZM194.439 27.5714H196.367V29.5H194.439V27.5714ZM194.439 25.6429H196.367V27.5714H194.439V25.6429ZM194.439 23.7143H196.367V25.6429H194.439V23.7143ZM194.439 21.7857H196.367V23.7143H194.439V21.7857ZM194.439 19.8571H196.367V21.7857H194.439V19.8571ZM194.439 17.9286H196.367V19.8571H194.439V17.9286ZM194.439 10.2143H196.367V12.1429H194.439V10.2143ZM192.51 10.2143H194.439V12.1429H192.51V10.2143ZM192.51 12.1429H194.439V14.0714H192.51V12.1429ZM192.51 14.0714H194.439V16H192.51V14.0714ZM192.51 16H194.439V17.9286H192.51V16ZM194.439 16H196.367V17.9286H194.439V16ZM194.439 14.0714H196.367V16H194.439V14.0714ZM194.439 12.1429H196.367V14.0714H194.439V12.1429ZM192.51 17.9286H194.439V19.8571H192.51V17.9286ZM192.51 25.6429H194.439V27.5714H192.51V25.6429ZM192.51 23.7143H194.439V25.6429H192.51V23.7143ZM192.51 21.7857H194.439V23.7143H192.51V21.7857ZM192.51 19.8571H194.439V21.7857H192.51V19.8571ZM192.51 27.5714H194.439V29.5H192.51V27.5714ZM190.581 17.9286H192.51V19.8571H190.581V17.9286ZM188.653 17.9286H190.581V19.8571H188.653V17.9286ZM186.724 17.9286H188.653V19.8571H186.724V17.9286ZM186.724 19.8571H188.653V21.7857H186.724V19.8571ZM188.653 19.8571H190.581V21.7857H188.653V19.8571ZM190.581 19.8571H192.51V21.7857H190.581V19.8571ZM211.801 27.5714H209.872V25.6429H211.801V27.5714ZM211.801 29.5H209.872V27.5714H211.801V29.5ZM209.872 29.5H207.944V27.5714H209.872V29.5ZM209.872 27.5714H207.944V25.6429H209.872V27.5714ZM209.872 25.6429H207.944V23.7143H209.872V25.6429ZM209.872 23.7143H207.944V21.7857H209.872V23.7143ZM209.872 21.7857H207.944V19.8571H209.872V21.7857ZM211.801 21.7857H209.872V19.8571H211.801V21.7857ZM211.801 23.7143H209.872V21.7857H211.801V23.7143ZM211.801 25.6429H209.872V23.7143H211.801V25.6429ZM211.801 19.8571H209.872V17.9286H211.801V19.8571ZM209.872 19.8571H207.944V17.9286H209.872V19.8571ZM209.872 17.9286H207.944V16H209.872V17.9286ZM209.872 16H207.944V14.0714H209.872V16ZM211.801 16H209.872V14.0714H211.801V16ZM211.801 17.9286H209.872V16H211.801V17.9286ZM202.158 16H200.229V14.0714H202.158V16ZM200.229 16H198.301V14.0714H200.229V16ZM200.229 17.9286H198.301V16H200.229V17.9286ZM200.229 19.8571H198.301V17.9286H200.229V19.8571ZM200.229 21.7857H198.301V19.8571H200.229V21.7857ZM200.229 23.7143H198.301V21.7857H200.229V23.7143ZM200.229 25.6429H198.301V23.7143H200.229V25.6429ZM200.229 27.5714H198.301V25.6429H200.229V27.5714ZM202.158 23.7143H200.229V21.7857H202.158V23.7143ZM202.158 21.7857H200.229V19.8571H202.158V21.7857ZM202.158 19.8571H200.229V17.9286H202.158V19.8571ZM202.158 17.9286H200.229V16H202.158V17.9286ZM202.158 25.6429H200.229V23.7143H202.158V25.6429ZM207.944 27.5714H206.015V25.6429H207.944V27.5714ZM206.015 27.5714H204.086V25.6429H206.015V27.5714ZM204.086 27.5714H202.158V25.6429H204.086V27.5714ZM204.086 29.5H202.158V27.5714H204.086V29.5ZM202.158 29.5H200.229V27.5714H202.158V29.5ZM202.158 27.5714H200.229V25.6429H202.158V27.5714ZM206.015 29.5H204.086V27.5714H206.015V29.5ZM213.734 16H215.663V17.9286H213.734V16ZM213.734 14.0714H215.663V16H213.734V14.0714ZM215.663 14.0714H217.592V16H215.663V14.0714ZM215.663 16H217.592V17.9286H215.663V16ZM215.663 17.9286H217.592V19.8571H215.663V17.9286ZM215.663 19.8571H217.592V21.7857H215.663V19.8571ZM215.663 21.7857H217.592V23.7143H215.663V21.7857ZM213.734 21.7857H215.663V23.7143H213.734V21.7857ZM213.734 19.8571H215.663V21.7857H213.734V19.8571ZM213.734 17.9286H215.663V19.8571H213.734V17.9286ZM213.734 23.7143H215.663V25.6429H213.734V23.7143ZM215.663 23.7143H217.592V25.6429H215.663V23.7143ZM215.663 25.6429H217.592V27.5714H215.663V25.6429ZM215.663 27.5714H217.592V29.5H215.663V27.5714ZM213.734 27.5714H215.663V29.5H213.734V27.5714ZM213.734 25.6429H215.663V27.5714H213.734V25.6429ZM223.377 27.5714H225.306V29.5H223.377V27.5714ZM225.306 25.6429H227.234V27.5714H225.306V25.6429ZM225.306 23.7143H227.234V25.6429H225.306V23.7143ZM225.306 21.7857H227.234V23.7143H225.306V21.7857ZM225.306 19.8571H227.234V21.7857H225.306V19.8571ZM225.306 17.9286H227.234V19.8571H225.306V17.9286ZM225.306 16H227.234V17.9286H225.306V16ZM223.377 19.8571H225.306V21.7857H223.377V19.8571ZM223.377 21.7857H225.306V23.7143H223.377V21.7857ZM223.377 23.7143H225.306V25.6429H223.377V23.7143ZM223.377 25.6429H225.306V27.5714H223.377V25.6429ZM223.377 17.9286H225.306V19.8571H223.377V17.9286ZM217.592 16H219.52V17.9286H217.592V16ZM219.52 16H221.449V17.9286H219.52V16ZM221.449 16H223.377V17.9286H221.449V16ZM221.449 14.0714H223.377V16H221.449V14.0714ZM223.377 14.0714H225.306V16H223.377V14.0714ZM223.377 16H225.306V17.9286H223.377V16ZM219.52 14.0714H221.449V16H219.52V14.0714ZM213.734 10.2143H215.663V12.1429H213.734V10.2143ZM215.663 10.2143H217.592V12.1429H215.663V10.2143ZM215.663 12.1429H217.592V14.0714H215.663V12.1429ZM213.734 12.1429H215.663V14.0714H213.734V12.1429ZM217.592 27.5714H219.52V29.5H217.592V27.5714ZM219.52 27.5714H221.449V29.5H219.52V27.5714ZM221.449 27.5714H223.377V29.5H221.449V27.5714ZM221.449 25.6429H223.377V27.5714H221.449V25.6429ZM219.52 25.6429H221.449V27.5714H219.52V25.6429ZM217.592 25.6429H219.52V27.5714H217.592V25.6429Z" fill="#E28424"/>
<defs>
<clipPath id="clip0_175_1077">
<rect width="36" height="36" fill="white" transform="translate(0 2)"/>
</clipPath>
</defs>
</svg>
