<svg width="36" height="36" viewBox="0 0 36 36" fill="none" xmlns="http://www.w3.org/2000/svg">
<g clip-path="url(#clip0_154_1083)">
<path d="M4.83503 14.7189L4.83644 14.8758C4.84129 15.4289 4.417 15.8914 3.86545 15.9342L2.16895 16.0655C1.56128 16.1125 1.04087 15.6351 1.03553 15.0256L1.03208 14.6358C1.02674 14.0264 1.53871 13.5398 2.14708 13.5762L3.84562 13.6777C4.39781 13.7107 4.83018 14.1656 4.83503 14.7189Z" fill="#DD636E"/>
<path d="M5.54473 18.264L5.62433 18.3992C5.9051 18.8758 5.7689 19.4885 5.31262 19.8012L3.90905 20.7633C3.4063 21.1079 2.71692 20.9546 2.40753 20.4294L2.20967 20.0936C1.90028 19.5685 2.1004 18.8911 2.64548 18.6185L4.16725 17.8571C4.66206 17.6096 5.26396 17.7874 5.54473 18.264Z" fill="#DD636E"/>
<path d="M8.21075 20.688L8.3473 20.7652C8.82882 21.0376 9.0172 21.6363 8.77841 22.1353L8.04389 23.6702C7.78077 24.22 7.10708 24.4319 6.57662 24.1319L6.23741 23.94C5.70695 23.6399 5.54157 22.9533 5.87726 22.4446L6.81449 21.0244C7.1191 20.5625 7.72923 20.4156 8.21075 20.688Z" fill="#DD636E"/>
<path d="M31.4873 23.0229C36.2102 18.3001 36.1265 10.5631 31.2366 5.94703C26.6503 1.61742 19.412 1.64062 14.852 5.99808C11.3453 9.34903 10.347 14.3164 11.8563 18.5881C12.6972 20.9681 12.0688 23.6209 10.284 25.4057L6.94343 28.7463C6.40439 29.2853 6.36445 30.1635 6.88401 30.7214C7.42945 31.307 8.34671 31.3193 8.90776 30.7582L12.2653 27.4006C14.0508 25.6152 16.7053 24.9781 19.0858 25.8201C23.2774 27.3028 28.1395 26.3707 31.4873 23.0229ZM16.6432 21.0347C13.0988 17.4903 13.0988 11.7232 16.6432 8.17877C20.1876 4.63438 25.9548 4.63438 29.4992 8.17877C33.0436 11.7232 33.0436 17.4903 29.4992 21.0347C25.9548 24.5791 20.1876 24.5791 16.6432 21.0347Z" fill="#E49542"/>
<path d="M7.83601 29.6389L11.1766 26.2983C12.9614 24.5135 13.5898 21.8606 12.7489 19.4807C11.2396 15.2089 12.2379 10.2416 15.7446 6.89066C20.2355 2.59916 27.3243 2.51183 31.9191 6.6461C31.7029 6.40619 31.4757 6.17274 31.2366 5.94703C26.6503 1.61742 19.412 1.64062 14.852 5.99808C11.3453 9.34903 10.347 14.3164 11.8563 18.5881C12.6972 20.9681 12.0688 23.6209 10.284 25.4057L6.94343 28.7463C6.40439 29.2853 6.36445 30.1635 6.88401 30.7214C7.05312 30.903 7.25809 31.0292 7.47705 31.1006C7.31715 30.6031 7.44358 30.0313 7.83601 29.6389Z" fill="#E28424"/>
<path d="M17.1053 21.4652C17.2426 21.6228 17.3858 21.7772 17.5358 21.9272C21.0802 25.4716 26.8474 25.4716 30.3918 21.9272C33.9362 18.3828 33.9362 12.6157 30.3918 9.07129C30.2417 8.92124 30.0874 8.77807 29.9297 8.64075C33.0367 12.2077 32.8935 17.6403 29.4992 21.0346C26.1048 24.429 20.6723 24.5722 17.1053 21.4652Z" fill="#E28424"/>
<path d="M3.9745 35.0811L2.59681 33.7035C2.07352 33.1802 2.07352 32.3317 2.59681 31.8085L7.01579 27.3895C7.53908 26.8662 8.38751 26.8662 8.91079 27.3895L10.2885 28.7672C10.8118 29.2905 10.8118 30.1389 10.2885 30.6622L5.86951 35.0811C5.34622 35.6044 4.49779 35.6044 3.9745 35.0811Z" fill="#FFD064"/>
<path d="M3.6876 34.7944L2.59659 33.7034C2.07372 33.1805 2.07372 32.3315 2.59708 31.8082L7.01578 27.3895C7.53913 26.8661 8.38763 26.8666 8.9105 27.3895L10.0015 28.4805C9.47816 27.9571 8.63015 27.9571 8.10679 28.4805L3.68809 32.8992C3.16474 33.4225 3.16417 34.271 3.6876 34.7944Z" fill="#FFC250"/>
<path d="M13.8407 8.74106L11.4801 1.90344C11.0102 0.542273 9.29551 0.0710886 8.22671 1.0361C8.20857 1.05248 8.19071 1.06915 8.17306 1.08623C7.30642 1.92439 7.2977 3.30659 8.14683 4.15579C7.30635 3.31531 5.94363 3.31531 5.10308 4.15579C4.26253 4.99627 4.2626 6.35898 5.10308 7.19954C4.25388 6.35027 2.87169 6.35906 2.03353 7.22569C2.01644 7.24334 1.99971 7.26127 1.9834 7.27934C1.01838 8.34814 1.48957 10.0629 2.85074 10.5328L9.68836 12.8933L13.2112 12.2639L13.8407 8.74106Z" fill="#FFD064"/>
<path d="M4.52299 8.86051C3.61163 8.3676 2.98034 7.38585 2.99321 6.65063C2.64029 6.75048 2.30763 6.94223 2.03347 7.2256C2.01631 7.24339 1.99979 7.26111 1.98326 7.27954C1.01861 8.34833 1.48979 10.0632 2.85082 10.5328L9.68844 12.8937L13.2112 12.2639L10.4932 12.0889L4.52299 8.86051Z" fill="#FFC250"/>
<path d="M14.6578 13.7105C13.5112 14.8572 11.6521 14.8572 10.5055 13.7105L9.68829 12.8933L13.8406 8.74097L14.6578 9.55817C15.8045 10.7049 15.8045 12.5639 14.6578 13.7105Z" fill="#DDEAFB"/>
<path d="M15.118 13.1148C13.9935 13.7725 12.5256 13.6194 11.5613 12.655L10.744 11.8378L9.68842 12.8933L10.5057 13.7106C11.6523 14.8572 13.5114 14.8569 14.658 13.7103C14.8402 13.5281 14.9937 13.3275 15.118 13.1148Z" fill="#CBE2FF"/>
<path d="M2.2096 16.5912L3.9061 16.4599C4.73076 16.396 5.37098 15.6981 5.36367 14.8711L5.36226 14.7143C5.35495 13.8872 4.70256 13.2007 3.87692 13.1513L2.17831 13.0498C1.74319 13.0238 1.31202 13.1811 0.99588 13.4816C0.679741 13.782 0.500718 14.2044 0.504515 14.6404L0.50796 15.0302C0.511757 15.4663 0.698304 15.8855 1.01958 16.1803C1.31117 16.4478 1.69517 16.5959 2.08872 16.5959C2.12901 16.5958 2.16938 16.5943 2.2096 16.5912ZM1.73286 15.4031C1.6245 15.3037 1.56417 15.168 1.56283 15.0209L1.55939 14.6312C1.55812 14.4841 1.61613 14.3474 1.72266 14.2461C1.82138 14.1523 1.9483 14.1016 2.08317 14.1016C2.09393 14.1016 2.10476 14.102 2.11558 14.1026L3.8142 14.2041C4.0885 14.2205 4.30528 14.4487 4.30774 14.7235L4.30915 14.8803C4.31154 15.1552 4.09876 15.3871 3.82474 15.4082L2.12824 15.5396C1.98163 15.5507 1.84121 15.5024 1.73286 15.4031Z" fill="black"/>
<path d="M1.95324 20.6971C2.17452 21.0729 2.54564 21.3426 2.97133 21.4373C3.08405 21.4623 3.19838 21.4747 3.31244 21.4747C3.62914 21.4747 3.94274 21.3795 4.20727 21.1983L5.61084 20.2362C6.29304 19.7686 6.49857 18.8441 6.07879 18.1314L5.99919 17.9963C5.57934 17.2837 4.67114 17.0154 3.93142 17.3854L2.40965 18.1468C2.01968 18.3419 1.72513 18.6937 1.60152 19.1119C1.47797 19.5302 1.53409 19.9855 1.75544 20.3612L1.95324 20.6971ZM2.61301 19.4108C2.6547 19.2698 2.75005 19.1559 2.88154 19.0901L4.40331 18.3287C4.47799 18.2913 4.55779 18.2736 4.63676 18.2736C4.81747 18.2736 4.99326 18.3669 5.09043 18.5317L5.17003 18.6668C5.30954 18.9036 5.24126 19.2108 5.01456 19.3661L3.61092 20.3282C3.48963 20.4114 3.3438 20.4396 3.20021 20.4077C3.0567 20.3758 2.93653 20.2884 2.86192 20.1617L2.66413 19.8259C2.58952 19.6992 2.57131 19.5518 2.61301 19.4108Z" fill="black"/>
<path d="M5.21974 23.3939C5.32184 23.8179 5.59811 24.1842 5.97767 24.399L6.31687 24.5908C6.55587 24.7261 6.82525 24.7952 7.0959 24.7952C7.25509 24.7952 7.41464 24.7713 7.56877 24.7228C7.98476 24.5919 8.33134 24.2912 8.51958 23.8978L9.25409 22.3629C9.61108 21.6169 9.32687 20.7134 8.60691 20.3062L8.47043 20.229C7.75046 19.8217 6.82975 20.0435 6.37425 20.7338L5.43701 22.1541C5.19682 22.518 5.11764 22.9699 5.21974 23.3939ZM6.31736 22.735L7.2546 21.3148C7.35473 21.163 7.52264 21.0794 7.694 21.0794C7.78161 21.0794 7.87021 21.1012 7.95115 21.147L8.08763 21.2242C8.32684 21.3596 8.42135 21.6597 8.30272 21.9077L7.56821 23.4426C7.50471 23.5752 7.39249 23.6726 7.25221 23.7167C7.112 23.7608 6.9642 23.7452 6.83622 23.6728L6.49702 23.4809C6.36905 23.4085 6.27961 23.2899 6.24515 23.1469C6.2107 23.004 6.23636 22.8577 6.31736 22.735Z" fill="black"/>
<path d="M35.4941 14.4273C35.4455 11.037 34.0621 7.88898 31.5989 5.56322C29.2819 3.37627 26.2415 2.17507 23.0328 2.18738C19.826 2.19736 16.7913 3.41501 14.4876 5.6161C14.1869 5.90348 13.9014 6.20605 13.6321 6.52022L11.9788 1.73138C11.6963 0.913963 11.0264 0.296944 10.1868 0.0807942C9.36398 -0.130996 8.49917 0.0797395 7.8735 0.644443C7.87202 0.645779 7.86794 0.649506 7.86647 0.650912C7.84509 0.670671 7.82456 0.689797 7.80396 0.710259C7.28489 1.21358 6.99561 1.88832 6.98935 2.61075C6.98816 2.75131 6.99765 2.89025 7.01748 3.02659C6.88866 3.00782 6.75759 2.99826 6.62505 2.99826C5.90931 2.99826 5.23653 3.27692 4.73068 3.78277C4.22426 4.28876 3.94539 4.96168 3.94539 5.67756C3.94539 5.8101 3.95495 5.94117 3.97373 6.06999C3.83746 6.05016 3.69901 6.04053 3.55823 6.04179C2.8342 6.04791 2.15804 6.33824 1.65325 6.8604C1.6337 6.88073 1.61415 6.90189 1.59221 6.92573C1.02709 7.55132 0.816211 8.41628 1.02807 9.23946C1.24422 10.0793 1.86117 10.7491 2.67845 11.0312L4.63814 11.7077C4.91336 11.8027 5.21367 11.6566 5.30874 11.3813C5.40381 11.106 5.25762 10.8057 4.98234 10.7107L3.02264 10.0342C2.54098 9.86794 2.17724 9.47256 2.04962 8.97655C1.92438 8.49004 2.04301 8.00022 2.37173 7.63627C2.38537 7.62143 2.39958 7.60603 2.41272 7.59232C2.71825 7.27625 3.12826 7.10018 3.56723 7.09645C4.00572 7.09385 4.41981 7.26184 4.73061 7.57263C4.93656 7.77858 5.27049 7.77858 5.47637 7.57263C5.68233 7.36668 5.68233 7.03282 5.47637 6.82686C5.16923 6.51973 5.00012 6.11154 5.00012 5.67756C5.00012 5.24364 5.16916 4.83567 5.47637 4.52874C5.78316 4.22196 6.19113 4.05299 6.62512 4.05299C7.0591 4.05299 7.46707 4.22196 7.77386 4.52874C7.97975 4.7347 8.3136 4.7347 8.51956 4.52881C8.72551 4.32293 8.72565 3.98907 8.51977 3.78305C8.20919 3.47225 8.04022 3.05915 8.04401 2.61989C8.04781 2.18112 8.22395 1.77118 8.53995 1.46573C8.54206 1.46362 8.54424 1.46158 8.54628 1.45947C8.55802 1.44773 8.5699 1.43697 8.58017 1.42741C8.94778 1.09559 9.43753 0.977036 9.92383 1.10227C10.4198 1.22989 10.8153 1.59384 10.9818 2.07572L13.2346 8.60142L9.54884 12.2871L6.95525 11.392C6.67996 11.2972 6.37972 11.4432 6.28465 11.7185C6.18965 11.9939 6.33584 12.294 6.61112 12.3891L9.40096 13.3519L10.1326 14.0836C10.2935 14.2445 10.4667 14.3856 10.6488 14.5082C10.6365 15.9632 10.875 17.3933 11.3591 18.7638C12.1236 20.9277 11.5551 23.3886 9.91047 25.033L8.41711 26.5264C7.80171 26.3732 7.12302 26.5364 6.64277 27.0166L2.22379 31.4356C1.49574 32.1637 1.49574 33.3483 2.22379 34.0764L3.60148 35.4541C3.9655 35.8182 4.44372 36.0002 4.92186 36.0002C5.40008 36.0002 5.87823 35.8182 6.24225 35.4541L10.6612 31.0352C11.1415 30.5549 11.3048 29.8761 11.1515 29.2606L12.6377 27.7737C14.2866 26.1248 16.7484 25.5531 18.9095 26.3173C21.102 27.093 23.465 27.2401 25.7429 26.7425C26.0275 26.6803 26.2077 26.3993 26.1456 26.1147C26.0835 25.8302 25.8023 25.6499 25.5178 25.712C23.4319 26.1676 21.2685 26.0331 19.2612 25.3229C16.7193 24.424 13.8266 25.0932 11.8918 27.0279L10.5936 28.3267L9.35097 27.0841L10.6562 25.7789C12.5865 23.8487 13.2526 20.9573 12.3536 18.4125C11.9624 17.3053 11.7468 16.1554 11.7092 14.9848C11.9949 15.0587 12.2881 15.0965 12.5815 15.0965C12.879 15.0965 13.1763 15.0576 13.4659 14.9816C13.5609 17.3902 14.5595 19.697 16.2705 21.4081C18.1453 23.2829 20.6081 24.2203 23.071 24.2203C25.5339 24.2203 27.997 23.2829 29.8721 21.4081C33.6219 17.6575 33.6219 11.5556 29.8721 7.80573C26.1217 4.05615 20.0201 4.05615 16.2705 7.8058C15.8286 8.24773 15.4331 8.73016 15.087 9.2448C15.0681 9.22505 15.05 9.20494 15.0306 9.18553L14.2996 8.45446L14.037 7.69399C14.3925 7.22942 14.788 6.78777 15.2161 6.37874C17.3234 4.36526 20.1005 3.25139 23.0358 3.24218C25.9702 3.23135 28.7552 4.32975 30.8746 6.33023C33.1288 8.45861 34.3948 11.3396 34.4393 14.4425C34.4838 17.5468 33.3031 20.4617 31.1147 22.65C30.0415 23.7233 28.7908 24.5566 27.3974 25.1267C27.1279 25.2369 26.9988 25.5449 27.109 25.8145C27.1925 26.0187 27.3895 26.1423 27.5973 26.1423C27.6638 26.1423 27.7314 26.1297 27.7968 26.1029C29.3204 25.4795 30.6877 24.5687 31.8604 23.3959C34.2524 21.0041 35.5427 17.819 35.4941 14.4273ZM10.1536 29.7146C10.1536 29.9316 10.0691 30.1357 9.9156 30.2892L5.49662 34.7082C5.17985 35.0249 4.6643 35.025 4.34746 34.7082L2.96976 33.3305C2.65292 33.0136 2.65292 32.4981 2.96976 32.1812L7.38874 27.7623C7.54224 27.6088 7.7463 27.5242 7.96336 27.5242C8.18036 27.5242 8.38448 27.6088 8.53791 27.7623L9.9156 29.1399C10.0691 29.2934 10.1536 29.4976 10.1536 29.7146ZM10.8784 13.3377L10.4342 12.8934L13.8407 9.4869L14.2849 9.93115C15.2241 10.8704 15.2241 12.3985 14.2849 13.3377C13.3457 14.2768 11.8176 14.2768 10.8784 13.3377ZM15.0308 14.0834C15.0878 14.0264 15.1415 13.9674 15.1937 13.9075L15.8967 14.6105L14.6117 15.8955C14.542 15.439 14.5088 14.9752 14.514 14.5084C14.6962 14.3859 14.8697 14.2445 15.0308 14.0834ZM14.888 17.1109L16.6425 15.3564L19.1105 17.8244L16.6567 20.2782C15.8437 19.3572 15.2433 18.274 14.888 17.1109ZM23.0702 8.92867L25.5383 11.3966L23.0702 13.8647L20.6022 11.3967L23.0702 8.92867ZM19.8564 10.6509L17.3983 8.19281C18.3395 7.35929 19.4215 6.76871 20.5625 6.42107L22.3244 8.18283L19.8564 10.6509ZM23.816 8.18283L25.5782 6.42058C26.7195 6.76794 27.8017 7.35831 28.7431 8.19162L26.2841 10.6507L23.816 8.18283ZM23.0707 20.2931L20.602 17.8244L23.0701 15.3563L25.5388 17.825L23.0707 20.2931ZM26.2846 18.5707L28.7392 21.0253C27.7971 21.8582 26.7141 22.448 25.5724 22.7947L23.8166 21.0388L26.2846 18.5707ZM22.325 21.0388L20.5693 22.7945C19.4274 22.4477 18.3444 21.8575 17.4022 21.0241L19.8562 18.5701L22.325 21.0388ZM23.8159 14.6104L26.2841 12.1423L28.7528 14.6109L26.2846 17.0791L23.8159 14.6104ZM22.3243 14.6104L19.8562 17.0785L17.3882 14.6105L19.8563 12.1424L22.3243 14.6104ZM21.7861 23.0693L23.0707 21.7847L24.3555 23.0694C23.5042 23.1974 22.6374 23.1974 21.7861 23.0693ZM29.4853 20.2798L27.0304 17.825L29.4987 15.3567L31.257 17.1149C30.9094 18.2562 30.3188 19.3384 29.4853 20.2798ZM31.5326 15.8989L30.2445 14.6109L31.5338 13.3216C31.6623 14.1755 31.6619 15.0451 31.5326 15.8989ZM31.259 12.1047L29.4987 13.8651L27.0299 11.3965L29.4888 8.93752C30.3222 9.87975 30.9122 10.9628 31.259 12.1047ZM24.3621 6.14515L23.0702 7.43706L21.7785 6.14544C22.6344 6.01577 23.5062 6.0157 24.3621 6.14515ZM16.653 8.93907L19.1106 11.3967L16.6425 13.8647L15.7679 12.9902C16.1463 12.0978 16.1344 11.0782 15.7313 10.1941C15.9987 9.7496 16.3076 9.32981 16.653 8.93907Z" fill="black"/>
</g>
<defs>
<clipPath id="clip0_154_1083">
<rect width="36" height="36" fill="white"/>
</clipPath>
</defs>
</svg>
