<?xml version="1.0" encoding="UTF-8" standalone="no"?>
<!-- Created with Inkscape (http://www.inkscape.org/) -->

<svg
   version="1.1"
   id="svg1290"
   xml:space="preserve"
   width="682.66669"
   height="682.66669"
   viewBox="0 0 682.66669 682.66669"
   xmlns="http://www.w3.org/2000/svg"
   xmlns:svg="http://www.w3.org/2000/svg"><defs
     id="defs1294"><clipPath
       clipPathUnits="userSpaceOnUse"
       id="clipPath1304"><path
         d="M 0,512 H 512 V 0 H 0 Z"
         id="path1302" /></clipPath></defs><g
     id="g1296"
     transform="matrix(1.3333333,0,0,-1.3333333,0,682.66667)"><g
       id="g1298"><g
         id="g1300"
         clip-path="url(#clipPath1304)"><g
           id="g1306"
           transform="translate(68.7739,302.6655)"><path
             d="m 0,0 0.02,-2.23 c 0.069,-7.868 -5.965,-14.445 -13.81,-15.052 l -24.127,-1.868 c -8.642,-0.669 -16.043,6.121 -16.119,14.788 l -0.049,5.543 c -0.076,8.668 7.205,15.587 15.857,15.069 l 24.157,-1.443 C -6.218,14.337 -0.069,7.867 0,0 Z"
             style="fill:none;stroke:#000000;stroke-width:15;stroke-linecap:round;stroke-linejoin:round;stroke-miterlimit:10;stroke-dasharray:none;stroke-opacity:1"
             id="path1308" /></g><g
           id="g1310"
           transform="translate(78.8672,252.2476)"><path
             d="M 0,0 1.132,-1.922 C 5.125,-8.7 3.188,-17.414 -3.301,-21.861 l -19.961,-13.682 c -7.15,-4.9 -16.954,-2.721 -21.354,4.748 l -2.813,4.775 c -4.4,7.469 -1.554,17.101 6.198,20.979 L -19.589,5.788 C -12.554,9.308 -3.994,6.779 0,0 Z"
             style="fill:none;stroke:#000000;stroke-width:15;stroke-linecap:round;stroke-linejoin:round;stroke-miterlimit:10;stroke-dasharray:none;stroke-opacity:1"
             id="path1312" /></g><g
           id="g1314"
           transform="translate(116.7817,217.7754)"><path
             d="m 0,0 1.942,-1.098 c 6.847,-3.874 9.526,-12.388 6.13,-19.485 L -2.374,-42.412 c -3.741,-7.819 -13.322,-10.834 -20.867,-6.566 l -4.824,2.729 c -7.544,4.269 -9.896,14.033 -5.122,21.268 l 13.329,20.198 C -15.525,1.784 -6.848,3.874 0,0 Z"
             style="fill:none;stroke:#000000;stroke-width:15;stroke-linecap:round;stroke-linejoin:round;stroke-miterlimit:10;stroke-dasharray:none;stroke-opacity:1"
             id="path1316" /></g><g
           id="g1318"
           transform="translate(149.9502,97.8101)"><path
             d="m 0,0 24.49,24.5 c 25.4,25.4 63.15,34.45 97,22.48 29.93,-10.59 62.27,-12.52 93.08,-5.79 M 41.31,306.07 c 5.85,8.05 12.51,15.69 19.97,22.82 64.85,61.96 167.79,62.29 233.02,0.72 69.54,-65.66 70.73,-175.69 3.57,-242.85 C 281.54,70.43 262.68,58.14 242.54,49.9 M 65.25,269.44 c 5.69,10.2 12.86,19.78 21.51,28.43 50.4,50.4 132.42,50.4 182.83,0 50.41,-50.41 50.4,-132.43 0,-182.84 -50.41,-50.4 -132.43,-50.4 -182.83,0 -26.64,26.64 -39.2,62.1 -37.68,97.07 M -28.28,28.28 -3.69,52.87 C 21.7,78.26 30.64,115.98 18.68,149.83 11.6,169.87 8.4,190.99 9.09,212.01"
             style="fill:none;stroke:#000000;stroke-width:15;stroke-linecap:round;stroke-linejoin:round;stroke-miterlimit:10;stroke-dasharray:none;stroke-opacity:1"
             id="path1320" /></g><g
           id="g1322"
           transform="translate(453.0156,337.6855)"><path
             d="M 0,0 -158.328,-158.328"
             style="fill:none;stroke:#000000;stroke-width:15;stroke-linecap:round;stroke-linejoin:round;stroke-miterlimit:10;stroke-dasharray:none;stroke-opacity:1"
             id="path1324" /></g><g
           id="g1326"
           transform="translate(419.5068,395.6069)"><path
             d="M 0,0 -182.74,-182.74"
             style="fill:none;stroke:#000000;stroke-width:15;stroke-linecap:round;stroke-linejoin:round;stroke-miterlimit:10;stroke-dasharray:none;stroke-opacity:1"
             id="path1328" /></g><g
           id="g1330"
           transform="translate(361.6255,429.136)"><path
             d="M 0,0 -158.388,-158.388"
             style="fill:none;stroke:#000000;stroke-width:15;stroke-linecap:round;stroke-linejoin:round;stroke-miterlimit:10;stroke-dasharray:none;stroke-opacity:1"
             id="path1332" /></g><g
           id="g1334"
           transform="translate(361.54,179.3599)"><path
             d="M 0,0 -146.38,146.38"
             style="fill:none;stroke:#000000;stroke-width:15;stroke-linecap:round;stroke-linejoin:round;stroke-miterlimit:10;stroke-dasharray:none;stroke-opacity:1"
             id="path1336" /></g><g
           id="g1338"
           transform="translate(419.4565,212.8564)"><path
             d="M 0,0 -182.75,182.75"
             style="fill:none;stroke:#000000;stroke-width:15;stroke-linecap:round;stroke-linejoin:round;stroke-miterlimit:10;stroke-dasharray:none;stroke-opacity:1"
             id="path1340" /></g><g
           id="g1342"
           transform="translate(452.9858,270.7476)"><path
             d="M 0,0 -158.398,158.388"
             style="fill:none;stroke:#000000;stroke-width:15;stroke-linecap:round;stroke-linejoin:round;stroke-miterlimit:10;stroke-dasharray:none;stroke-opacity:1"
             id="path1344" /></g><g
           id="g1346"
           transform="translate(215.2002,367.25)"><path
             d="m 0,0 c 5.69,10.2 12.86,19.78 21.51,28.43 50.4,50.4 132.42,50.4 182.83,0 50.41,-50.41 50.4,-132.43 0,-182.84 -50.41,-50.4 -132.43,-50.4 -182.83,0 -26.64,26.64 -39.2,62.1 -37.68,97.07"
             style="fill:none;stroke:#000000;stroke-width:15;stroke-linecap:round;stroke-linejoin:round;stroke-miterlimit:10;stroke-dasharray:none;stroke-opacity:1"
             id="path1348" /></g><g
           id="g1350"
           transform="translate(56.5361,13.0815)"><path
             d="m 0,0 -19.593,19.593 c -7.442,7.442 -7.442,19.508 0,26.95 l 62.845,62.845 c 7.442,7.442 19.508,7.442 26.95,0 L 89.795,89.795 c 7.442,-7.442 7.442,-19.508 0,-26.95 L 26.95,0 C 19.508,-7.442 7.442,-7.442 0,0 Z"
             style="fill:none;stroke:#000000;stroke-width:15;stroke-linecap:round;stroke-linejoin:round;stroke-miterlimit:10;stroke-dasharray:none;stroke-opacity:1"
             id="path1352" /></g><g
           id="g1354"
           transform="translate(96.48,342.8901)"><path
             d="m 0,0 41.32,-14.26 59.05,59.05 -33.57,97.24 c -6.69,19.36 -31.07,26.06 -46.27,12.34 -0.26,-0.24 -0.51,-0.47 -0.76,-0.72 C 7.44,141.73 7.32,122.08 19.39,110 c -11.95,11.95 -31.33,11.95 -43.28,0 -11.96,-11.95 -11.96,-31.33 0,-43.29 -12.08,12.08 -31.74,11.96 -43.66,-0.37 -0.24,-0.25 -0.48,-0.51 -0.71,-0.76 -13.73,-15.2 -7.02,-39.59 12.33,-46.27 l 27.87,-9.62"
             style="fill:none;stroke:#000000;stroke-width:15;stroke-linecap:round;stroke-linejoin:round;stroke-miterlimit:10;stroke-dasharray:none;stroke-opacity:1"
             id="path1356" /></g><g
           id="g1358"
           transform="translate(208.4702,317.0049)"><path
             d="M 0,0 V 0 C -16.307,-16.307 -42.746,-16.307 -59.053,0 L -70.674,11.622 -11.622,70.674 0,59.053 C 16.307,42.746 16.307,16.307 0,0 Z"
             style="fill:none;stroke:#000000;stroke-width:15;stroke-linecap:round;stroke-linejoin:round;stroke-miterlimit:10;stroke-dasharray:none;stroke-opacity:1"
             id="path1360" /></g></g></g></g></svg>
