<svg width="234" height="40" viewBox="0 0 234 40" fill="none" xmlns="http://www.w3.org/2000/svg">
  <g clip-path="url(#clip0_149_4549)">
    <path
      d="M5.37251 16.3543L5.37407 16.5286C5.37947 17.1432 4.90804 17.6571 4.2952 17.7046L2.4102 17.8505C1.73501 17.9028 1.15678 17.3723 1.15085 16.6951L1.14702 16.262C1.14108 15.5848 1.70993 15.0443 2.3859 15.0846L4.27317 15.1975C4.88671 15.2341 5.36712 15.7396 5.37251 16.3543Z"
      fill="#DD636E" />
    <path
      d="M6.16118 20.2933L6.24962 20.4435C6.56159 20.9731 6.41025 21.6539 5.90328 22.0014L4.34376 23.0703C3.78514 23.4532 3.01917 23.2829 2.6754 22.6994L2.45555 22.3262C2.11179 21.7428 2.33414 20.9902 2.93979 20.6872L4.63064 19.8412C5.18043 19.5662 5.84921 19.7638 6.16118 20.2933Z"
      fill="#DD636E" />
    <path
      d="M9.1232 22.9867L9.27492 23.0724C9.80994 23.3751 10.0193 24.0403 9.75393 24.5948L8.9378 26.3002C8.64544 26.9111 7.89689 27.1466 7.30749 26.8132L6.9306 26.6C6.3412 26.2666 6.15744 25.5036 6.53043 24.9385L7.5718 23.3604C7.91025 22.8473 8.58817 22.684 9.1232 22.9867Z"
      fill="#DD636E" />
    <path
      d="M34.9863 25.5809C40.2339 20.3334 40.141 11.7368 34.7077 6.60779C29.6118 1.79712 21.5693 1.8229 16.5026 6.66451C12.6063 10.3878 11.497 15.9071 13.174 20.6535C14.1084 23.2979 13.4102 26.2454 11.427 28.2286L7.7153 31.9403C7.11637 32.5392 7.07199 33.515 7.64928 34.1348C8.25532 34.7856 9.2745 34.7992 9.89789 34.1758L13.6285 30.4451C15.6124 28.4613 18.5618 27.7534 21.2068 28.689C25.8641 30.3365 31.2665 29.3007 34.9863 25.5809ZM18.4929 23.3719C14.5547 19.4337 14.5547 13.0257 18.4929 9.08751C22.4311 5.14929 28.839 5.14929 32.7772 9.08751C36.7154 13.0257 36.7154 19.4337 32.7772 23.3719C28.839 27.3101 22.4311 27.3101 18.4929 23.3719Z"
      fill="#E49542" />
    <path
      d="M8.70706 32.9321L12.4188 29.2203C14.4019 27.2372 15.1001 24.2896 14.1658 21.6452C12.4888 16.8988 13.598 11.3796 17.4944 7.65628C22.4843 2.88795 30.3607 2.79091 35.466 7.38455C35.2259 7.11797 34.9734 6.85859 34.7077 6.60779C29.6118 1.79712 21.5693 1.8229 16.5026 6.66452C12.6063 10.3878 11.4971 15.9071 13.174 20.6535C14.1084 23.2979 13.4102 26.2454 11.427 28.2286L7.7153 31.9403C7.11637 32.5392 7.07199 33.515 7.64928 34.1349C7.83718 34.3366 8.06492 34.4769 8.30821 34.5562C8.13055 34.0034 8.27102 33.3681 8.70706 32.9321Z"
      fill="#E28424" />
    <path
      d="M19.0063 23.8502C19.1589 24.0254 19.318 24.1968 19.4847 24.3636C23.4229 28.3018 29.8309 28.3018 33.7691 24.3636C37.7073 20.4254 37.7073 14.0174 33.7691 10.0792C33.6024 9.91248 33.4309 9.75341 33.2557 9.60083C36.7079 13.5641 36.5488 19.6003 32.7773 23.3718C29.0058 27.1433 22.9696 27.3025 19.0063 23.8502Z"
      fill="#E28424" />
    <path
      d="M4.41655 38.979L2.88578 37.4483C2.30435 36.8668 2.30435 35.9241 2.88578 35.3427L7.79576 30.4327C8.37719 29.8513 9.31988 29.8513 9.90132 30.4327L11.4321 31.9635C12.0135 32.5449 12.0135 33.4876 11.4321 34.069L6.52211 38.979C5.94068 39.5605 4.99798 39.5605 4.41655 38.979Z"
      fill="#FFD064" />
    <path
      d="M4.0976 38.6604L2.88536 37.4482C2.3044 36.8672 2.3044 35.9239 2.88591 35.3424L7.79557 30.4327C8.37708 29.8512 9.31986 29.8517 9.90082 30.4327L11.1131 31.6449C10.5315 31.0634 9.58932 31.0634 9.00781 31.6449L4.09815 36.5546C3.51664 37.1361 3.51601 38.0789 4.0976 38.6604Z"
      fill="#FFC250" />
    <path
      d="M15.3789 9.71229L12.756 2.11493C12.2339 0.602526 10.3286 0.0789874 9.14109 1.15122C9.12094 1.16942 9.10109 1.18794 9.08148 1.20693C8.11855 2.13822 8.10886 3.67399 9.05234 4.61754C8.11847 3.68367 6.60434 3.68367 5.6704 4.61754C4.73645 5.55141 4.73653 7.06554 5.6704 7.99948C4.72684 7.05585 3.19107 7.06562 2.25978 8.02855C2.2408 8.04816 2.2222 8.06808 2.20408 8.08816C1.13184 9.27571 1.65538 11.1809 3.16779 11.7031L10.7651 14.3259L14.6794 13.6265L15.3789 9.71229Z"
      fill="#FFD064" />
    <path
      d="M5.02571 9.84501C4.01309 9.29733 3.31166 8.2065 3.32595 7.38959C2.93383 7.50053 2.5642 7.71359 2.25958 8.02844C2.24052 8.04821 2.22216 8.0679 2.2038 8.08837C1.13195 9.27592 1.65549 11.1813 3.16774 11.7031L10.7651 14.3263L14.6793 13.6265L11.6593 13.4321L5.02571 9.84501Z"
      fill="#FFC250" />
    <path
      d="M16.2869 15.2339C15.0128 16.508 12.9472 16.508 11.6731 15.2339L10.7651 14.3259L15.3789 9.71222L16.2869 10.6202C17.5609 11.8943 17.5609 13.9599 16.2869 15.2339Z"
      fill="#DDEAFB" />
    <path
      d="M16.7981 14.572C15.5485 15.3028 13.9175 15.1326 12.8461 14.0612L11.938 13.1531L10.7651 14.3259L11.6732 15.234C12.9472 16.508 15.0129 16.5077 16.2869 15.2337C16.4894 15.0312 16.6598 14.8083 16.7981 14.572Z"
      fill="#CBE2FF" />
    <path
      d="M2.45515 18.4347L4.34015 18.2888C5.25644 18.2178 5.9678 17.4424 5.95967 16.5235L5.95811 16.3492C5.94999 15.4302 5.22511 14.6674 4.30773 14.6126L2.42038 14.4998C1.93692 14.471 1.45784 14.6457 1.10657 14.9796C0.755309 15.3133 0.556394 15.7827 0.560613 16.2672L0.564441 16.7003C0.56866 17.1848 0.775934 17.6505 1.1329 17.9781C1.4569 18.2754 1.88356 18.4399 2.32084 18.4399C2.36561 18.4399 2.41046 18.4382 2.45515 18.4347ZM1.92544 17.1146C1.80504 17.0041 1.73801 16.8533 1.73652 16.69L1.73269 16.2569C1.73129 16.0935 1.79574 15.9416 1.91411 15.8291C2.0238 15.7248 2.16482 15.6685 2.31467 15.6685C2.32663 15.6685 2.33866 15.6689 2.35069 15.6696L4.23804 15.7824C4.54281 15.8006 4.78368 16.0541 4.78642 16.3595L4.78798 16.5337C4.79064 16.8391 4.55422 17.0968 4.24976 17.1203L2.36475 17.2662C2.20185 17.2786 2.04583 17.225 1.92544 17.1146Z"
      fill="black" />
    <path
      d="M2.17027 22.9967C2.41614 23.4143 2.8285 23.714 3.30149 23.8191C3.42673 23.8469 3.55377 23.8607 3.68049 23.8607C4.03238 23.8607 4.38083 23.755 4.67475 23.5536L6.23427 22.4846C6.99227 21.965 7.22064 20.9378 6.75422 20.146L6.66577 19.9958C6.19927 19.2041 5.19016 18.9059 4.36825 19.317L2.6774 20.163C2.2441 20.3798 1.91682 20.7707 1.77947 21.2354C1.6422 21.7001 1.70455 22.2061 1.95049 22.6235L2.17027 22.9967ZM2.90335 21.5675C2.94968 21.4108 3.05562 21.2842 3.20172 21.2111L4.89257 20.3651C4.97555 20.3236 5.06422 20.3039 5.15196 20.3039C5.35275 20.3039 5.54807 20.4076 5.65604 20.5907L5.74448 20.7408C5.89949 21.0039 5.82363 21.3453 5.57174 21.5178L4.01215 22.5869C3.87737 22.6793 3.71534 22.7106 3.5558 22.6752C3.39634 22.6397 3.26282 22.5427 3.17992 22.4019L2.96015 22.0287C2.87725 21.8879 2.85702 21.7242 2.90335 21.5675Z"
      fill="black" />
    <path
      d="M5.7999 25.9932C5.91334 26.4643 6.22031 26.8713 6.64205 27.1099L7.01894 27.3231C7.28449 27.4733 7.5838 27.5501 7.88452 27.5501C8.0614 27.5501 8.23868 27.5236 8.40993 27.4697C8.87214 27.3243 9.25724 26.9901 9.46639 26.5531L10.2825 24.8476C10.6792 24.0187 10.3634 23.0149 9.56342 22.5623L9.41177 22.4766C8.61182 22.024 7.5888 22.2705 7.08269 23.0375L6.04132 24.6156C5.77443 25.0199 5.68646 25.5221 5.7999 25.9932ZM7.01948 25.2611L8.06086 23.683C8.17211 23.5143 8.35868 23.4214 8.54908 23.4214C8.64643 23.4214 8.74487 23.4457 8.8348 23.4966L8.98644 23.5824C9.25224 23.7328 9.35724 24.0663 9.22544 24.3418L8.40931 26.0473C8.33876 26.1946 8.21407 26.3028 8.0582 26.3518C7.90241 26.4008 7.73819 26.3835 7.59599 26.3031L7.2191 26.0898C7.07691 26.0094 6.97753 25.8776 6.93925 25.7187C6.90096 25.56 6.92948 25.3974 7.01948 25.2611Z"
      fill="black" />
    <path
      d="M39.438 16.0304C39.384 12.2633 37.8469 8.76553 35.11 6.18135C32.5356 3.75141 29.1574 2.41674 25.5921 2.43041C22.029 2.44151 18.6571 3.79445 16.0975 6.24011C15.7634 6.55942 15.4461 6.8956 15.1469 7.24468L13.3099 1.92375C12.9961 1.01551 12.2518 0.329931 11.3188 0.0897646C10.4046 -0.145558 9.44367 0.0885926 8.74848 0.716041C8.74684 0.717526 8.74231 0.721667 8.74067 0.723229C8.71692 0.745183 8.6941 0.766434 8.67121 0.789169C8.09447 1.34841 7.77305 2.09813 7.76609 2.90082C7.76477 3.057 7.77531 3.21138 7.79735 3.36287C7.65421 3.34201 7.50858 3.33139 7.36131 3.33139C6.56604 3.33139 5.81851 3.64101 5.25645 4.20307C4.69377 4.76528 4.38392 5.51297 4.38392 6.30839C4.38392 6.45566 4.39454 6.60129 4.4154 6.74442C4.26399 6.72239 4.11016 6.71169 3.95374 6.7131C3.14926 6.71989 2.39797 7.04248 1.83709 7.62266C1.81537 7.64524 1.79365 7.66876 1.76927 7.69525C1.14136 8.39035 0.90705 9.35141 1.14245 10.2661C1.38262 11.1992 2.06811 11.9434 2.9762 12.2569L5.15364 13.0085C5.45943 13.1142 5.79312 12.9517 5.89875 12.6458C6.00438 12.34 5.84195 12.0063 5.53608 11.9007L3.35864 11.1491C2.82346 10.9644 2.4193 10.5251 2.2775 9.97394C2.13835 9.43337 2.27015 8.88913 2.6354 8.48473C2.65056 8.46825 2.66634 8.45114 2.68095 8.4359C3.02042 8.08472 3.47599 7.88908 3.96374 7.88494C4.45095 7.88205 4.91105 8.0687 5.25638 8.41403C5.48521 8.64287 5.85625 8.64287 6.08501 8.41403C6.31384 8.18519 6.31384 7.81424 6.08501 7.5854C5.74374 7.24413 5.55584 6.7906 5.55584 6.30839C5.55584 5.82626 5.74366 5.37296 6.08501 5.03193C6.42588 4.69105 6.87918 4.50331 7.36139 4.50331C7.8436 4.50331 8.2969 4.69105 8.63777 5.03193C8.86653 5.26077 9.23748 5.26077 9.46632 5.03201C9.69516 4.80325 9.69532 4.43229 9.46656 4.20338C9.12146 3.85805 8.93372 3.39905 8.93794 2.91098C8.94216 2.42346 9.13787 1.96797 9.48898 1.62858C9.49132 1.62624 9.49375 1.62397 9.49601 1.62163C9.50906 1.60858 9.52226 1.59663 9.53367 1.586C9.94212 1.21731 10.4863 1.08559 11.0266 1.22474C11.5777 1.36654 12.0171 1.77093 12.2021 2.30634L14.7053 9.55712L10.61 13.6524L7.7282 12.6578C7.42233 12.5524 7.08872 12.7147 6.98309 13.0206C6.87754 13.3265 7.03997 13.66 7.34584 13.7657L10.4457 14.8355L11.2586 15.6485C11.4373 15.8272 11.6299 15.984 11.8321 16.1202C11.8185 17.7368 12.0835 19.3259 12.6214 20.8487C13.4709 23.253 12.8391 25.9873 11.0118 27.8145L9.35249 29.4738C8.66871 29.3035 7.91462 29.4849 7.381 30.0185L2.47102 34.9284C1.66208 35.7374 1.66208 37.0537 2.47102 37.8627L4.00179 39.3935C4.40626 39.7979 4.93761 40.0002 5.46889 40.0002C6.00024 40.0002 6.53151 39.798 6.93598 39.3935L11.846 34.4835C12.3796 33.9499 12.561 33.1956 12.3907 32.5118L14.0421 30.8597C15.8742 29.0276 18.6094 28.3924 21.0107 29.2414C23.4468 30.1033 26.0723 30.2668 28.6034 29.7138C28.9196 29.6448 29.1198 29.3325 29.0508 29.0163C28.9818 28.7002 28.6694 28.4999 28.3533 28.5689C26.0355 29.0751 23.6318 28.9256 21.4015 28.1365C18.5771 27.1377 15.363 27.8813 13.2133 30.031L11.7708 31.4742L10.3901 30.0935L11.8404 28.6432C13.9851 26.4986 14.7253 23.2858 13.7263 20.4583C13.2917 19.2281 13.0522 17.9505 13.0104 16.6498C13.3278 16.7319 13.6536 16.7738 13.9796 16.7738C14.3102 16.7738 14.6405 16.7306 14.9623 16.6462C15.0678 19.3224 16.1773 21.8855 18.0785 23.7868C20.1616 25.8699 22.8981 26.9115 25.6346 26.9115C28.3712 26.9115 31.1079 25.8699 33.1914 23.7867C37.3578 19.6194 37.3578 12.8395 33.1913 8.67302C29.0243 4.50683 22.2447 4.50683 18.0785 8.6731C17.5875 9.16414 17.1481 9.70018 16.7634 10.272C16.7425 10.25 16.7223 10.2277 16.7009 10.2061L15.8886 9.39384L15.5968 8.54888C15.9918 8.03268 16.4313 7.54196 16.9069 7.08749C19.2484 4.85028 22.3341 3.61265 25.5955 3.60242C28.8559 3.59038 31.9503 4.81083 34.3053 7.03358C36.8099 9.39844 38.2165 12.5996 38.266 16.0472C38.3154 19.4965 37.0036 22.7352 34.5721 25.1667C33.3795 26.3592 31.9899 27.2851 30.4417 27.9185C30.1422 28.041 29.9988 28.3832 30.1213 28.6828C30.2141 28.9097 30.4329 29.047 30.6638 29.047C30.7377 29.047 30.8129 29.033 30.8854 29.0032C32.5784 28.3105 34.0975 27.2986 35.4006 25.9954C38.0583 23.3379 39.4921 19.7989 39.438 16.0304ZM11.2819 33.0162C11.2819 33.2574 11.188 33.4841 11.0175 33.6546L6.10751 38.5646C5.75554 38.9166 5.1827 38.9167 4.83066 38.5646L3.29989 37.0338C2.94784 36.6818 2.94784 36.109 3.29989 35.7569L8.20986 30.8469C8.38042 30.6764 8.60715 30.5825 8.84833 30.5825C9.08943 30.5825 9.31624 30.6764 9.48671 30.8469L11.0175 32.3777C11.188 32.5483 11.2819 32.7751 11.2819 33.0162ZM12.0873 14.8196L11.5937 14.326L15.3787 10.541L15.8723 11.0346C16.9158 12.0782 16.9158 13.7761 15.8723 14.8196C14.8287 15.8631 13.1309 15.8631 12.0873 14.8196ZM16.701 15.6482C16.7644 15.5849 16.824 15.5193 16.882 15.4528L17.6632 16.2339L16.2354 17.6617C16.1579 17.1544 16.121 16.6391 16.1268 16.1205C16.3293 15.9843 16.522 15.8272 16.701 15.6482ZM16.5424 19.0121L18.4918 17.0627L21.234 19.8049L18.5076 22.5314C17.6042 21.508 16.9371 20.3045 16.5424 19.0121ZM25.6337 9.92073L28.376 12.6629L25.6337 15.4053L22.8914 12.663L25.6337 9.92073ZM22.0628 11.8343L19.3316 9.10312C20.3773 8.17699 21.5796 7.52079 22.8474 7.13452L24.805 9.09202L22.0628 11.8343ZM26.4624 9.09202L28.4204 7.13397C29.6884 7.51993 30.8909 8.17589 31.937 9.10179L29.2047 11.8341L26.4624 9.09202ZM25.6343 22.5478L22.8913 19.8048L25.6336 17.0625L28.3766 19.8055L25.6343 22.5478ZM29.2053 20.6342L31.9326 23.3615C30.8858 24.2869 29.6825 24.9422 28.4139 25.3274L26.463 23.3765L29.2053 20.6342ZM24.8057 23.3765L22.8549 25.3272C21.5861 24.9418 20.3828 24.2861 19.336 23.3601L22.0626 20.6335L24.8057 23.3765ZM26.4623 16.2338L29.2047 13.4914L31.9478 16.2344L29.2053 18.9768L26.4623 16.2338ZM24.8049 16.2338L22.0626 18.9761L19.3204 16.2339L22.0627 13.4916L24.8049 16.2338ZM24.207 25.6325L25.6343 24.2052L27.0618 25.6327C26.1159 25.7748 25.1528 25.7748 24.207 25.6325ZM32.7615 22.5331L30.0339 19.8055L32.7765 17.063L34.7301 19.0166C34.3439 20.2846 33.6878 21.4871 32.7615 22.5331ZM35.0364 17.6654L33.6052 16.2343L35.0377 14.8017C35.1805 15.7505 35.18 16.7168 35.0364 17.6654ZM34.7324 13.4497L32.7765 15.4057L30.0334 12.6627L32.7655 9.93058C33.6914 10.9775 34.3471 12.1808 34.7324 13.4497ZM27.0692 6.82794L25.6337 8.2634L24.1985 6.82826C25.1495 6.68419 26.1181 6.68411 27.0692 6.82794ZM18.5034 9.93229L21.2341 12.663L18.4918 15.4053L17.52 14.4335C17.9404 13.442 17.9272 12.3091 17.4793 11.3268C17.7765 10.8329 18.1197 10.3665 18.5034 9.93229Z"
      fill="black" />
  </g>
  <path
    d="M48 10.2143H49.9286V12.1429H48V10.2143ZM49.9286 10.2143H51.8571V12.1429H49.9286V10.2143ZM51.8571 10.2143H53.7857V12.1429H51.8571V10.2143ZM53.7857 10.2143H55.7143V12.1429H53.7857V10.2143ZM55.7143 10.2143H57.6429V12.1429H55.7143V10.2143ZM57.6429 10.2143H59.5714V12.1429H57.6429V10.2143ZM57.6429 12.1429H59.5714V14.0714H57.6429V12.1429ZM55.7143 12.1429H57.6429V14.0714H55.7143V12.1429ZM53.7857 12.1429H55.7143V14.0714H53.7857V12.1429ZM51.8571 12.1429H53.7857V14.0714H51.8571V12.1429ZM49.9286 12.1429H51.8571V14.0714H49.9286V12.1429ZM48 12.1429H49.9286V14.0714H48V12.1429ZM59.5714 12.1429H61.5V14.0714H59.5714V12.1429ZM59.5714 14.0714H61.5V16H59.5714V14.0714ZM59.5714 16H61.5V17.9286H59.5714V16ZM57.6429 16H59.5714V17.9286H57.6429V16ZM57.6429 14.0714H59.5714V16H57.6429V14.0714ZM57.6429 17.9286H59.5714V19.8571H57.6429V17.9286ZM55.7143 17.9286H57.6429V19.8571H55.7143V17.9286ZM53.7857 17.9286H55.7143V19.8571H53.7857V17.9286ZM51.8571 17.9286H53.7857V19.8571H51.8571V17.9286ZM49.9286 17.9286H51.8571V19.8571H49.9286V17.9286ZM49.9286 16H51.8571V17.9286H49.9286V16ZM49.9286 14.0714H51.8571V16H49.9286V14.0714ZM48 14.0714H49.9286V16H48V14.0714ZM48 16H49.9286V17.9286H48V16ZM48 17.9286H49.9286V19.8571H48V17.9286ZM48 19.8571H49.9286V21.7857H48V19.8571ZM49.9286 19.8571H51.8571V21.7857H49.9286V19.8571ZM51.8571 19.8571H53.7857V21.7857H51.8571V19.8571ZM53.7857 19.8571H55.7143V21.7857H53.7857V19.8571ZM55.7143 19.8571H57.6429V21.7857H55.7143V19.8571ZM57.6429 19.8571H59.5714V21.7857H57.6429V19.8571ZM59.5714 19.8571H61.5V21.7857H59.5714V19.8571ZM59.5714 21.7857H61.5V23.7143H59.5714V21.7857ZM57.6429 21.7857H59.5714V23.7143H57.6429V21.7857ZM57.6429 25.6429H59.5714V27.5714H57.6429V25.6429ZM59.5714 25.6429H61.5V27.5714H59.5714V25.6429ZM59.5714 23.7143H61.5V25.6429H59.5714V23.7143ZM57.6429 23.7143H59.5714V25.6429H57.6429V23.7143ZM57.6429 27.5714H59.5714V29.5H57.6429V27.5714ZM55.7143 27.5714H57.6429V29.5H55.7143V27.5714ZM53.7857 27.5714H55.7143V29.5H53.7857V27.5714ZM51.8571 27.5714H53.7857V29.5H51.8571V27.5714ZM49.9286 27.5714H51.8571V29.5H49.9286V27.5714ZM48 27.5714H49.9286V29.5H48V27.5714ZM48 25.6429H49.9286V27.5714H48V25.6429ZM48 23.7143H49.9286V25.6429H48V23.7143ZM48 21.7857H49.9286V23.7143H48V21.7857ZM49.9286 21.7857H51.8571V23.7143H49.9286V21.7857ZM49.9286 23.7143H51.8571V25.6429H49.9286V23.7143ZM49.9286 25.6429H51.8571V27.5714H49.9286V25.6429ZM51.8571 25.6429H53.7857V27.5714H51.8571V25.6429ZM53.7857 25.6429H55.7143V27.5714H53.7857V25.6429ZM55.7143 25.6429H57.6429V27.5714H55.7143V25.6429ZM75.005 29.5H73.0765V27.5714H75.005V29.5ZM75.005 27.5714H73.0765V25.6429H75.005V27.5714ZM73.0765 27.5714H71.1479V25.6429H73.0765V27.5714ZM71.1479 29.5H69.2193V27.5714H71.1479V29.5ZM69.2193 29.5H67.2907V27.5714H69.2193V29.5ZM67.2907 29.5H65.3622V27.5714H67.2907V29.5ZM67.2907 27.5714H65.3622V25.6429H67.2907V27.5714ZM69.2193 27.5714H67.2907V25.6429H69.2193V27.5714ZM65.3622 27.5714H63.4336V25.6429H65.3622V27.5714ZM65.3622 25.6429H63.4336V23.7143H65.3622V25.6429ZM65.3622 17.9286H63.4336V16H65.3622V17.9286ZM67.2907 17.9286H65.3622V16H67.2907V17.9286ZM67.2907 25.6429H65.3622V23.7143H67.2907V25.6429ZM69.2193 17.9286H67.2907V16H69.2193V17.9286ZM67.2907 16H65.3622V14.0714H67.2907V16ZM69.2193 16H67.2907V14.0714H69.2193V16ZM71.1479 16H69.2193V14.0714H71.1479V16ZM73.0765 16H71.1479V14.0714H73.0765V16ZM75.005 16H73.0765V14.0714H75.005V16ZM75.005 17.9286H73.0765V16H75.005V17.9286ZM73.0765 17.9286H71.1479V16H73.0765V17.9286ZM75.005 19.8571H73.0765V17.9286H75.005V19.8571ZM76.9336 17.9286H75.005V16H76.9336V17.9286ZM76.9336 19.8571H75.005V17.9286H76.9336V19.8571ZM76.9336 21.7857H75.005V19.8571H76.9336V21.7857ZM76.9336 23.7143H75.005V21.7857H76.9336V23.7143ZM76.9336 25.6429H75.005V23.7143H76.9336V25.6429ZM76.9336 27.5714H75.005V25.6429H76.9336V27.5714ZM75.005 25.6429H73.0765V23.7143H75.005V25.6429ZM75.005 23.7143H73.0765V21.7857H75.005V23.7143ZM75.005 21.7857H73.0765V19.8571H75.005V21.7857ZM71.1479 17.9286H69.2193V16H71.1479V17.9286ZM71.1479 27.5714H69.2193V25.6429H71.1479V27.5714ZM75.005 27.5714H76.9336V29.5H75.005V27.5714ZM71.1479 19.8571H73.0765V21.7857H71.1479V19.8571ZM69.2193 19.8571H71.1479V21.7857H69.2193V19.8571ZM67.2907 19.8571H69.2193V21.7857H67.2907V19.8571ZM65.3622 19.8571H67.2907V21.7857H65.3622V19.8571ZM63.4336 21.7857H65.3622V23.7143H63.4336V21.7857ZM65.3622 21.7857H67.2907V23.7143H65.3622V21.7857ZM71.1479 21.7857H73.0765V23.7143H71.1479V21.7857ZM69.2193 21.7857H71.1479V23.7143H69.2193V21.7857ZM67.2907 21.7857H69.2193V23.7143H67.2907V21.7857ZM92.3672 16V17.9286H90.4386V16H92.3672ZM92.3672 14.0714V16H90.4386V14.0714H92.3672ZM90.4386 14.0714V16H88.51V14.0714H90.4386ZM90.4386 16V17.9286H88.51V16H90.4386ZM90.4386 17.9286V19.8571H88.51V17.9286H90.4386ZM90.4386 19.8571V21.7857H88.51V19.8571H90.4386ZM90.4386 21.7857V23.7143H88.51V21.7857H90.4386ZM92.3672 21.7857V23.7143H90.4386V21.7857H92.3672ZM92.3672 19.8571V21.7857H90.4386V19.8571H92.3672ZM92.3672 17.9286V19.8571H90.4386V17.9286H92.3672ZM92.3672 23.7143V25.6429H90.4386V23.7143H92.3672ZM90.4386 23.7143V25.6429H88.51V23.7143H90.4386ZM90.4386 25.6429V27.5714H88.51V25.6429H90.4386ZM90.4386 27.5714V29.5H88.51V27.5714H90.4386ZM92.3672 27.5714V29.5H90.4386V27.5714H92.3672ZM92.3672 25.6429V27.5714H90.4386V25.6429H92.3672ZM82.7243 27.5714V29.5H80.7958V27.5714H82.7243ZM80.7958 25.6429V27.5714H78.8672V25.6429H80.7958ZM80.7958 23.7143V25.6429H78.8672V23.7143H80.7958ZM80.7958 21.7857V23.7143H78.8672V21.7857H80.7958ZM80.7958 19.8571V21.7857H78.8672V19.8571H80.7958ZM80.7958 17.9286V19.8571H78.8672V17.9286H80.7958ZM80.7958 16V17.9286H78.8672V16H80.7958ZM82.7243 19.8571V21.7857H80.7958V19.8571H82.7243ZM82.7243 21.7857V23.7143H80.7958V21.7857H82.7243ZM82.7243 23.7143V25.6429H80.7958V23.7143H82.7243ZM82.7243 25.6429V27.5714H80.7958V25.6429H82.7243ZM82.7243 17.9286V19.8571H80.7958V17.9286H82.7243ZM84.6529 16V17.9286H82.7243V16H84.6529ZM84.6529 14.0714V16H82.7243V14.0714H84.6529ZM82.7243 14.0714V16H80.7958V14.0714H82.7243ZM82.7243 16V17.9286H80.7958V16H82.7243ZM86.5815 14.0714V16H84.6529V14.0714H86.5815ZM92.3672 10.2143V12.1429H90.4386V10.2143H92.3672ZM90.4386 10.2143V12.1429H88.51V10.2143H90.4386ZM90.4386 12.1429V14.0714H88.51V12.1429H90.4386ZM92.3672 12.1429V14.0714H90.4386V12.1429H92.3672ZM86.5815 27.5714V29.5H84.6529V27.5714H86.5815ZM84.6529 27.5714V29.5H82.7243V27.5714H84.6529ZM84.6529 25.6429V27.5714H82.7243V25.6429H84.6529ZM86.5815 25.6429V27.5714H84.6529V25.6429H86.5815ZM88.51 25.6429V27.5714H86.5815V25.6429H88.51ZM88.51 14.0714V16H86.5815V14.0714H88.51ZM88.51 16V17.9286H86.5815V16H88.51ZM86.5815 16V17.9286H84.6529V16H86.5815ZM94.3008 16H96.2294V17.9286H94.3008V16ZM94.3008 14.0714H96.2294V16H94.3008V14.0714ZM96.2294 14.0714H98.1579V16H96.2294V14.0714ZM96.2294 16H98.1579V17.9286H96.2294V16ZM96.2294 17.9286H98.1579V19.8571H96.2294V17.9286ZM96.2294 19.8571H98.1579V21.7857H96.2294V19.8571ZM96.2294 21.7857H98.1579V23.7143H96.2294V21.7857ZM94.3008 21.7857H96.2294V23.7143H94.3008V21.7857ZM94.3008 19.8571H96.2294V21.7857H94.3008V19.8571ZM94.3008 17.9286H96.2294V19.8571H94.3008V17.9286ZM94.3008 23.7143H96.2294V25.6429H94.3008V23.7143ZM96.2294 23.7143H98.1579V25.6429H96.2294V23.7143ZM96.2294 25.6429H98.1579V27.5714H96.2294V25.6429ZM96.2294 27.5714H98.1579V29.5H96.2294V27.5714ZM94.3008 27.5714H96.2294V29.5H94.3008V27.5714ZM94.3008 25.6429H96.2294V27.5714H94.3008V25.6429ZM102.015 27.5714H103.944V29.5H102.015V27.5714ZM103.944 27.5714H105.872V29.5H103.944V27.5714ZM103.944 25.6429H105.872V27.5714H103.944V25.6429ZM103.944 23.7143H105.872V25.6429H103.944V23.7143ZM103.944 21.7857H105.872V23.7143H103.944V21.7857ZM103.944 19.8571H105.872V21.7857H103.944V19.8571ZM103.944 17.9286H105.872V19.8571H103.944V17.9286ZM103.944 16H105.872V17.9286H103.944V16ZM102.015 19.8571H103.944V21.7857H102.015V19.8571ZM102.015 21.7857H103.944V23.7143H102.015V21.7857ZM102.015 23.7143H103.944V25.6429H102.015V23.7143ZM102.015 25.6429H103.944V27.5714H102.015V25.6429ZM102.015 17.9286H103.944V19.8571H102.015V17.9286ZM98.1579 16H100.086V17.9286H98.1579V16ZM100.086 16H102.015V17.9286H100.086V16ZM102.015 14.0714H103.944V16H102.015V14.0714ZM102.015 16H103.944V17.9286H102.015V16ZM100.086 14.0714H102.015V16H100.086V14.0714ZM109.729 27.5714H111.658V29.5H109.729V27.5714ZM111.658 27.5714H113.586V29.5H111.658V27.5714ZM111.658 25.6429H113.586V27.5714H111.658V25.6429ZM111.658 23.7143H113.586V25.6429H111.658V23.7143ZM111.658 21.7857H113.586V23.7143H111.658V21.7857ZM111.658 19.8571H113.586V21.7857H111.658V19.8571ZM111.658 17.9286H113.586V19.8571H111.658V17.9286ZM111.658 16H113.586V17.9286H111.658V16ZM109.729 19.8571H111.658V21.7857H109.729V19.8571ZM109.729 21.7857H111.658V23.7143H109.729V21.7857ZM109.729 23.7143H111.658V25.6429H109.729V23.7143ZM109.729 25.6429H111.658V27.5714H109.729V25.6429ZM109.729 17.9286H111.658V19.8571H109.729V17.9286ZM105.872 16H107.801V17.9286H105.872V16ZM107.801 16H109.729V17.9286H107.801V16ZM109.729 14.0714H111.658V16H109.729V14.0714ZM109.729 16H111.658V17.9286H109.729V16ZM107.801 14.0714H109.729V16H107.801V14.0714ZM115.5 10.2143H119.357V14.0714H115.5V10.2143ZM115.5 16H119.357V29.5H115.5V16ZM121.301 16H123.229V17.9286H121.301V16ZM121.301 14.0714H123.229V16H121.301V14.0714ZM123.229 14.0714H125.158V16H123.229V14.0714ZM123.229 16H125.158V17.9286H123.229V16ZM123.229 17.9286H125.158V19.8571H123.229V17.9286ZM123.229 19.8571H125.158V21.7857H123.229V19.8571ZM123.229 21.7857H125.158V23.7143H123.229V21.7857ZM121.301 21.7857H123.229V23.7143H121.301V21.7857ZM121.301 19.8571H123.229V21.7857H121.301V19.8571ZM121.301 17.9286H123.229V19.8571H121.301V17.9286ZM121.301 23.7143H123.229V25.6429H121.301V23.7143ZM123.229 23.7143H125.158V25.6429H123.229V23.7143ZM123.229 25.6429H125.158V27.5714H123.229V25.6429ZM123.229 27.5714H125.158V29.5H123.229V27.5714ZM121.301 27.5714H123.229V29.5H121.301V27.5714ZM121.301 25.6429H123.229V27.5714H121.301V25.6429ZM130.944 27.5714H132.872V29.5H130.944V27.5714ZM132.872 27.5714H134.801V29.5H132.872V27.5714ZM132.872 25.6429H134.801V27.5714H132.872V25.6429ZM132.872 23.7143H134.801V25.6429H132.872V23.7143ZM132.872 21.7857H134.801V23.7143H132.872V21.7857ZM132.872 19.8571H134.801V21.7857H132.872V19.8571ZM132.872 17.9286H134.801V19.8571H132.872V17.9286ZM132.872 16H134.801V17.9286H132.872V16ZM130.944 19.8571H132.872V21.7857H130.944V19.8571ZM130.944 21.7857H132.872V23.7143H130.944V21.7857ZM130.944 23.7143H132.872V25.6429H130.944V23.7143ZM130.944 25.6429H132.872V27.5714H130.944V25.6429ZM130.944 17.9286H132.872V19.8571H130.944V17.9286ZM125.158 16H127.086V17.9286H125.158V16ZM127.086 16H129.015V17.9286H127.086V16ZM129.015 16H130.944V17.9286H129.015V16ZM129.015 14.0714H130.944V16H129.015V14.0714ZM130.944 14.0714H132.872V16H130.944V14.0714ZM130.944 16H132.872V17.9286H130.944V16ZM127.086 14.0714H129.015V16H127.086V14.0714ZM144.449 25.6429H146.377V27.5714H144.449V25.6429ZM144.449 27.5714H146.377V29.5H144.449V27.5714ZM142.52 27.5714H144.449V29.5H142.52V27.5714ZM142.52 25.6429H144.449V27.5714H142.52V25.6429ZM140.592 27.5714H142.52V29.5H140.592V27.5714ZM140.592 25.6429H142.52V27.5714H140.592V25.6429ZM138.663 25.6429H140.592V27.5714H138.663V25.6429ZM138.663 23.7143H140.592V25.6429H138.663V23.7143ZM138.663 21.7857H140.592V23.7143H138.663V21.7857ZM138.663 19.8571H140.592V21.7857H138.663V19.8571ZM138.663 17.9286H140.592V19.8571H138.663V17.9286ZM138.663 16H140.592V17.9286H138.663V16ZM140.592 21.7857H142.52V23.7143H140.592V21.7857ZM140.592 23.7143H142.52V25.6429H140.592V23.7143ZM140.592 19.8571H142.52V21.7857H140.592V19.8571ZM140.592 17.9286H142.52V19.8571H140.592V17.9286ZM140.592 10.2143H142.52V12.1429H140.592V10.2143ZM140.592 12.1429H142.52V14.0714H140.592V12.1429ZM140.592 14.0714H142.52V16H140.592V14.0714ZM140.592 16H142.52V17.9286H140.592V16ZM138.663 14.0714H140.592V16H138.663V14.0714ZM136.734 16H138.663V17.9286H136.734V16ZM142.52 16H144.449V17.9286H142.52V16ZM144.449 16H146.377V17.9286H144.449V16ZM138.663 12.1429H140.592V14.0714H138.663V12.1429ZM136.734 17.9286H138.663V19.8571H136.734V17.9286ZM142.52 17.9286H144.449V19.8571H142.52V17.9286ZM144.449 17.9286H146.377V19.8571H144.449V17.9286ZM152.158 14.0714H154.086V16H152.158V14.0714ZM150.229 14.0714H152.158V16H150.229V14.0714ZM150.229 16H152.158V17.9286H150.229V16ZM152.158 16H154.086V17.9286H152.158V16ZM154.086 14.0714H156.015V16H154.086V14.0714ZM156.015 14.0714H157.944V16H156.015V14.0714ZM157.944 14.0714H159.872V16H157.944V14.0714ZM157.944 16H159.872V17.9286H157.944V16ZM156.015 16H157.944V17.9286H156.015V16ZM157.944 19.8571H159.872V21.7857H157.944V19.8571ZM159.872 16H161.801V17.9286H159.872V16ZM159.872 17.9286H161.801V19.8571H159.872V17.9286ZM159.872 19.8571H161.801V21.7857H159.872V19.8571ZM159.872 21.7857H161.801V23.7143H159.872V21.7857ZM159.872 23.7143H161.801V25.6429H159.872V23.7143ZM159.872 25.6429H161.801V27.5714H159.872V25.6429ZM157.944 25.6429H159.872V27.5714H157.944V25.6429ZM157.944 23.7143H159.872V25.6429H157.944V23.7143ZM157.944 21.7857H159.872V23.7143H157.944V21.7857ZM157.944 17.9286H159.872V19.8571H157.944V17.9286ZM156.015 25.6429H157.944V27.5714H156.015V25.6429ZM157.944 27.5714H159.872V29.5H157.944V27.5714ZM156.015 27.5714H157.944V29.5H156.015V27.5714ZM154.086 27.5714H156.015V29.5H154.086V27.5714ZM152.158 27.5714H154.086V29.5H152.158V27.5714ZM150.229 27.5714H152.158V29.5H150.229V27.5714ZM150.229 25.6429H152.158V27.5714H150.229V25.6429ZM152.158 25.6429H154.086V27.5714H152.158V25.6429ZM150.229 23.7143H152.158V25.6429H150.229V23.7143ZM148.301 25.6429H150.229V27.5714H148.301V25.6429ZM148.301 23.7143H150.229V25.6429H148.301V23.7143ZM148.301 21.7857H150.229V23.7143H148.301V21.7857ZM148.301 19.8571H150.229V21.7857H148.301V19.8571ZM148.301 17.9286H150.229V19.8571H148.301V17.9286ZM148.301 16H150.229V17.9286H148.301V16ZM150.229 17.9286H152.158V19.8571H150.229V17.9286ZM150.229 19.8571H152.158V21.7857H150.229V19.8571ZM150.229 21.7857H152.158V23.7143H150.229V21.7857ZM154.086 25.6429H156.015V27.5714H154.086V25.6429ZM154.086 16H156.015V17.9286H154.086V16ZM163.734 16H165.663V17.9286H163.734V16ZM163.734 14.0714H165.663V16H163.734V14.0714ZM165.663 14.0714H167.592V16H165.663V14.0714ZM165.663 16H167.592V17.9286H165.663V16ZM165.663 17.9286H167.592V19.8571H165.663V17.9286ZM165.663 19.8571H167.592V21.7857H165.663V19.8571ZM165.663 21.7857H167.592V23.7143H165.663V21.7857ZM163.734 21.7857H165.663V23.7143H163.734V21.7857ZM163.734 19.8571H165.663V21.7857H163.734V19.8571ZM163.734 17.9286H165.663V19.8571H163.734V17.9286ZM163.734 23.7143H165.663V25.6429H163.734V23.7143ZM165.663 23.7143H167.592V25.6429H165.663V23.7143ZM165.663 25.6429H167.592V27.5714H165.663V25.6429ZM165.663 27.5714H167.592V29.5H165.663V27.5714ZM163.734 27.5714H165.663V29.5H163.734V27.5714ZM163.734 25.6429H165.663V27.5714H163.734V25.6429ZM173.377 27.5714H175.306V29.5H173.377V27.5714ZM175.306 27.5714H177.234V29.5H175.306V27.5714ZM175.306 25.6429H177.234V27.5714H175.306V25.6429ZM175.306 23.7143H177.234V25.6429H175.306V23.7143ZM175.306 21.7857H177.234V23.7143H175.306V21.7857ZM175.306 19.8571H177.234V21.7857H175.306V19.8571ZM175.306 17.9286H177.234V19.8571H175.306V17.9286ZM175.306 16H177.234V17.9286H175.306V16ZM173.377 19.8571H175.306V21.7857H173.377V19.8571ZM173.377 21.7857H175.306V23.7143H173.377V21.7857ZM173.377 23.7143H175.306V25.6429H173.377V23.7143ZM173.377 25.6429H175.306V27.5714H173.377V25.6429ZM173.377 17.9286H175.306V19.8571H173.377V17.9286ZM167.592 16H169.52V17.9286H167.592V16ZM169.52 16H171.449V17.9286H169.52V16ZM171.449 16H173.377V17.9286H171.449V16ZM171.449 14.0714H173.377V16H171.449V14.0714ZM173.377 14.0714H175.306V16H173.377V14.0714ZM173.377 16H175.306V17.9286H173.377V16ZM169.52 14.0714H171.449V16H169.52V14.0714ZM186.867 10.2143H188.796V12.1429H186.867V10.2143ZM188.796 10.2143H190.724V12.1429H188.796V10.2143ZM188.796 12.1429H190.724V14.0714H188.796V12.1429ZM188.796 14.0714H190.724V16H188.796V14.0714ZM188.796 16H190.724V17.9286H188.796V16ZM186.867 14.0714H188.796V16H186.867V14.0714ZM186.867 12.1429H188.796V14.0714H186.867V12.1429ZM186.867 16H188.796V17.9286H186.867V16ZM186.867 17.9286H188.796V19.8571H186.867V17.9286ZM186.867 21.7857H188.796V23.7143H186.867V21.7857ZM186.867 19.8571H188.796V21.7857H186.867V19.8571ZM188.796 17.9286H190.724V19.8571H188.796V17.9286ZM188.796 19.8571H190.724V21.7857H188.796V19.8571ZM188.796 21.7857H190.724V23.7143H188.796V21.7857ZM188.796 23.7143H190.724V25.6429H188.796V23.7143ZM186.867 23.7143H188.796V25.6429H186.867V23.7143ZM186.867 27.5714H188.796V29.5H186.867V27.5714ZM188.796 27.5714H190.724V29.5H188.796V27.5714ZM188.796 25.6429H190.724V27.5714H188.796V25.6429ZM186.867 25.6429H188.796V27.5714H186.867V25.6429ZM198.439 27.5714H200.367V29.5H198.439V27.5714ZM198.439 25.6429H200.367V27.5714H198.439V25.6429ZM198.439 23.7143H200.367V25.6429H198.439V23.7143ZM198.439 21.7857H200.367V23.7143H198.439V21.7857ZM198.439 19.8571H200.367V21.7857H198.439V19.8571ZM198.439 17.9286H200.367V19.8571H198.439V17.9286ZM198.439 10.2143H200.367V12.1429H198.439V10.2143ZM196.51 10.2143H198.439V12.1429H196.51V10.2143ZM196.51 12.1429H198.439V14.0714H196.51V12.1429ZM196.51 14.0714H198.439V16H196.51V14.0714ZM196.51 16H198.439V17.9286H196.51V16ZM198.439 16H200.367V17.9286H198.439V16ZM198.439 14.0714H200.367V16H198.439V14.0714ZM198.439 12.1429H200.367V14.0714H198.439V12.1429ZM196.51 17.9286H198.439V19.8571H196.51V17.9286ZM196.51 25.6429H198.439V27.5714H196.51V25.6429ZM196.51 23.7143H198.439V25.6429H196.51V23.7143ZM196.51 21.7857H198.439V23.7143H196.51V21.7857ZM196.51 19.8571H198.439V21.7857H196.51V19.8571ZM196.51 27.5714H198.439V29.5H196.51V27.5714ZM194.581 17.9286H196.51V19.8571H194.581V17.9286ZM192.653 17.9286H194.581V19.8571H192.653V17.9286ZM190.724 17.9286H192.653V19.8571H190.724V17.9286ZM190.724 19.8571H192.653V21.7857H190.724V19.8571ZM192.653 19.8571H194.581V21.7857H192.653V19.8571ZM194.581 19.8571H196.51V21.7857H194.581V19.8571ZM215.801 27.5714H213.872V25.6429H215.801V27.5714ZM215.801 29.5H213.872V27.5714H215.801V29.5ZM213.872 29.5H211.944V27.5714H213.872V29.5ZM213.872 27.5714H211.944V25.6429H213.872V27.5714ZM213.872 25.6429H211.944V23.7143H213.872V25.6429ZM213.872 23.7143H211.944V21.7857H213.872V23.7143ZM213.872 21.7857H211.944V19.8571H213.872V21.7857ZM215.801 21.7857H213.872V19.8571H215.801V21.7857ZM215.801 23.7143H213.872V21.7857H215.801V23.7143ZM215.801 25.6429H213.872V23.7143H215.801V25.6429ZM215.801 19.8571H213.872V17.9286H215.801V19.8571ZM213.872 19.8571H211.944V17.9286H213.872V19.8571ZM213.872 17.9286H211.944V16H213.872V17.9286ZM213.872 16H211.944V14.0714H213.872V16ZM215.801 16H213.872V14.0714H215.801V16ZM215.801 17.9286H213.872V16H215.801V17.9286ZM206.158 16H204.229V14.0714H206.158V16ZM204.229 16H202.301V14.0714H204.229V16ZM204.229 17.9286H202.301V16H204.229V17.9286ZM204.229 19.8571H202.301V17.9286H204.229V19.8571ZM204.229 21.7857H202.301V19.8571H204.229V21.7857ZM204.229 23.7143H202.301V21.7857H204.229V23.7143ZM204.229 25.6429H202.301V23.7143H204.229V25.6429ZM204.229 27.5714H202.301V25.6429H204.229V27.5714ZM206.158 23.7143H204.229V21.7857H206.158V23.7143ZM206.158 21.7857H204.229V19.8571H206.158V21.7857ZM206.158 19.8571H204.229V17.9286H206.158V19.8571ZM206.158 17.9286H204.229V16H206.158V17.9286ZM206.158 25.6429H204.229V23.7143H206.158V25.6429ZM211.944 27.5714H210.015V25.6429H211.944V27.5714ZM210.015 27.5714H208.086V25.6429H210.015V27.5714ZM208.086 27.5714H206.158V25.6429H208.086V27.5714ZM208.086 29.5H206.158V27.5714H208.086V29.5ZM206.158 29.5H204.229V27.5714H206.158V29.5ZM206.158 27.5714H204.229V25.6429H206.158V27.5714ZM210.015 29.5H208.086V27.5714H210.015V29.5ZM217.734 16H219.663V17.9286H217.734V16ZM217.734 14.0714H219.663V16H217.734V14.0714ZM219.663 14.0714H221.592V16H219.663V14.0714ZM219.663 16H221.592V17.9286H219.663V16ZM219.663 17.9286H221.592V19.8571H219.663V17.9286ZM219.663 19.8571H221.592V21.7857H219.663V19.8571ZM219.663 21.7857H221.592V23.7143H219.663V21.7857ZM217.734 21.7857H219.663V23.7143H217.734V21.7857ZM217.734 19.8571H219.663V21.7857H217.734V19.8571ZM217.734 17.9286H219.663V19.8571H217.734V17.9286ZM217.734 23.7143H219.663V25.6429H217.734V23.7143ZM219.663 23.7143H221.592V25.6429H219.663V23.7143ZM219.663 25.6429H221.592V27.5714H219.663V25.6429ZM219.663 27.5714H221.592V29.5H219.663V27.5714ZM217.734 27.5714H219.663V29.5H217.734V27.5714ZM217.734 25.6429H219.663V27.5714H217.734V25.6429ZM227.377 27.5714H229.306V29.5H227.377V27.5714ZM229.306 25.6429H231.234V27.5714H229.306V25.6429ZM229.306 23.7143H231.234V25.6429H229.306V23.7143ZM229.306 21.7857H231.234V23.7143H229.306V21.7857ZM229.306 19.8571H231.234V21.7857H229.306V19.8571ZM229.306 17.9286H231.234V19.8571H229.306V17.9286ZM229.306 16H231.234V17.9286H229.306V16ZM227.377 19.8571H229.306V21.7857H227.377V19.8571ZM227.377 21.7857H229.306V23.7143H227.377V21.7857ZM227.377 23.7143H229.306V25.6429H227.377V23.7143ZM227.377 25.6429H229.306V27.5714H227.377V25.6429ZM227.377 17.9286H229.306V19.8571H227.377V17.9286ZM221.592 16H223.52V17.9286H221.592V16ZM223.52 16H225.449V17.9286H223.52V16ZM225.449 16H227.377V17.9286H225.449V16ZM225.449 14.0714H227.377V16H225.449V14.0714ZM227.377 14.0714H229.306V16H227.377V14.0714ZM227.377 16H229.306V17.9286H227.377V16ZM223.52 14.0714H225.449V16H223.52V14.0714ZM217.734 10.2143H219.663V12.1429H217.734V10.2143ZM219.663 10.2143H221.592V12.1429H219.663V10.2143ZM219.663 12.1429H221.592V14.0714H219.663V12.1429ZM217.734 12.1429H219.663V14.0714H217.734V12.1429ZM221.592 27.5714H223.52V29.5H221.592V27.5714ZM223.52 27.5714H225.449V29.5H223.52V27.5714ZM225.449 27.5714H227.377V29.5H225.449V27.5714ZM225.449 25.6429H227.377V27.5714H225.449V25.6429ZM223.52 25.6429H225.449V27.5714H223.52V25.6429ZM221.592 25.6429H223.52V27.5714H221.592V25.6429Z"
    fill="#E28424" />
  <defs>
    <clipPath id="clip0_149_4549">
      <rect width="40" height="40" fill="white" />
    </clipPath>
  </defs>
</svg>