<svg width="480" height="480" viewBox="0 0 480 480" fill="none" xmlns="http://www.w3.org/2000/svg">
  <path
    d="M225.443 239.973C225.443 239.973 233.392 250.648 260.378 254.748C287.364 258.847 294.335 253.351 294.335 253.351V239.973L272.686 221.16L234.523 227.243L225.443 239.973Z"
    fill="#AA9517" />
  <path
    d="M188.596 191.138C188.596 191.138 184.904 206.79 203.802 214.239L211.329 197.755L202.601 183.738L188.596 191.138Z"
    fill="#AA9517" />
  <path
    d="M207.322 293.853C207.322 293.853 217.295 318.55 247.788 313.342L250.809 296.291L265.288 295.477L255.781 319.495C255.781 319.495 272.17 329.802 298.584 317.159L286.176 288.23L238.8 266.352L213.632 285.434L207.322 293.853Z"
    fill="#A53232" />
  <path
    d="M160.681 316.102L158.791 321.02L156.54 325.297C156.54 325.297 156.268 327.184 153.78 327.897C151.291 328.608 146.504 328.761 143.516 331.65C140.53 334.54 135.765 342.453 132.036 346.789C128.308 351.126 123.397 351.519 121.844 347.996C120.291 344.472 125.269 323.296 127.848 317.92C130.427 312.544 131.99 311.259 131.741 309.057C131.491 306.854 133.324 301.452 134.443 298.349C135.563 295.247 136.005 292.281 138.674 291.812C141.343 291.344 151.371 297.955 156.389 298.833C161.407 299.71 164.861 299.819 164.598 303.014C164.337 306.211 160.681 316.102 160.681 316.102Z"
    fill="#E24949" />
  <path
    d="M156.085 304.026C150.549 302.465 141.54 301.792 135.995 303.053C134.951 303.29 133.901 303.245 132.881 303.016C132.163 305.391 131.597 307.77 131.743 309.057C131.992 311.259 130.428 312.543 127.85 317.92C125.271 323.296 120.293 344.472 121.846 347.996C123.399 351.52 128.31 351.127 132.038 346.789C135.767 342.453 140.532 334.54 143.518 331.65C146.505 328.761 151.292 328.609 153.781 327.897C156.27 327.185 156.542 325.297 156.542 325.297L158.793 321.02L160.683 316.102C160.683 316.102 163.538 308.374 164.381 304.374C161.376 304.62 158.251 304.638 156.085 304.026Z"
    fill="#C13838" />
  <path
    d="M138.675 291.812C136.006 292.281 135.564 295.246 134.444 298.349C133.325 301.451 131.492 306.854 131.742 309.057C131.991 311.259 130.427 312.543 127.849 317.92C125.27 323.296 120.292 344.472 121.845 347.996C122.571 349.642 124.032 350.422 125.759 350.356C125.793 344.793 128.252 334.834 129.834 329.868C131.627 324.245 134.698 317.599 136.902 313.856C139.106 310.113 139.389 303.571 141.112 299.28C141.941 297.217 143.369 295.288 144.631 293.837C141.997 292.577 139.743 291.625 138.675 291.812Z"
    fill="#FF7373" />
  <path
    d="M121.845 347.996C121.939 348.208 122.046 348.405 122.163 348.59C122.213 348.667 122.271 348.734 122.325 348.807C122.396 348.904 122.465 349.004 122.543 349.092C122.624 349.182 122.712 349.26 122.798 349.34C122.858 349.396 122.915 349.454 122.978 349.505C123.087 349.594 123.204 349.67 123.323 349.745C123.369 349.774 123.413 349.807 123.46 349.834C123.597 349.912 123.741 349.98 123.889 350.041C123.921 350.054 123.95 350.069 123.982 350.081C124.146 350.144 124.315 350.196 124.49 350.237C124.507 350.241 124.524 350.245 124.541 350.249C124.728 350.292 124.92 350.321 125.117 350.34C125.122 350.341 125.127 350.341 125.132 350.341C125.337 350.359 125.546 350.365 125.759 350.356C125.793 344.793 128.252 334.834 129.834 329.869C131.627 324.245 134.698 317.599 136.902 313.856C138.606 310.962 139.164 306.399 140.124 302.493C138.63 302.594 137.223 302.773 135.994 303.053C134.95 303.29 133.9 303.245 132.88 303.016C132.613 303.9 132.368 304.783 132.172 305.61C132.164 305.643 132.157 305.675 132.15 305.707C132.098 305.931 132.049 306.149 132.006 306.363C131.99 306.436 131.978 306.506 131.964 306.578C131.93 306.749 131.9 306.916 131.872 307.078C131.859 307.16 131.846 307.239 131.834 307.319C131.812 307.467 131.794 307.609 131.778 307.748C131.77 307.826 131.76 307.904 131.753 307.979C131.741 308.118 131.734 308.247 131.729 308.375C131.727 308.436 131.723 308.501 131.722 308.558C131.72 308.735 131.725 308.9 131.743 309.049C131.743 309.051 131.743 309.054 131.743 309.056C131.79 309.469 131.772 309.85 131.697 310.231C131.621 310.612 131.487 310.994 131.3 311.411C131.175 311.688 131.027 311.98 130.857 312.298C130.174 313.567 129.139 315.231 127.85 317.919C126.399 320.943 124.189 328.967 122.81 336.036C122.58 337.213 122.373 338.365 122.196 339.463C122.02 340.56 121.874 341.604 121.765 342.565C121.693 343.207 121.638 343.812 121.601 344.372C121.583 344.653 121.57 344.921 121.561 345.179C121.519 346.464 121.602 347.445 121.845 347.996Z"
    fill="#E24949" />
  <path
    d="M223.361 389.516L225.391 394.379L226.717 399.026C226.717 399.026 227.823 400.579 226.515 402.812C225.206 405.045 221.849 408.462 221.684 412.615C221.52 416.768 223.539 425.781 223.837 431.492C224.136 437.203 220.857 440.879 217.299 439.403C213.742 437.928 202.718 419.174 200.87 413.506C199.022 407.837 199.266 405.827 197.565 404.407C195.864 402.987 193.457 397.813 192.125 394.796C190.792 391.78 189.063 389.329 190.67 387.147C192.277 384.965 204.096 382.821 208.331 379.99C212.565 377.159 215.139 374.852 217.156 377.345C219.174 379.837 223.361 389.516 223.361 389.516Z"
    fill="#E24949" />
  <path
    d="M223.505 389.861L223.361 389.516C223.361 389.516 219.174 379.837 217.156 377.344C215.139 374.851 212.565 377.158 208.331 379.989C204.096 382.82 192.277 384.964 190.67 387.146C189.063 389.328 190.791 391.779 192.125 394.795C193.457 397.811 195.864 402.985 197.565 404.406C199.266 405.826 199.022 407.836 200.87 413.505C202.252 417.741 208.757 429.284 213.441 435.464C211.164 425.013 211.024 408.779 210.995 402.696C210.96 395.699 215.569 394.201 215.569 394.201L216.59 388.165C216.59 388.165 221.156 389.437 223.505 389.861Z"
    fill="#C13838" />
  <path
    d="M233.879 371.637C233.879 371.637 232.365 368.231 227.749 369.428C223.135 370.625 214.561 379.765 213.097 381.94C211.633 384.114 210.064 387.861 211.675 390.65C213.285 393.44 216.886 395.436 219.449 394.858C222.013 394.279 225.513 396.306 226.717 399.026C226.717 399.026 226.023 394.805 229.289 392.858C232.555 390.912 241.141 390.637 241.437 386.504C241.734 382.37 233.879 371.637 233.879 371.637Z"
    fill="#F2D611" />
  <path
    d="M235.169 373.477C234.401 372.351 233.88 371.637 233.88 371.637C233.88 371.637 232.366 368.231 227.75 369.428C223.136 370.625 214.562 379.765 213.098 381.94C211.634 384.114 210.065 387.861 211.676 390.65C212.55 392.163 214.009 393.438 215.571 394.2C217.336 391.619 219.719 388.787 222.691 386.73C229.688 381.887 232.598 384.497 232.598 384.497C229.231 379.573 229.948 371.91 229.948 371.91C229.948 371.91 234.388 373.684 235.169 373.477Z"
    fill="#E0AD0B" />
  <path
    d="M173.3 305.708C170.052 304.539 166.68 305.612 164.034 305.061C163.408 304.874 162.837 304.731 162.384 304.668C159.525 304.279 156.276 303.108 153.937 304.929C151.597 306.748 149.388 312.986 150.688 315.715C151.988 318.444 157.576 320.004 156.666 325.072C156.666 325.072 159.525 322.603 160.695 322.863C161.865 323.124 163.914 327.282 167.503 327.022C171.092 326.762 175.641 310.257 175.641 310.257C175.641 310.257 176.55 306.877 173.3 305.708Z"
    fill="#F2D611" />
  <path
    d="M172.521 315.53L168.059 324.476C168.059 324.476 166.027 322.723 166.369 319.495C166.547 317.82 168.164 313.356 169.697 309.408C167.903 308.915 165.66 308.766 163.029 307.518C158.139 305.199 156.085 304.026 156.085 304.026C155.317 304.15 154.591 304.419 153.936 304.928C151.596 306.747 149.388 312.985 150.687 315.714C151.987 318.444 157.575 320.003 156.665 325.071C156.665 325.071 159.524 322.602 160.694 322.862C161.864 323.123 163.913 327.281 167.502 327.021C170.082 326.834 173.158 318.252 174.684 313.442C174.389 313.397 174.125 313.295 173.894 313.136L172.521 315.53Z"
    fill="#E0AD0B" />
  <path
    d="M251.682 300.301C251.682 300.301 240.138 321.276 232.197 329.913C224.256 338.549 217.347 340.277 209.204 339.537C201.061 338.796 167.503 324.238 167.503 324.238C167.503 324.238 168.243 313.381 172.438 308.446C172.438 308.446 187.737 311.16 194.399 310.913C201.061 310.667 204.763 308.693 211.919 312.394C211.919 312.394 213.219 291.698 223.335 280.101C233.452 268.503 244.831 281.796 244.831 281.796L251.682 300.301Z"
    fill="#FFBF8F" />
  <path
    d="M244.831 281.795C244.831 281.795 233.452 268.501 223.335 280.099C213.218 291.697 211.919 312.392 211.919 312.392C204.763 308.691 201.061 310.665 194.399 310.911C187.737 311.158 172.438 308.444 172.438 308.444C168.243 313.38 167.503 324.236 167.503 324.236C167.503 324.236 201.061 338.795 209.204 339.535C212.958 339.876 216.449 339.681 219.901 338.537C216.702 337.859 212.983 336.799 209.592 335.14C201.431 331.146 200.456 319.271 211.329 319.494C222.202 319.716 227.154 294.902 227.154 294.902C235.495 295.578 242.671 305.13 245.924 310.212C249.283 304.656 251.681 300.3 251.681 300.3L244.831 281.795Z"
    fill="#E8A370" />
  <path
    d="M292.803 309.195C292.803 309.195 258.894 296.562 258.396 307.533C258.031 315.555 264.185 340.847 264.185 340.847C255.59 343.435 249.412 350.079 243.401 357.791C237.391 365.503 229.946 371.911 229.946 371.911C229.946 371.911 231.112 378.788 238.079 385.085C238.079 385.085 249.797 379.902 259.627 374.431C284.476 360.601 289.678 349.362 289.945 348.637C291.001 345.763 291.244 336.637 291.259 336.27C292.525 323.563 292.803 309.195 292.803 309.195Z"
    fill="#FFBF8F" />
  <path
    d="M258.396 307.532C258.031 315.554 264.185 340.846 264.185 340.846C255.59 343.434 249.412 350.078 243.401 357.79C237.391 365.502 229.946 371.91 229.946 371.91C229.946 371.91 230.66 376.046 234.222 380.838C237.048 377.052 241.115 372.069 246.411 366.772C257.557 355.625 270.561 349.257 272.949 344.068C275.338 338.879 269.765 329.352 271.092 322.452C272.418 315.552 279.053 316.349 287.28 316.505C289.525 316.548 291.238 316.567 292.563 316.572C292.743 312.156 292.802 309.193 292.802 309.193C292.802 309.193 258.894 296.562 258.396 307.532Z"
    fill="#E8A370" />
  <path
    d="M283.119 260.747L289.92 253.832C289.92 253.832 290.961 241.461 286.387 231.61C281.813 221.758 262.863 207.6 262.863 207.6L237.063 217.402L232.197 238.058L283.119 260.747Z"
    fill="#E8A370" />
  <path
    d="M177.719 150.759L172.171 147.651L170.148 151.02L168.391 151.438L166.778 154.843L166.666 155.682L165.386 155.83L164.427 160.246L164.559 164.336L170.982 167.433L178.148 161.492L177.719 150.759Z"
    fill="#E8A370" />
  <path
    d="M250.223 78.8756L250.425 78.5741C251.713 76.5956 252.988 74.4125 254.046 72.3572L253.678 72.9082L251.182 71.2416L252.849 68.7456L255.035 70.2048C255.093 70.0676 255.152 69.9303 255.211 69.793L253.093 68.3789L254.76 65.8829L256.343 66.9399C256.387 66.7796 256.421 66.6327 256.454 66.4848L255.005 65.5172L256.671 63.0212L256.683 63.0288C256.705 62.7178 256.73 62.4068 256.758 62.0996L256.549 62.4116L254.053 60.745L255.719 58.249L257.023 59.1188C257.034 58.946 257.043 58.777 257.051 58.608L255.964 57.8823L257.016 56.306C256.999 56.0141 256.984 55.7761 256.972 55.5793L255.597 57.6385L253.101 55.9728L254.768 53.4769L256.932 54.9216C256.916 54.6653 256.915 54.6586 256.915 54.6586L256.817 54.3169L255.012 53.1111L256.033 51.5799L255.874 51.025L254.645 52.8663L252.149 51.1997L253.815 48.7037L255.539 49.8538L255.351 49.1991L254.06 48.337L254.493 47.689L254.202 47.3319L253.694 48.0922L251.198 46.4257L252.218 44.8983L251.927 44.5412L250.833 46.1808L248.337 44.5152L249.477 42.8065L249.111 42.5616L247.971 44.2705L245.475 42.6039L246.221 41.4865C246.04 41.4951 245.858 41.5047 245.674 41.5133L245.109 42.3591L243.967 41.5959C243.719 41.6084 243.472 41.6199 243.228 41.6314L244.865 42.7249L243.199 45.2208L240.703 43.5543L241.946 41.6929C241.761 41.7015 241.579 41.7101 241.4 41.7188L240.337 43.3105L238.179 41.8695C237.714 41.8906 237.438 41.9041 237.438 41.9041C237.438 41.9041 237.281 41.9732 237.011 42.096L235.565 44.2618L234.259 43.3901C234.11 43.4631 233.957 43.537 233.801 43.6138L235.32 44.6276L233.654 47.1236L231.158 45.458L231.671 44.69C231.401 44.8301 231.13 44.9722 230.856 45.1181L230.792 45.2141L230.74 45.1796C230.594 45.2573 230.447 45.336 230.301 45.4157L230.548 45.5799L228.881 48.0759L227.393 47.0832C227.255 47.1677 227.117 47.2532 226.982 47.3377L228.637 48.4426L226.971 50.9386L224.475 49.2721L224.718 48.9082C224.151 49.3536 223.678 49.7837 223.333 50.1898L222.199 51.89L222.144 51.8593C222.067 51.9773 221.988 52.1069 221.909 52.2308L221.951 52.2596L221.214 53.3645C220.356 54.8017 219.425 56.4989 218.543 58.2596L220.992 59.8944L219.325 62.3904L217.238 60.9975C217.177 61.1338 217.117 61.2701 217.057 61.4055L219.082 62.7572L217.416 65.2532L215.904 64.2442C215.851 64.3882 215.8 64.5312 215.751 64.6714L217.171 65.6199L215.505 68.1159L214.962 67.753C214.942 67.9344 214.932 68.1034 214.932 68.2618L215.261 68.4816L214.956 68.9386C214.973 69.1594 214.997 69.3888 215.027 69.626L215.627 68.7264L218.123 70.392L216.456 72.8881L215.523 72.265C215.574 72.4762 215.628 72.6874 215.683 72.9015L216.211 73.2538L215.905 73.7137C215.958 73.897 216.011 74.0813 216.066 74.2657L216.578 73.4986L219.074 75.1652L217.407 77.6612L217.208 77.5277C217.311 77.786 217.416 78.0375 217.522 78.2823L217.529 78.2708L220.025 79.9373L219.131 81.2775C219.219 81.3956 219.327 81.5127 219.424 81.6308L220.391 80.1821L222.887 81.8477L221.746 83.5565L222.111 83.8013L223.252 82.0925L225.748 83.7581L224.606 85.4669L224.972 85.7117L226.113 84.0029L228.609 85.6695L227.641 87.12C227.787 87.1623 227.935 87.2036 228.087 87.2448L228.975 85.9143L231.471 87.5809L231.43 87.6423C231.708 87.626 231.985 87.602 232.262 87.5799L232.081 87.4589L233.748 84.9629L236.244 86.6285L235.898 87.1469C236.096 87.1172 236.293 87.0816 236.491 87.0509L236.61 86.8733L236.801 87.001C237.013 86.9664 237.227 86.9338 237.439 86.8973L236.854 86.5076L238.521 84.0116L241.017 85.6781L240.61 86.2877C240.816 86.2436 241.023 86.1994 241.229 86.1533L241.382 85.9229L241.605 86.0717C241.665 86.0583 241.725 86.0468 241.785 86.0324C241.921 86.0007 242.047 85.9594 242.18 85.9258L241.626 85.5562L243.293 83.0602L245.337 84.4244C245.472 84.338 245.608 84.2535 245.739 84.1632L243.538 82.6935L245.203 80.1975L247.699 81.8631L246.615 83.4874C247.012 83.1495 247.382 82.7981 247.69 82.4141C248.303 81.648 248.956 80.7495 249.617 79.7828L249.976 79.2452L249.981 79.249C250.062 79.129 250.142 79.0033 250.222 78.8813L250.223 78.8756ZM221.237 59.5277L218.741 57.8612L220.407 55.3652L222.903 57.0317L221.237 59.5277ZM223.147 56.665L220.651 54.9985L222.317 52.5024L224.813 54.169L223.147 56.665ZM225.058 53.8032L222.562 52.1367L224.228 49.6407L226.724 51.3072L225.058 53.8032ZM218.367 70.0234L215.871 68.3578L217.538 65.8618L220.034 67.5274L218.367 70.0234ZM220.278 67.1616L217.782 65.496L219.447 63L221.943 64.6656L220.278 67.1616ZM222.188 64.2999L219.692 62.6343L221.358 60.1383L223.854 61.8039L222.188 64.2999ZM224.099 61.4381L221.603 59.7725L223.268 57.2765L225.764 58.9421L224.099 61.4381ZM226.009 58.5754L223.513 56.9098L225.179 54.4138L227.675 56.0794L226.009 58.5754ZM227.919 55.7136L225.423 54.048L227.09 51.5521L229.586 53.2177L227.919 55.7136ZM229.83 52.8519L227.334 51.1863L229 48.6903L231.496 50.3559L229.83 52.8519ZM231.74 49.9892L229.244 48.3236L230.911 45.8276L233.407 47.4932L231.74 49.9892ZM219.319 74.7965L216.823 73.13L218.489 70.634L220.985 72.2996L219.319 74.7965ZM221.229 71.9338L218.733 70.2673L220.4 67.7712L222.896 69.4378L221.229 71.9338ZM223.14 69.072L220.644 67.4055L222.309 64.9095L224.805 66.576L223.14 69.072ZM225.05 66.2103L222.554 64.5437L224.22 62.0477L226.716 63.7143L225.05 66.2103ZM226.96 63.3485L224.464 61.682L226.13 59.186L228.626 60.8525L226.96 63.3485ZM228.871 60.4858L226.375 58.8193L228.04 56.3232L230.536 57.9898L228.871 60.4858ZM230.781 57.6241L228.285 55.9575L229.952 53.4615L232.448 55.128L230.781 57.6241ZM232.692 54.7623L230.196 53.0957L231.862 50.5997L234.358 52.2663L232.692 54.7623ZM234.602 51.9005L232.106 50.234L233.772 47.738L236.268 49.4045L234.602 51.9005ZM236.512 49.0378L234.016 47.3713L235.682 44.8752L238.178 46.5418L236.512 49.0378ZM238.423 46.176L235.927 44.5095L237.593 42.0135L240.089 43.68L238.423 46.176ZM220.27 79.5687L217.774 77.9021L219.441 75.4061L221.937 77.0727L220.27 79.5687ZM222.18 76.7069L219.684 75.0404L221.351 72.5444L223.847 74.2109L222.18 76.7069ZM224.091 73.8452L221.595 72.1786L223.261 69.6826L225.757 71.3492L224.091 73.8452ZM226.001 70.9825L223.505 69.3159L225.171 66.8199L227.667 68.4864L226.001 70.9825ZM227.912 68.1207L225.416 66.4541L227.082 63.9581L229.578 65.6247L227.912 68.1207ZM229.822 65.2589L227.326 63.5933L228.992 61.0973L231.488 62.7639L229.822 65.2589ZM231.732 62.3962L229.236 60.7296L230.902 58.2337L233.398 59.9002L231.732 62.3962ZM233.643 59.5344L231.147 57.8679L232.813 55.3719L235.309 57.0385L233.643 59.5344ZM235.553 56.6727L233.057 55.0061L234.724 52.5101L237.22 54.1767L235.553 56.6727ZM237.465 53.8109L234.969 52.1444L236.635 49.6484L239.131 51.3149L237.465 53.8109ZM239.375 50.9482L236.879 49.2816L238.545 46.7857L241.041 48.4522L239.375 50.9482ZM241.285 48.0865L238.789 46.4199L240.456 43.9239L242.952 45.5905L241.285 48.0865ZM223.132 81.4791L220.636 79.8125L222.302 77.3165L224.798 78.9821L223.132 81.4791ZM225.043 78.6173L222.547 76.9508L224.214 74.4548L226.71 76.1204L225.043 78.6173ZM226.954 75.7556L224.458 74.089L226.124 71.593L228.62 73.2596L226.954 75.7556ZM228.864 72.8928L226.368 71.2272L228.034 68.7313L230.53 70.3969L228.864 72.8928ZM230.774 70.0311L228.278 68.3645L229.945 65.8685L232.441 67.5341L230.774 70.0311ZM232.685 67.1693L230.189 65.5028L231.855 63.0068L234.351 64.6724L232.685 67.1693ZM234.595 64.3076L232.099 62.641L233.765 60.145L236.261 61.8116L234.595 64.3076ZM236.506 61.4458L234.01 59.7792L235.676 57.2832L238.172 58.9498L236.506 61.4458ZM238.416 58.5831L235.92 56.9165L237.587 54.4205L240.083 56.0871L238.416 58.5831ZM240.326 55.7213L237.83 54.0548L239.497 51.5588L241.993 53.2253L240.326 55.7213ZM242.237 52.8586L239.741 51.1921L241.406 48.696L243.902 50.3626L242.237 52.8586ZM244.147 49.9969L241.651 48.3303L243.318 45.8343L245.814 47.5008L244.147 49.9969ZM246.058 47.1351L243.562 45.4685L245.227 42.9725L247.723 44.6391L246.058 47.1351ZM225.994 83.3895L223.498 81.7239L225.163 79.2279L227.659 80.8935L225.994 83.3895ZM227.905 80.5277L225.409 78.8621L227.076 76.3661L229.572 78.0317L227.905 80.5277ZM229.815 77.665L227.319 75.9994L228.986 73.5034L231.482 75.169L229.815 77.665ZM231.726 74.8032L229.23 73.1376L230.895 70.6416L233.391 72.3072L231.726 74.8032ZM233.636 71.9415L231.14 70.2759L232.807 67.7799L235.303 69.4455L233.636 71.9415ZM235.547 69.0797L233.051 67.4141L234.717 64.9181L237.213 66.5837L235.547 69.0797ZM237.457 66.217L234.961 64.5514L236.627 62.0554L239.123 63.721L237.457 66.217ZM239.367 63.3553L236.871 61.6897L238.538 59.1936L241.034 60.8592L239.367 63.3553ZM241.278 60.4935L238.782 58.8279L240.448 56.3319L242.944 57.9975L241.278 60.4935ZM243.188 57.6317L240.692 55.9661L242.359 53.4701L244.855 55.1357L243.188 57.6317ZM245.099 54.769L242.603 53.1034L244.268 50.6074L246.764 52.273L245.099 54.769ZM247.009 51.9072L244.513 50.2416L246.18 47.7457L248.676 49.4113L247.009 51.9072ZM248.919 49.0455L246.423 47.3799L248.09 44.8839L250.586 46.5495L248.919 49.0455ZM228.856 85.2999L226.36 83.6333L228.026 81.1373L230.522 82.8039L228.856 85.2999ZM230.767 82.4381L228.271 80.7716L229.937 78.2756L232.433 79.9421L230.767 82.4381ZM232.677 79.5764L230.181 77.9098L231.848 75.4138L234.344 77.0804L232.677 79.5764ZM234.588 76.7137L232.092 75.0471L233.757 72.5511L236.253 74.2176L234.588 76.7137ZM236.498 73.8519L234.002 72.1863L235.668 69.6903L238.164 71.3569L236.498 73.8519ZM238.408 70.9901L235.912 69.3245L237.579 66.8285L240.075 68.4951L238.408 70.9901ZM240.319 68.1274L237.823 66.4618L239.488 63.9658L241.984 65.6324L240.319 68.1274ZM242.229 65.2656L239.733 63.6L241.4 61.1041L243.896 62.7706L242.229 65.2656ZM244.14 62.4039L241.644 60.7383L243.31 58.2423L245.806 59.9088L244.14 62.4039ZM246.05 59.5421L243.554 57.8765L245.22 55.3805L247.716 57.0471L246.05 59.5421ZM247.96 56.6794L245.464 55.0128L247.13 52.5169L249.626 54.1834L247.96 56.6794ZM249.871 53.8177L247.375 52.1511L249.041 49.6551L251.537 51.3216L249.871 53.8177ZM251.781 50.9559L249.285 49.2893L250.952 46.7933L253.448 48.4599L251.781 50.9559ZM231.718 87.2103L229.222 85.5447L230.888 83.0487L233.384 84.7153L231.718 87.2103ZM233.628 84.3485L231.132 82.6829L232.799 80.1869L235.295 81.8535L233.628 84.3485ZM235.54 81.4868L233.044 79.8212L234.71 77.3252L237.206 78.9917L235.54 81.4868ZM237.45 78.6241L234.954 76.9585L236.62 74.4625L239.116 76.129L237.45 78.6241ZM239.36 75.7623L236.864 74.0957L238.53 71.5997L241.026 73.2653L239.36 75.7623ZM241.271 72.9005L238.775 71.2349L240.442 68.7389L242.938 70.4055L241.271 72.9005ZM243.181 70.0378L240.685 68.3722L242.351 65.8762L244.847 67.5428L243.181 70.0378ZM245.091 67.177L242.595 65.5104L244.261 63.0144L246.757 64.681L245.091 67.177ZM247.002 64.3143L244.506 62.6477L246.173 60.1517L248.669 61.8183L247.002 64.3143ZM248.913 61.4525L246.417 59.786L248.083 57.29L250.579 58.9565L248.913 61.4525ZM250.823 58.5898L248.327 56.9232L249.993 54.4272L252.489 56.0938L250.823 58.5898ZM252.733 55.728L250.237 54.0615L251.904 51.5655L254.4 53.2311L252.733 55.728ZM236.49 86.2589L233.994 84.5933L235.661 82.0973L238.157 83.7629L236.49 86.2589ZM238.401 83.3962L235.905 81.7306L237.571 79.2346L240.067 80.9002L238.401 83.3962ZM240.312 80.5344L237.816 78.8688L239.482 76.3728L241.978 78.0384L240.312 80.5344ZM242.221 77.6727L239.725 76.0071L241.391 73.5111L243.887 75.1767L242.221 77.6727ZM244.133 74.8109L241.637 73.1453L243.303 70.6493L245.799 72.3149L244.133 74.8109ZM246.043 71.9482L243.547 70.2826L245.213 67.7866L247.709 69.4522L246.043 71.9482ZM247.953 69.0864L245.457 67.4209L247.123 64.9248L249.619 66.5904L247.953 69.0864ZM249.864 66.2247L247.368 64.5591L249.035 62.0631L251.531 63.7287L249.864 66.2247ZM251.774 63.3629L249.278 61.6973L250.945 59.2013L253.441 60.8669L251.774 63.3629ZM253.685 60.5002L251.189 58.8346L252.854 56.3386L255.35 58.0042L253.685 60.5002ZM241.263 85.3076L238.767 83.641L240.434 81.145L242.93 82.8116L241.263 85.3076ZM243.174 82.4448L240.678 80.7783L242.343 78.2823L244.839 79.9488L243.174 82.4448ZM245.084 79.5831L242.588 77.9165L244.254 75.4205L246.75 77.0871L245.084 79.5831ZM246.995 76.7213L244.499 75.0548L246.164 72.5588L248.66 74.2253L246.995 76.7213ZM248.905 73.8596L246.409 72.193L248.075 69.697L250.571 71.3636L248.905 73.8596ZM250.815 70.9969L248.319 69.3303L249.986 66.8343L252.482 68.4999L250.815 70.9969ZM252.726 68.1351L250.23 66.4685L251.896 63.9725L254.392 65.6391L252.726 68.1351ZM254.636 65.2733L252.14 63.6068L253.807 61.1108L256.303 62.7773L254.636 65.2733ZM247.946 81.4935L245.45 79.8269L247.116 77.3309L249.612 78.9965L247.946 81.4935ZM249.856 78.6317L247.36 76.9652L249.027 74.4692L251.523 76.1348L249.856 78.6317ZM251.767 75.77L249.271 74.1034L250.936 71.6074L253.432 73.273L251.767 75.77Z"
    fill="#D6FFA6" />
  <path
    d="M251.416 42.6019C241.696 36.1133 225.894 44.0573 218.259 55.4947C211.714 65.3002 212.39 76.1213 219.542 83.112C220.172 83.7274 220.54 84.5222 220.628 85.3459C220.717 86.1696 220.525 87.023 220.036 87.7546L181.852 144.958L177.105 147.518L183.023 151.469L183.567 146.103L221.751 88.8998C222.083 88.4035 222.517 88.0128 223.01 87.7392C223.973 87.2045 225.157 87.119 226.229 87.575C235.428 91.4986 245.68 87.9734 252.226 78.168C259.861 66.7306 261.137 49.0906 251.416 42.6019ZM223.835 83.9232C214.721 77.8397 213.183 66.8842 220.008 56.6611C226.948 46.2643 241.67 38.6218 250.251 44.3491C258.831 50.0765 257.419 66.6048 250.479 77.0006C243.655 87.2246 232.947 90.0067 223.835 83.9232Z"
    fill="#754AA3" />
  <path d="M183.016 151.468L177.097 147.517L163.443 167.971L169.362 171.922L183.016 151.468Z" fill="#E24949" />
  <path d="M169.372 171.923L163.453 167.972L162.316 169.039L168.904 173.436L169.372 171.923Z" fill="#754AA3" />
  <path
    d="M208.264 184.632L197.251 188.292C197.251 188.292 188.437 194.694 184.704 197.987C184.616 195.563 184.309 193.19 183.598 191.321C181.245 185.134 181.503 179.541 182.067 173.5C182.63 167.459 185.234 162.628 185.025 158.705C184.815 154.783 183.486 153.748 180.834 151.619C178.183 149.491 175.491 147.663 174.754 149.522C174.015 151.38 177.654 151.622 177.989 154.603C178.324 157.584 175.103 159.714 174.676 162.903C174.676 162.903 171.741 166.549 170.735 168.587C169.728 170.626 169.371 171.923 169.371 171.923C169.371 171.923 171.588 175.013 170.784 179.197C169.98 183.382 163.429 212.227 166.784 218.246C170.138 224.265 180.439 222.405 187.044 220.164C193.175 218.617 211.891 206.48 214.777 200.56C217.663 194.641 208.264 184.632 208.264 184.632Z"
    fill="#FFBF8F" />
  <path
    d="M214.335 201.323L204.017 186.044L197.252 188.292C197.252 188.292 194.909 189.996 192.129 192.093C192.21 192.161 192.279 192.229 192.37 192.298C198.73 197.123 199.607 207.6 199.607 207.6C199.607 207.6 181.403 215.766 177.99 216.863C174.576 217.959 173.508 213.353 172.965 207.6C172.423 201.847 174.165 184.841 175.096 180.015C176.028 175.19 173.288 172.997 173.239 169.488C173.19 165.979 177.107 167.021 177.107 167.021C177.107 167.021 176.139 165.101 175.978 162.026C175.931 161.126 176.086 160.118 176.325 159.141C175.596 160.299 174.865 161.498 174.677 162.903C174.677 162.903 171.742 166.549 170.736 168.588C169.729 170.626 169.372 171.923 169.372 171.923C169.372 171.923 171.589 175.013 170.785 179.197C169.98 183.382 163.43 212.227 166.785 218.246C170.139 224.265 180.44 222.405 187.044 220.164C192.924 218.681 210.368 207.462 214.335 201.323Z"
    fill="#E8A370" />
  <path
    d="M174.754 153.291C174.754 153.291 173.574 147.745 171.577 147.366C169.58 146.987 168.176 149.518 169.837 152.49C171.499 155.461 173.917 156.948 174.654 156.108C175.587 155.045 174.754 153.291 174.754 153.291Z"
    fill="#FFBF8F" />
  <path
    d="M172.021 155.642C172.021 155.642 169.113 150.775 167.101 151.062C165.088 151.349 164.578 154.198 167.111 156.473C169.645 158.748 172.413 159.373 172.838 158.34C173.377 157.032 172.021 155.642 172.021 155.642Z"
    fill="#FFBF8F" />
  <path
    d="M170.127 159.5C170.127 159.5 166.417 155.213 164.485 155.845C162.554 156.478 162.546 159.372 165.436 161.172C168.326 162.972 171.161 163.106 171.401 162.015C171.704 160.634 170.127 159.5 170.127 159.5Z"
    fill="#FFBF8F" />
  <path
    d="M168.394 163.812C168.394 163.812 164.683 159.524 162.752 160.157C160.82 160.789 160.812 163.684 163.702 165.484C166.593 167.284 169.428 167.417 169.668 166.327C169.97 164.945 168.394 163.812 168.394 163.812Z"
    fill="#FFBF8F" />
  <path
    d="M356.308 86.9137C355.466 86.4231 355.715 89.0468 355.887 91.9748C356.06 94.9037 355.346 97.5533 355.346 97.5533C355.346 97.5533 355.489 93.0529 354.942 90.1229C354.389 87.1585 352.872 82.9229 351.863 83.042C350.854 83.161 351.537 86.0506 352.164 88.9575C352.792 91.8644 351.685 95.2052 351.685 95.2052C351.685 95.2052 351.728 90.9581 351.1 88.0513C350.472 85.1444 347.689 80.1572 346.735 80.5575C345.78 80.9569 346.565 82.6177 347.57 85.4007C348.232 87.2343 348.497 90.4311 348.602 92.4039C348.246 89.6189 346.832 86.3924 346.25 85.1108C345.542 83.5527 343.584 81.169 342.63 81.5693C341.676 81.9687 344.902 89.3511 344.52 92.377C344.138 95.4029 340.147 101.964 340.147 101.964C338.648 96.6567 334.894 92.7322 333.734 93.4829C332.575 94.2337 336.354 101.933 336.428 104.131C336.472 105.443 337.308 108.502 337.977 110.763C337.956 110.755 337.936 110.747 337.916 110.739C335.962 114.51 325.092 129.771 318.488 135.603C313.09 140.369 309.768 145.776 307.382 149.174C307.162 149.308 306.935 149.451 306.734 149.551C303.573 151.138 287.682 152.941 287.682 152.941C287.682 152.941 292.258 171.257 298.681 171.323C302.796 171.364 311.692 167.091 318.279 164.179C318.279 164.179 322.669 161.188 326.181 156.782C326.184 156.78 326.185 156.778 326.188 156.775C326.339 156.614 326.483 156.458 326.627 156.302L326.628 156.303L326.633 156.296C327.233 155.644 327.773 155.031 328.222 154.483C332.253 149.564 343.329 123.502 346.86 116.727C348.332 115.268 352.551 111.001 354.158 108.448C356.768 104.305 357.967 99.3965 358.383 95.378C358.799 91.3575 357.15 87.4042 356.308 86.9137Z"
    fill="#FFBF8F" />
  <path
    d="M358.4 92.9434C358.048 94.6368 355.791 105.004 352.476 108.319C348.863 111.932 346.023 113.352 344.733 113.352C343.443 113.352 341.378 110.9 341.378 110.9C341.378 110.9 341.342 113.464 343.666 115.527C343.666 115.527 338.668 128.384 333.892 136.808C329.117 145.232 320.507 156.116 317.796 157.632C315.086 159.148 302.658 164.978 302.658 164.978C302.658 164.978 301.397 155.568 297.188 153.82C294.773 152.817 293.277 159.612 292.44 165.588C294.174 168.764 296.3 171.299 298.681 171.323C302.796 171.364 311.692 167.091 318.279 164.179C318.279 164.179 322.669 161.188 326.181 156.782C326.184 156.78 326.185 156.778 326.188 156.775C326.339 156.614 326.483 156.458 326.627 156.302L326.628 156.303L326.633 156.296C327.233 155.644 327.773 155.031 328.222 154.483C332.253 149.564 343.329 123.502 346.86 116.727C348.332 115.268 352.551 111.001 354.158 108.448C356.768 104.305 357.967 99.3955 358.383 95.3779C358.468 94.5523 358.463 93.7325 358.4 92.9434Z"
    fill="#E8A370" />
  <path
    d="M293.898 149.922C293.898 149.922 288.254 150.448 281.074 150.186C277.699 150.062 274.266 149.957 270.99 150.15C269.415 150 267.871 149.986 266.383 150.198C260.242 151.075 250.257 154.481 250.257 154.481L224.18 160.561C224.18 160.561 215.208 165.405 211.406 168.182C207.605 170.96 200.879 180.025 196.493 184.118C192.107 188.213 188.597 191.137 188.597 191.137C188.597 191.137 196.785 191.722 201.171 199.618C205.557 207.514 203.803 214.239 203.803 214.239C203.803 214.239 221.916 203.712 223.826 199.618C223.826 199.618 228.367 205.466 230.706 212.777C233.046 220.088 225.735 232.663 225.443 239.973C225.443 239.973 256.733 229.446 276.91 237.634C295.365 245.123 294.494 252.607 294.211 253.832C294.637 252.228 297.724 239.907 294.311 231.61C290.654 222.72 287.145 220.51 286.56 207.286C285.975 194.062 286.267 184.412 285.098 179.148C285.098 179.148 294.823 176.804 299.202 176.201C299.837 176.385 300.444 176.394 301.019 176.075C301.019 176.075 302.1 155.997 293.898 149.922Z"
    fill="#F2D611" />
  <path
    d="M244.441 127.711C248.582 119.722 246.722 112.377 246.722 112.377C246.034 115.474 245.001 117.023 245.001 117.023C246.205 106.354 240.327 97.2556 240.327 97.2556C240.327 97.2556 237.802 99.5164 231.78 102.785C228.417 104.611 223.63 105.287 219.201 107C220.573 105.084 222.112 104.145 222.112 104.145C204.93 109.843 207.527 120.543 208.636 123.516C208.707 123.847 208.788 124.16 208.874 124.454C207.514 126.553 206.289 130.373 207.977 136.806C209.19 141.423 212.211 144.396 215.732 146.164L215.733 146.166C215.733 146.166 223.86 150.392 221.413 156.49C221.413 156.49 228.742 153.885 226.378 148.285C227.829 148.197 229.122 147.953 230.134 147.589C235.623 145.618 248.572 136.805 248.572 136.805V131.84L244.441 127.711Z"
    fill="#5E4942" />
  <path
    d="M233.319 115.112C235.825 115.042 238.207 116.186 239.781 118.136C240.871 119.484 242.054 120.995 242.611 121.852C243.643 123.439 243.707 125.226 245.378 125.986C247.048 126.745 248.433 127.343 249.344 130.38C250.255 133.418 252.196 139.95 251.681 142.684C251.167 145.418 248.52 143.844 247.912 147.489C247.305 151.134 247.977 154.836 249.191 156.507L250.255 161.519C250.255 161.519 246.61 161.671 245.242 160.911C243.875 160.152 244.634 158.026 241.444 158.329C238.254 158.633 225.646 157.721 225.646 157.721C225.646 157.721 226.405 151.949 225.646 149.671C224.887 147.393 223.823 143.139 223.823 143.139C223.823 143.139 220.633 142.848 218.202 140.031C215.772 137.215 218.354 133.417 221.241 134.632L223.064 135.088L223.823 134.329C223.823 134.329 223.064 130.076 221.241 128.253C219.418 126.43 220.494 121.099 221.697 119.747C224.959 116.081 229.846 115.209 233.319 115.112Z"
    fill="#FFBF8F" />
  <path
    d="M249.193 156.507C247.978 154.836 247.307 151.135 247.914 147.489C248.403 144.557 250.209 144.998 251.166 143.862C251.166 143.862 249.248 145.336 244.645 145.633C241.441 145.839 234.892 145.282 231.858 144.72C229.66 144.313 227.083 141.405 227.083 141.405C227.083 141.405 227.645 143.147 223.827 143.139C223.827 143.139 224.891 147.392 225.65 149.671C226.409 151.949 225.65 157.721 225.65 157.721C225.65 157.721 238.258 158.632 241.448 158.329C244.638 158.026 243.878 160.152 245.245 160.911C246.613 161.671 250.259 161.519 250.259 161.519L249.193 156.507Z"
    fill="#E8A370" />
  <path
    d="M219.003 136.927C219.003 136.927 221.747 136.31 223.145 137.878C224.545 139.446 223.481 140.118 222.641 139.893C221.801 139.669 221.857 138.753 222.193 138.371C222.193 138.371 221.354 137.263 219.003 136.927Z"
    fill="#E8A370" />
  <path
    d="M225.937 154.481C225.937 154.481 226.315 157.033 228.869 157.265C231.422 157.498 242.519 156.476 244.004 157.73C245.49 158.984 245.722 159.866 246.975 160.516C248.229 161.166 250.256 161.521 250.256 161.521C250.256 161.521 249.947 161.352 248.321 162.095C246.696 162.838 245.535 168.409 244.468 168.178C243.4 167.945 232.071 163.349 229.472 162.653C226.872 161.957 224.736 162.096 224.179 160.564C223.621 159.03 223.608 155.226 225.937 154.481Z"
    fill="#E24949" />
  <path
    d="M247.788 152.253C247.788 152.253 249.43 151.727 251.165 153.38C252.899 155.034 256.957 162.174 255.455 162.024C253.952 161.873 250.257 161.52 250.257 161.52C250.257 161.52 249.592 157.289 248.991 156.161C248.388 155.034 247.869 153.455 247.788 152.253Z"
    fill="#E24949" />
  <path
    d="M232.197 238.058C232.197 238.058 271.122 232.6 289.92 253.832C289.92 253.832 297.495 289.716 298.584 317.16C298.584 317.16 271.386 306.224 255.781 319.496L251.784 306.166L247.787 313.344C247.787 313.344 246.72 298.181 234.502 292.495C221.042 286.231 207.32 293.854 207.32 293.854C207.32 293.854 214.087 276.412 220.388 264.449C226.692 252.487 230.099 243.184 232.197 238.058Z"
    fill="#E24949" />
  <path
    d="M243.438 237.43C236.727 237.424 232.197 238.058 232.197 238.058C230.099 243.184 226.692 252.487 220.39 264.449C214.089 276.412 207.322 293.854 207.322 293.854C207.322 293.854 219.97 286.836 232.89 291.817C232.306 287.301 232.263 281.649 234.522 277.349C238.958 268.902 224.856 277.349 229.499 264.075C231.888 257.238 238.036 246.369 243.438 237.43Z"
    fill="#C13838" />
  <path
    d="M291.257 260.583C290.455 256.369 289.92 253.832 289.92 253.832C271.122 232.6 232.197 238.058 232.197 238.058C231.475 239.821 230.594 242.089 229.498 244.778C240.497 244.252 271.215 244.423 291.257 260.583Z"
    fill="#C13838" />
  <path
    d="M190.671 387.146C189.064 389.328 190.792 391.779 192.126 394.795C193.458 397.812 195.865 402.985 197.566 404.406C199.267 405.826 199.023 407.836 200.871 413.505C202.719 419.173 213.743 437.927 217.3 439.403C218.961 440.092 220.556 439.646 221.76 438.406C217.942 434.359 212.844 425.459 210.559 420.775C207.971 415.47 205.602 408.542 204.612 404.314C203.621 400.084 199.308 395.157 197.591 390.864C196.765 388.8 196.467 386.418 196.377 384.497C193.602 385.405 191.315 386.273 190.671 387.146Z"
    fill="#FF7373" />
  <path
    d="M201.238 414.5C201.35 414.783 201.472 415.079 201.611 415.399C201.613 415.405 201.615 415.409 201.617 415.415C201.759 415.741 201.919 416.091 202.087 416.451C202.128 416.54 202.17 416.629 202.213 416.721C202.381 417.078 202.558 417.445 202.747 417.828C202.753 417.839 202.758 417.85 202.764 417.861C202.96 418.259 203.171 418.672 203.387 419.094C203.437 419.192 203.488 419.291 203.539 419.39C203.755 419.807 203.977 420.23 204.209 420.664C204.214 420.674 204.219 420.683 204.224 420.691C204.464 421.141 204.714 421.599 204.97 422.062C205.023 422.16 205.078 422.258 205.132 422.356C205.652 423.294 206.197 424.252 206.76 425.215C206.81 425.299 206.86 425.385 206.91 425.469C207.482 426.444 208.069 427.418 208.662 428.375C208.71 428.453 208.758 428.531 208.807 428.608C209.403 429.567 210.003 430.506 210.597 431.407C210.643 431.476 210.688 431.545 210.734 431.614C211.329 432.511 211.915 433.365 212.484 434.159C212.528 434.22 212.571 434.279 212.614 434.34C212.895 434.729 213.173 435.108 213.443 435.464C212.651 431.828 212.122 427.493 211.762 423.129C211.309 422.273 210.9 421.474 210.56 420.776C207.972 415.471 205.603 408.543 204.612 404.315C203.622 400.085 199.308 395.158 197.592 390.865C196.766 388.801 196.468 386.419 196.378 384.498C194.999 384.949 193.742 385.39 192.746 385.827C192.734 385.832 192.723 385.837 192.711 385.842C192.471 385.948 192.247 386.053 192.04 386.159C192.029 386.165 192.018 386.171 192.007 386.177C191.818 386.275 191.645 386.372 191.486 386.469C191.468 386.481 191.448 386.492 191.43 386.504C191.276 386.601 191.143 386.698 191.025 386.795C191.001 386.814 190.979 386.834 190.956 386.853C190.844 386.951 190.744 387.05 190.672 387.148C189.768 388.375 189.92 389.687 190.462 391.138C190.583 391.46 190.722 391.789 190.875 392.125C190.951 392.293 191.029 392.463 191.111 392.636C191.436 393.325 191.794 394.043 192.127 394.797C193.043 396.871 194.467 399.965 195.82 402.157C195.943 402.356 196.066 402.548 196.187 402.731C196.672 403.462 197.142 404.052 197.567 404.407C198.204 404.94 198.569 405.555 198.873 406.415C198.924 406.558 198.973 406.709 199.021 406.866C199.213 407.497 199.396 408.249 199.629 409.169C199.921 410.319 200.294 411.734 200.872 413.506C200.949 413.742 201.048 414.008 201.156 414.287C201.181 414.356 201.209 414.427 201.238 414.5Z"
    fill="#E24949" />
  <path
    d="M184.704 197.987C184.704 197.987 185.169 202.067 183.849 205.318C183.849 205.318 186.194 201.114 186.091 196.845L184.704 197.987Z"
    fill="#E8A370" />
  <path
    d="M343.99 103.695C343.99 103.695 348.997 101.974 351.712 103.695C351.712 103.695 348.215 100.053 343.99 103.695Z"
    fill="#E8A370" />
  <path
    d="M306.734 149.55C306.734 149.55 310.583 148.1 314.377 153.153C314.377 153.153 314.431 149.538 308.125 148.099L306.734 149.55Z"
    fill="#E8A370" />
  <path
    d="M251.785 306.165C251.785 306.165 267.38 297.285 274.138 283.249C274.138 283.249 271.538 294.785 271.538 303.053C271.538 311.32 273.125 313.04 273.125 313.04C273.125 313.04 259.52 314.673 255.781 319.495L251.785 306.165Z"
    fill="#C13838" />
  <path
    d="M221.479 128.517C221.214 127.232 220.917 125.376 221.067 124.022C221.319 121.747 223.764 118.629 229.241 116.017C229.855 115.724 230.418 115.494 230.946 115.301C227.844 115.708 224.268 116.859 221.699 119.747C220.496 121.1 219.42 126.431 221.243 128.254C221.324 128.336 221.401 128.427 221.479 128.517Z"
    fill="#E8A370" />
  <path
    d="M280.408 163.557C284.054 168.101 285.098 179.148 285.098 179.148C285.098 179.148 294.823 176.804 299.202 176.201C299.837 176.385 300.444 176.394 301.019 176.075C301.019 176.075 301.265 171.447 300.617 165.965C296.977 167.624 289.566 170.502 287.682 167.433C285.159 163.321 280.408 163.557 280.408 163.557Z"
    fill="#E0AD0B" />
  <path
    d="M223.825 199.619C223.825 199.619 228.366 205.467 230.705 212.778C233.045 220.089 225.734 232.664 225.442 239.974C225.442 239.974 235.703 236.528 248.258 235.114C243.743 232.573 238.505 228.579 239.167 223.952C240.306 215.977 242.128 213.014 237.062 207.601C231.996 202.187 233.243 196.382 232.196 190.723C231.15 185.064 225.607 179.293 225.607 179.293C225.262 187.041 222.078 192.736 217.717 196.846C215.262 199.16 208.356 201.555 202.79 203.205C205.036 209.445 203.801 214.24 203.801 214.24C203.801 214.24 221.916 203.712 223.825 199.619Z"
    fill="#E0AD0B" />
  <path d="M277.527 78.4859L280.262 71.3616L279.072 70.9051L276.338 78.0295L277.527 78.4859Z" fill="#F24141" />
  <path d="M277.505 78.4824L278.122 76.8754L276.932 76.4188L276.316 78.0258L277.505 78.4824Z" fill="#D33333" />
  <path
    d="M276.329 78.0259C273.98 76.9949 272.677 74.7178 273.407 72.817C274.137 70.9162 276.629 70.0954 279.064 70.9018L276.329 78.0259ZM285.986 85.943C287.143 85.705 286.642 84.2342 286.642 84.2342C286.642 84.2342 288 85.3075 288.624 84.3984C289.341 83.352 287.934 82.3469 287.934 82.3469C287.934 82.3469 289.633 82.729 289.99 81.8006C290.346 80.8723 288.761 79.9776 288.761 79.9776C290.462 80.6141 291.025 79.5782 291.025 79.5782C291.025 79.5782 291.299 78.432 289.61 77.7667C289.61 77.7667 291.387 78.1622 291.743 77.2339C292.099 76.3056 290.58 75.4522 290.58 75.4522C290.58 75.4522 292.299 75.647 292.466 74.3894C292.611 73.297 290.883 73.1856 290.883 73.1856C290.883 73.1856 292.239 72.4282 291.539 71.4768C290.838 70.5264 288.058 71.3837 286.572 71.7206C283.846 72.3389 282.297 72.0288 280.254 71.3558L278.887 74.9184L277.52 78.481C279.488 79.3478 280.847 80.1533 282.459 82.4371C283.336 83.6832 284.829 86.1811 285.986 85.943Z"
    fill="#C5DAFF" />
  <path
    d="M276.329 78.0259C274.167 77.0774 272.913 75.0749 273.292 73.2806C274.024 74.3731 275.173 75.5203 276.947 76.416L276.329 78.0259ZM278.112 76.9354L277.519 78.4819C279.487 79.3488 280.846 80.1542 282.458 82.4381C283.336 83.6822 284.829 86.1802 285.986 85.9421C287.143 85.704 286.642 84.2333 286.642 84.2333C286.642 84.2333 288 85.3066 288.624 84.3974C286.144 78.2189 278.112 76.9354 278.112 76.9354Z"
    fill="#91AFDB" />
</svg>