<svg width="512" height="512" viewBox="0 0 512 512" fill="none" xmlns="http://www.w3.org/2000/svg">
  <g clip-path="url(#clip0_11_84)">
    <path
      d="M68.7646 209.335L68.7846 211.566C68.8536 219.433 62.8194 226.011 54.9751 226.619L30.847 228.487C22.2046 229.156 14.8033 222.366 14.7273 213.697L14.6783 208.154C14.6023 199.486 21.8836 192.566 30.536 193.083L54.693 194.527C62.5464 194.996 68.6956 201.467 68.7646 209.335Z"
      fill="#DD636E" />
    <path
      d="M78.8579 259.754L79.99 261.676C83.9831 268.456 82.046 277.169 75.5568 281.617L55.5949 295.3C48.4446 300.201 38.6402 298.021 34.24 290.552L31.4259 285.775C27.0257 278.307 29.8718 268.674 37.6241 264.795L59.2671 253.967C66.3044 250.447 74.8647 252.976 78.8579 259.754Z"
      fill="#DD636E" />
    <path
      d="M116.775 294.229L118.717 295.327C125.565 299.201 128.244 307.715 124.848 314.813L114.402 336.642C110.659 344.462 101.078 347.476 93.5338 343.209L88.7096 340.48C81.1652 336.211 78.8131 326.446 83.5873 319.212L96.9169 299.013C101.249 292.445 109.926 290.354 116.775 294.229Z"
      fill="#DD636E" />
    <path
      d="M447.82 327.436C514.989 260.267 513.8 150.23 444.254 84.5796C379.026 23.003 276.081 23.333 211.229 85.3057C161.355 132.964 147.157 203.611 168.623 264.364C180.582 298.213 171.645 335.941 146.261 361.326L98.7507 408.836C91.0844 416.502 90.5164 428.992 97.9057 436.926C105.663 445.255 118.709 445.429 126.688 437.45L174.44 389.698C199.833 364.305 237.586 355.243 271.442 367.219C331.056 388.307 400.207 375.049 447.82 327.436ZM236.704 299.16C186.294 248.751 186.294 166.729 236.704 116.32C287.113 65.9108 369.134 65.9108 419.544 116.32C469.953 166.729 469.953 248.751 419.544 299.16C369.134 349.569 287.113 349.569 236.704 299.16Z"
      fill="#E49542" />
    <path
      d="M111.445 421.53L158.955 374.02C184.339 348.636 193.277 310.906 181.317 277.059C159.851 216.304 174.05 145.658 223.923 98.0002C287.794 36.9656 388.612 35.7235 453.96 94.5221C450.886 91.1099 447.655 87.7898 444.254 84.5796C379.026 23.003 276.081 23.333 211.229 85.3057C161.355 132.964 147.158 203.611 168.623 264.364C180.582 298.213 171.645 335.941 146.261 361.326L98.7507 408.836C91.0844 416.502 90.5164 428.992 97.9057 436.927C100.311 439.509 103.226 441.304 106.34 442.319C104.066 435.244 105.864 427.111 111.445 421.53Z"
      fill="#E28424" />
    <path
      d="M243.275 305.282C245.228 307.524 247.264 309.719 249.398 311.853C299.807 362.263 381.829 362.263 432.238 311.853C482.647 261.444 482.647 179.423 432.238 129.014C430.104 126.879 427.909 124.843 425.667 122.89C469.855 173.62 467.819 250.884 419.543 299.159C371.268 347.434 294.005 349.471 243.275 305.282Z"
      fill="#E28424" />
    <path
      d="M56.5262 498.931L36.9323 479.338C29.49 471.895 29.49 459.829 36.9323 452.386L99.78 389.539C107.222 382.096 119.289 382.096 126.731 389.539L146.325 409.133C153.767 416.575 153.767 428.641 146.325 436.084L83.4773 498.931C76.035 506.374 63.9685 506.374 56.5262 498.931Z"
      fill="#FFD064" />
    <path
      d="M52.4461 494.853L36.9294 479.337C29.4931 471.9 29.4931 459.826 36.9364 452.382L99.7801 389.539C107.223 382.095 119.291 382.102 126.727 389.539L142.244 405.055C134.801 397.612 122.74 397.612 115.297 405.055L52.4531 467.899C45.0097 475.342 45.0017 487.41 52.4461 494.853Z"
      fill="#FFC250" />
    <path
      d="M196.845 124.317L163.273 27.0712C156.589 7.71234 132.202 1.01105 117.002 14.7356C116.744 14.9687 116.49 15.2057 116.239 15.4487C103.913 27.3692 103.789 47.027 115.866 59.1045C103.912 47.151 84.5312 47.151 72.5767 59.1045C60.6222 71.0581 60.6232 90.4389 72.5767 102.393C60.4992 90.3149 40.8413 90.4399 28.9208 102.765C28.6778 103.016 28.4398 103.271 28.2078 103.528C14.4832 118.729 21.1845 143.116 40.5433 149.799L137.789 183.372L187.892 174.419L196.845 124.317Z"
      fill="#FFD064" />
    <path
      d="M64.3262 126.016C51.3647 119.006 42.3863 105.044 42.5693 94.5871C37.5501 96.0071 32.8189 98.7342 28.9197 102.764C28.6757 103.017 28.4407 103.269 28.2057 103.531C14.4861 118.732 21.1874 143.121 40.5442 149.799L137.79 183.377L187.893 174.419L149.236 171.931L64.3262 126.016Z"
      fill="#FFC250" />
    <path
      d="M208.467 194.994C192.159 211.302 165.719 211.302 149.411 194.994L137.789 183.372L196.844 124.316L208.467 135.939C224.774 152.248 224.774 178.687 208.467 194.994Z"
      fill="#DDEAFB" />
    <path
      d="M215.012 186.522C199.018 195.875 178.141 193.697 164.427 179.983L152.803 168.359L137.791 183.372L149.414 194.995C165.721 211.302 192.162 211.298 208.469 194.991C211.061 192.399 213.243 189.546 215.012 186.522Z"
      fill="#CBE2FF" />
    <path
      d="M31.4252 235.964L55.5532 234.096C67.2817 233.188 76.3871 223.263 76.2831 211.5L76.2631 209.27C76.1591 197.506 66.8807 187.743 55.1382 187.041L30.9802 185.597C24.7919 185.228 18.6597 187.465 14.1635 191.738C9.66727 196.01 7.12116 202.019 7.17516 208.22L7.22416 213.763C7.27816 219.965 9.93128 225.927 14.5005 230.12C18.6477 233.925 24.1089 236.031 29.7061 236.031C30.2792 236.03 30.8532 236.008 31.4252 235.964ZM24.6449 219.066C23.1038 217.652 22.2458 215.722 22.2268 213.631L22.1778 208.088C22.1598 205.997 22.9848 204.052 24.4999 202.612C25.904 201.278 27.709 200.557 29.6271 200.557C29.7801 200.557 29.9341 200.562 30.0881 200.571L54.2462 202.015C58.1473 202.248 61.2305 205.493 61.2655 209.401L61.2855 211.631C61.3195 215.54 58.2934 218.838 54.3962 219.139L30.2682 221.007C28.1831 221.167 26.186 220.479 24.6449 219.066Z"
      fill="black" />
    <path
      d="M27.7792 294.359C30.9264 299.703 36.2046 303.539 42.2589 304.885C43.8619 305.241 45.488 305.417 47.1101 305.417C51.6143 305.417 56.0745 304.064 59.8366 301.486L79.7985 287.803C89.5009 281.153 92.424 268.005 86.4538 257.869L85.3217 255.947C79.3505 245.813 66.4339 241.996 55.9135 247.259L34.2705 258.087C28.7243 260.862 24.5351 265.865 22.777 271.814C21.02 277.762 21.818 284.238 24.9661 289.581L27.7792 294.359ZM37.1627 276.064C37.7557 274.059 39.1117 272.439 40.9818 271.503L62.6247 260.674C63.6868 260.142 64.8218 259.89 65.9449 259.89C68.515 259.89 71.0151 261.217 72.3972 263.561L73.5292 265.482C75.5133 268.851 74.5423 273.22 71.3181 275.429L51.3553 289.112C49.6302 290.295 47.5561 290.695 45.514 290.242C43.4729 289.788 41.7638 288.546 40.7028 286.744L37.8897 281.968C36.8286 280.166 36.5696 278.07 37.1627 276.064Z"
      fill="black" />
    <path
      d="M74.2362 332.713C75.6882 338.744 79.6174 343.953 85.0156 347.007L89.8398 349.736C93.239 351.659 97.0702 352.642 100.919 352.642C103.183 352.642 105.453 352.302 107.645 351.612C113.561 349.751 118.49 345.474 121.167 339.88L131.614 318.05C136.691 307.44 132.649 294.591 122.409 288.798L120.468 287.7C110.229 281.908 97.1342 285.062 90.6559 294.881L77.3263 315.08C73.9102 320.256 72.7841 326.683 74.2362 332.713ZM89.8469 323.342L103.176 303.143C104.6 300.984 106.989 299.795 109.426 299.795C110.672 299.795 111.932 300.106 113.083 300.757L115.024 301.855C118.426 303.78 119.77 308.049 118.083 311.575L107.637 333.405C106.734 335.291 105.138 336.676 103.142 337.304C101.148 337.931 99.0462 337.71 97.2262 336.679L92.402 333.95C90.5819 332.92 89.3098 331.233 88.8198 329.2C88.3298 327.168 88.6948 325.087 89.8469 323.342Z"
      fill="black" />
    <path
      d="M504.805 205.189C504.113 156.971 484.439 112.199 449.406 79.1214C416.454 48.0181 373.213 30.9343 327.577 31.1093C281.97 31.2514 238.809 48.5691 206.046 79.8734C201.77 83.9606 197.708 88.2638 193.878 92.732L170.365 24.6241C166.348 12.9986 156.821 4.22319 144.879 1.14906C133.177 -1.86307 120.877 1.13406 111.979 9.1654C111.958 9.1844 111.9 9.23741 111.879 9.25741C111.575 9.53842 111.283 9.81043 110.99 10.1014C103.607 17.2598 99.4932 26.8562 99.4042 37.1306C99.3872 39.1297 99.5222 41.1058 99.8042 43.0449C97.9721 42.7778 96.108 42.6418 94.2229 42.6418C84.0435 42.6418 74.4751 46.605 67.2808 53.7993C60.0785 60.9956 56.1123 70.566 56.1123 80.7475C56.1123 82.6326 56.2483 84.4966 56.5153 86.3287C54.5772 86.0467 52.6081 85.9097 50.6061 85.9277C40.3086 86.0147 30.6922 90.1439 23.5129 97.5702C23.2349 97.8592 22.9569 98.1602 22.6449 98.4992C14.6075 107.397 11.6084 119.698 14.6215 131.406C17.6956 143.35 26.47 152.876 38.0935 156.889L65.9647 166.509C69.8789 167.861 74.1501 165.782 75.5021 161.867C76.8542 157.952 74.7751 153.681 70.8599 152.33L42.9887 142.709C36.1384 140.344 30.9652 134.721 29.1501 127.666C27.3691 120.747 29.0561 113.781 33.7313 108.605C33.9253 108.394 34.1273 108.175 34.3144 107.98C38.6595 103.484 44.4908 100.98 50.7341 100.927C56.9703 100.89 62.8596 103.279 67.2798 107.7C70.2089 110.629 74.9581 110.629 77.8862 107.7C80.8154 104.771 80.8154 100.022 77.8862 97.0932C73.518 92.725 71.1129 86.9197 71.1129 80.7475C71.1129 74.5762 73.517 68.774 77.8862 64.4088C82.2494 60.0456 88.0517 57.6425 94.2239 57.6425C100.396 57.6425 106.198 60.0456 110.562 64.4088C113.49 67.3379 118.238 67.3379 121.167 64.4098C124.096 61.4816 124.098 56.7334 121.17 53.8033C116.753 49.3831 114.35 43.5079 114.404 37.2606C114.458 31.0203 116.963 25.1901 121.457 20.8459C121.487 20.8159 121.518 20.7869 121.547 20.7569C121.714 20.5899 121.883 20.4369 122.029 20.3009C127.257 15.5817 134.223 13.8956 141.139 15.6767C148.192 17.4918 153.817 22.668 156.186 29.5213L188.226 122.331L135.806 174.751L98.9191 162.02C95.004 160.671 90.7338 162.748 89.3817 166.663C88.0307 170.579 90.1098 174.849 94.0249 176.201L133.703 189.894L144.108 200.301C146.396 202.589 148.86 204.596 151.449 206.339C151.274 227.032 154.667 247.372 161.552 266.863C172.425 297.639 164.339 332.637 140.949 356.025L119.71 377.264C110.958 375.085 101.305 377.407 94.4749 384.236L31.6272 447.084C21.2728 457.439 21.2728 474.287 31.6272 484.643L51.2211 504.237C56.3983 509.414 63.1996 512.003 69.9999 512.003C76.8012 512.003 83.6015 509.415 88.7787 504.237L151.626 441.389C158.457 434.559 160.779 424.904 158.599 416.151L179.737 395.004C203.188 371.553 238.199 363.423 268.935 374.29C300.118 385.323 333.724 387.415 366.122 380.337C370.169 379.453 372.732 375.456 371.849 371.409C370.965 367.363 366.967 364.799 362.92 365.682C333.253 372.161 302.485 370.248 273.938 360.147C237.785 347.363 196.644 356.881 169.128 384.398L150.664 402.869L132.992 385.197L151.555 366.633C179.008 339.182 188.482 298.059 175.695 261.866C170.132 246.12 167.066 229.766 166.531 213.117C170.594 214.168 174.764 214.705 178.938 214.705C183.169 214.705 187.397 214.152 191.515 213.071C192.866 247.327 207.068 280.135 231.403 304.471C258.067 331.135 293.093 344.467 328.121 344.467C363.149 344.467 398.179 331.134 424.848 304.47C478.178 251.129 478.178 164.346 424.847 111.015C371.509 57.6875 284.73 57.6875 231.403 111.016C225.118 117.301 219.493 124.162 214.57 131.482C214.302 131.201 214.044 130.915 213.769 130.639L203.372 120.241L199.637 109.426C204.693 102.818 210.319 96.5372 216.406 90.7199C246.377 62.0837 285.874 46.242 327.621 46.111C369.354 45.957 408.962 61.5787 439.106 90.0299C471.165 120.3 489.17 161.275 489.803 205.405C490.436 249.555 473.644 291.01 442.521 322.134C427.256 337.398 409.468 349.249 389.652 357.357C385.818 358.925 383.982 363.306 385.55 367.14C386.738 370.044 389.54 371.802 392.495 371.802C393.441 371.802 394.403 371.622 395.332 371.241C417.002 362.375 436.447 349.422 453.126 332.741C487.145 298.725 505.497 253.426 504.805 205.189ZM144.407 422.607C144.407 425.694 143.205 428.596 141.022 430.779L78.1742 493.627C73.669 498.132 66.3367 498.133 61.8305 493.627L42.2367 474.033C37.7305 469.527 37.7305 462.195 42.2367 457.689L105.084 394.841C107.267 392.658 110.17 391.456 113.257 391.456C116.343 391.456 119.246 392.658 121.428 394.841L141.022 414.435C143.205 416.618 144.407 419.521 144.407 422.607ZM154.716 189.691L148.397 183.373L196.845 134.925L203.164 141.243C216.52 154.601 216.52 176.334 203.164 189.691C189.806 203.048 168.073 203.048 154.716 189.691ZM213.771 200.298C214.582 199.487 215.345 198.648 216.088 197.796L226.087 207.794L207.811 226.07C206.82 219.576 206.347 212.98 206.421 206.342C209.013 204.599 211.48 202.589 213.771 200.298ZM211.741 243.354L236.693 218.402L271.794 253.503L236.895 288.401C225.333 275.303 216.793 259.897 211.741 243.354ZM328.11 126.985L363.211 162.085L328.109 197.187L293.008 162.087L328.11 126.985ZM282.402 151.48L247.443 116.52C260.828 104.665 276.217 96.2661 292.444 91.3219L317.503 116.378L282.402 151.48ZM338.716 116.378L363.78 91.3149C380.01 96.2551 395.402 104.651 408.791 116.503L373.818 151.477L338.716 116.378ZM328.117 288.612L293.006 253.502L328.108 218.4L363.218 253.511L328.117 288.612ZM373.826 264.117L408.735 299.027C395.336 310.872 379.934 319.261 363.696 324.191L338.724 299.219L373.826 264.117ZM317.511 299.219L292.541 324.188C276.301 319.256 260.898 310.862 247.499 299.01L282.4 264.108L317.511 299.219ZM338.715 207.793L373.818 172.69L408.929 207.8L373.826 242.903L338.715 207.793ZM317.502 207.793L282.4 242.894L247.299 207.794L282.401 172.692L317.502 207.793ZM309.847 328.096L328.117 309.826L346.389 328.098C334.282 329.918 321.954 329.918 309.847 328.096ZM419.346 288.424L384.432 253.511L419.537 218.406L444.544 243.412C439.601 259.643 431.201 275.035 419.346 288.424ZM448.464 226.118L430.144 207.799L448.481 189.462C450.308 201.607 450.302 213.975 448.464 226.118ZM444.573 172.156L419.537 197.192L384.425 162.083L419.397 127.111C431.248 140.512 439.641 155.915 444.573 172.156ZM346.484 87.3978L328.11 105.772L309.739 87.4018C321.912 85.5577 334.31 85.5567 346.484 87.3978ZM236.842 127.133L271.795 162.086L236.693 197.187L224.255 184.749C229.636 172.057 229.467 157.557 223.733 144.983C227.538 138.661 231.93 132.691 236.842 127.133Z"
      fill="black" />
  </g>
  <defs>
    <clipPath id="clip0_11_84">
      <rect width="512" height="512" fill="white" />
    </clipPath>
  </defs>
</svg>