<svg id="Capa_1" enable-background="new 0 0 512 512" height="512" viewBox="0 0 512 512" width="512" xmlns="http://www.w3.org/2000/svg"><g><g fill="#dd636e"><path d="m63.123 207.926.02 2.298c.071 8.104-6.145 14.88-14.226 15.506l-24.856 1.925c-8.903.689-16.528-6.306-16.606-15.235l-.05-5.71c-.078-8.929 7.422-16.057 16.336-15.524l24.886 1.487c8.091.483 14.425 7.148 14.496 15.253z"/><path d="m73.521 259.866 1.166 1.98c4.114 6.983 2.118 15.959-4.567 20.541l-20.563 14.094c-7.366 5.048-17.466 2.803-21.999-4.891l-2.898-4.92c-4.533-7.694-1.601-17.617 6.385-21.612l22.295-11.155c7.249-3.626 16.067-1.021 20.181 5.963z"/><path d="m112.58 295.378 2 1.131c7.054 3.991 9.814 12.762 6.316 20.073l-10.761 22.488c-3.854 8.055-13.725 11.16-21.497 6.764l-4.97-2.812c-7.772-4.397-10.195-14.456-5.277-21.909l13.731-20.808c4.464-6.764 13.404-8.917 20.458-4.927z"/></g><g><g fill="#cbe2ff"><path d="m275.441 130.342h15.452v246.12h-15.452z" transform="matrix(.707 -.707 .707 .707 -96.245 274.45)"/><path d="m322.531 65.462h15.453v281.701h-15.453z" transform="matrix(.707 -.707 .707 .707 -49.155 293.954)"/><path d="m369.616 36.115h15.452v246.215h-15.452z" transform="matrix(.707 -.707 .707 .707 -2.062 313.468)"/></g><g fill="#ddeafb"><path d="m254.349 245.676h246.12v15.452h-246.12z" transform="matrix(.707 -.707 .707 .707 -68.642 341.088)"/><path d="m189.471 198.581h281.686v15.453h-281.686z" transform="matrix(.707 -.707 .707 .707 -49.135 293.993)"/><path d="m160.125 151.497h246.208v15.453h-246.208z" transform="matrix(.707 -.707 .707 .707 -29.632 246.909)"/></g><path d="m453.602 329.586c69.193-69.193 67.968-182.546-3.673-250.176-67.194-63.431-173.241-63.091-240.048.748-51.376 49.094-66.002 121.87-43.89 184.455 12.32 34.868 3.113 73.734-23.036 99.884l-48.941 48.943c-7.897 7.897-8.482 20.764-.87 28.937 7.991 8.58 21.43 8.76 29.65.54l49.191-49.191c26.158-26.158 65.049-35.493 99.925-23.157 61.41 21.723 132.644 8.065 181.692-40.983zm-217.478-29.128c-51.928-51.928-51.928-136.421 0-188.35s136.422-51.929 188.35 0 51.928 136.422 0 188.35-136.422 51.928-188.35 0z" fill="#e49542"/><g fill="#e28424"><path d="m107.09 426.516 48.942-48.942c26.149-26.149 35.355-65.015 23.036-99.884-22.113-62.585-7.487-135.361 43.89-184.455 65.796-62.874 169.652-64.154 236.97-3.583-3.166-3.515-6.495-6.935-9.999-10.242-67.194-63.432-173.241-63.091-240.048.748-51.376 49.094-66.002 121.87-43.89 184.455 12.32 34.868 3.113 73.734-23.036 99.883l-48.941 48.944c-7.897 7.897-8.482 20.764-.87 28.937 2.478 2.66 5.481 4.51 8.688 5.555-2.344-7.289-.491-15.666 5.258-21.416z"/><path d="m242.893 306.765c2.012 2.31 4.109 4.571 6.308 6.769 51.928 51.928 136.421 51.928 188.35 0s51.929-136.422 0-188.35c-2.198-2.198-4.459-4.295-6.769-6.308 45.52 52.259 43.422 131.851-6.308 181.581s-129.322 51.828-181.581 6.308z"/></g><path d="m50.516 506.25-20.184-20.184c-7.667-7.667-7.667-20.097 0-27.763l64.742-64.742c7.667-7.667 20.097-7.667 27.763 0l20.184 20.184c7.667 7.667 7.667 20.097 0 27.763l-64.741 64.742c-7.667 7.667-20.097 7.667-27.764 0z" fill="#ffd064"/><path d="m46.313 502.049-15.984-15.984c-7.661-7.661-7.661-20.099.007-27.767l64.738-64.738c7.668-7.668 20.099-7.661 27.759 0l15.984 15.984c-7.668-7.668-20.091-7.668-27.759 0l-64.738 64.739c-7.668 7.668-7.675 20.098-.007 27.766z" fill="#ffc250"/></g><g><path d="m195.063 120.346-34.584-100.177c-6.885-19.942-32.006-26.846-47.665-12.708-.265.24-.528.485-.786.735-12.697 12.28-12.825 32.53-.384 44.971-12.314-12.314-32.279-12.314-44.593 0s-12.314 32.279 0 44.593c-12.442-12.44-32.692-12.312-44.972.385-.25.259-.495.521-.735.786-14.138 15.659-7.235 40.781 12.708 47.665l100.177 34.584 51.612-9.222z" fill="#ffd064"/><path d="m58.551 122.097c-13.351-7.221-22.601-21.605-22.413-32.376-5.17 1.463-10.044 4.273-14.061 8.424-.251.26-.494.521-.736.79-14.133 15.659-7.23 40.782 12.71 47.662l100.176 34.589 51.612-9.227-39.822-2.563z" fill="#ffc250"/><path d="m207.036 193.154c-16.799 16.799-44.036 16.799-60.835 0l-11.973-11.973 60.835-60.835 11.973 11.973c16.799 16.799 16.799 44.036 0 60.835z" fill="#ddeafb"/><path d="m213.778 184.426c-16.475 9.636-37.982 7.392-52.11-6.736l-11.974-11.974-15.466 15.466 11.974 11.974c16.799 16.798 44.036 16.794 60.835-.005 2.67-2.671 4.919-5.61 6.741-8.725z" fill="#cbe2ff"/></g></g></svg>